<?xml version="1.0" encoding="UTF-8"?>
<svg width="428px" height="378px" viewBox="0 0 428 378" version="1.1" xmlns="http://www.w3.org/2000/svg" xmlns:xlink="http://www.w3.org/1999/xlink">
    <!-- Generator: Sketch 51.1 (57501) - http://www.bohemiancoding.com/sketch -->
    <title>Group</title>
    <desc>Created with Sketch.</desc>
    <defs></defs>
    <g id="Desktop" stroke="none" stroke-width="1" fill="none" fill-rule="evenodd">
        <g id="Home-2" transform="translate(-866.000000, -1671.000000)">
            <g id="services" transform="translate(69.000000, 1355.000000)">
                <g id="challenging-Friends">
                    <g id="Group" transform="translate(797.000000, 316.000000)">
                        <path d="M8.24789092,249.514012 C-1.70490174,238.769587 -3.81170401,221.120419 10.5339562,214.079917 C17.8763469,210.476905 27.5454605,210.706313 34.70212,206.878975 C42.7495502,202.575397 45.5844929,194.064797 44.5541927,186.458761 C43.5238925,178.853451 39.3564897,171.770843 36.0392002,164.58079 C29.9830677,151.452266 26.6519176,137.549852 26.2176206,123.590086 C25.9551944,115.151357 26.8505854,106.396104 31.9401761,98.9628496 C37.0306909,91.5288696 47.173835,85.7254286 57.877869,86.4499513 C62.9129416,86.7897074 67.6680313,88.4993776 72.6975597,88.8914039 C84.6250175,89.8206514 95.700514,83.0451304 101.563523,74.8321796 C107.426532,66.6185029 109.318034,57.0908122 112.016219,47.9159451 C115.303015,36.741744 120.132028,25.505109 129.570133,16.7549371 C139.007313,8.00476514 153.875978,2.15486176 168.221638,4.28269333 C189.423646,7.4283413 202.818473,26.0946004 224.126745,28.7611051 C240.807444,30.8482821 256.284125,22.5148196 271.06593,16.0921223 C284.350797,10.3198982 298.543067,5.83700496 313.21676,2.777022 C324.919677,0.337021344 337.355355,-1.18825131 349.076752,1.1929454 C360.799998,3.57414211 371.626005,10.6480387 373.704162,20.0196449 C375.037546,26.0336185 372.742241,32.138339 370.471884,37.9766268 C367.234062,46.2991997 363.997163,54.6224985 360.760265,62.9457974 C359.711484,65.6406151 358.652538,68.4327135 359.081291,71.2298936 C359.599675,74.6056756 362.235026,77.5582143 365.248308,79.997489 C379.078356,91.1883875 401.55923,94.3340355 413.721393,106.662536 C419.597338,112.619158 422.354662,120.072013 424.67122,127.384029 C426.614468,133.515611 428.345188,139.849013 427.256673,146.108367 C425.239503,157.697825 413.975503,166.954727 401.939009,173.839145 C389.903439,180.722836 376.387563,186.222819 366.176964,194.736324 C363.197872,197.219883 360.393422,200.254457 360.546812,203.665811 C360.756569,208.298255 366.10951,211.554251 370.115206,214.956894 C381.754365,224.842491 383.767839,239.931873 379.538526,252.981266 C375.308289,266.03066 365.741743,277.555507 356.330436,288.809565 C342.122457,305.800275 327.913554,322.790984 313.704651,339.78242 C306.316983,348.616805 298.72233,357.628328 288.026612,364.042314 C273.855595,372.541298 255.604034,375.639032 237.836668,376.796235 C209.300586,378.65473 178.183671,375.332671 157.217292,360.011703 C147.204437,352.696056 140.161434,343.103028 129.803914,336.089387 C113.973328,325.370372 92.396161,321.891502 73.8221116,314.363871 C55.2499104,306.836241 38.084092,291.266263 44.0302642,275.524956 L43.7733822,277.877113 C33.4500511,267.350482 18.2016076,260.258436 8.24789092,249.514012 Z" id="Fill-3" fill="#ABC5E7"></path>
                        <g transform="translate(13.430962, 102.373780)" fill="#FFFFFF" fill-rule="nonzero" opacity="0.4">
                            <g transform="translate(0.000000, 44.745002)">
                                <path d="M62.2251511,52.0574152 L62.3751511,52.0574152 C62.3751511,52.0574152 62.3251511,52.0574152 62.2251511,52.0574152 Z" id="Shape"></path>
                                <path d="M285.880521,0.121873547 L167.99398,0.121873547 L96.2975128,0.121873547 L11.2645979,0.121873547 C5.08386797,0.121873547 0.0522315202,4.30039517 0.0522315202,9.43649465 C0.0522315202,14.5900046 5.06645746,18.7511158 11.2645979,18.7511158 L42.673152,18.7511158 C42.5860995,18.7511158 42.5164575,18.7511158 42.4294049,18.7511158 C46.6079265,18.8555788 49.9507438,21.7109019 49.9507438,25.2104138 C49.9507438,28.7099256 46.6079265,31.5478382 42.4294049,31.6697118 C42.5164575,31.6697118 42.5860995,31.6697118 42.673152,31.6697118 L33.2888889,31.6697118 C28.0657369,31.6697118 23.8349837,35.1866341 23.8349837,39.5392608 C23.8349837,43.8918875 28.0657369,47.4088099 33.2888889,47.4088099 L63.3394235,47.4088099 C64.4188749,47.75702 65.1849372,48.6275453 65.1849372,49.6547652 C65.1849372,50.9779637 63.8965597,52.0574152 62.2947931,52.0574152 L62.9738029,52.0574152 C57.9769874,52.0574152 53.9203394,55.4350535 53.9203394,59.5961646 C53.9203394,63.7572757 57.9769874,67.134914 62.9738029,67.134914 L209.465807,67.134914 C214.462622,67.134914 218.51927,63.7572757 218.51927,59.5961646 C218.51927,55.4350535 214.462622,52.0574152 209.465807,52.0574152 L240.926592,52.0574152 L340.706206,52.0574152 C347.478894,52.0574152 352.963203,47.4958624 352.963203,41.8722687 C352.963203,37.0669689 348.958787,33.0451418 343.57894,31.9656904 C342.778057,31.7741748 341.942352,31.6871223 341.071827,31.6871223 L243.677452,31.6871223 C240.700256,31.6871223 238.297606,29.684914 238.297606,27.212622 C238.297606,24.7403301 240.717666,22.7381218 243.677452,22.7381218 L243.677452,22.6858903 L285.880521,22.6858903 C293.367039,22.6858903 299.443305,17.6368433 299.443305,11.4038819 C299.443305,5.1709205 293.367039,0.121873547 285.880521,0.121873547 Z" id="Shape"></path>
                                <circle id="Oval" cx="36.0223384" cy="61.4416783" r="5.60618317"></circle>
                            </g>
                            <g transform="translate(35.865644, 0.000000)" id="Shape">
                                <path d="M102.930916,51.9355416 L103.080916,51.9355416 C103.030916,51.9355416 102.980916,51.9355416 102.930916,51.9355416 Z"></path>
                                <path d="M326.586285,0 L208.699744,0 L137.003278,0 L51.9703626,0 C45.7896327,0 40.7579963,4.17852162 40.7579963,9.31462111 C40.7579963,14.4681311 45.7722222,18.6292422 51.9703626,18.6292422 L83.3789168,18.6292422 C83.2918642,18.6292422 83.2222222,18.6292422 83.1351697,18.6292422 C87.3136913,18.7337053 90.6565086,21.5890284 90.6565086,25.0885402 C90.6565086,28.5880521 87.3136913,31.4259647 83.1351697,31.5478382 C83.2222222,31.5478382 83.2918642,31.5478382 83.3789168,31.5478382 L73.9946536,31.5478382 C68.7715016,31.5478382 64.5407485,35.0647606 64.5407485,39.4173873 C64.5407485,43.7700139 68.7715016,47.2869363 73.9946536,47.2869363 L104.045188,47.2869363 C105.12464,47.6351464 105.890702,48.5056718 105.890702,49.5328917 C105.890702,50.8560902 104.602325,51.9355416 103.000558,51.9355416 L103.679568,51.9355416 C98.6827522,51.9355416 94.6261041,55.3131799 94.6261041,59.474291 C94.6261041,63.6354021 98.6827522,67.0130404 103.679568,67.0130404 L250.171571,67.0130404 C255.168387,67.0130404 259.225035,63.6354021 259.225035,59.474291 C259.225035,55.3131799 255.168387,51.9355416 250.171571,51.9355416 L281.632357,51.9355416 L287.23854,51.9355416 C294.011227,51.9355416 299.495537,47.3739888 299.495537,41.7503952 C299.495537,36.9450953 295.49112,32.9232682 290.111274,31.8438168 C289.310391,31.6523013 288.474686,31.5652487 287.604161,31.5652487 L284.365807,31.5652487 C281.38861,31.5652487 278.98596,29.5630404 278.98596,27.0907485 C278.98596,24.6184565 281.40602,22.6162483 284.365807,22.6162483 L284.365807,22.5640167 L326.603696,22.5640167 C334.090214,22.5640167 340.166481,17.5149698 340.166481,11.2820084 C340.166481,5.04904695 334.072803,0 326.586285,0 Z"></path>
                                <path d="M25.6282659,7.10348675 L6.40706648,7.10348675 C2.95978615,7.10348675 0.156694561,9.43649465 0.156694561,12.3092283 C0.156694561,15.1819619 2.95978615,17.5149698 6.40706648,17.5149698 L25.6108554,17.5149698 C29.0581358,17.5149698 31.8612273,15.1819619 31.8612273,12.3092283 C31.8786378,9.43649465 29.0755463,7.10348675 25.6282659,7.10348675 Z"></path>
                                <path d="M333.219689,37.345537 L314.0159,37.345537 C310.568619,37.345537 307.765528,39.6785449 307.765528,42.5512785 C307.765528,45.4240121 310.568619,47.75702 314.0159,47.75702 L333.219689,47.75702 C336.666969,47.75702 339.47006,45.4240121 339.47006,42.5512785 C339.47006,39.6785449 336.666969,37.345537 333.219689,37.345537 Z"></path>
                            </g>
                        </g>
                        <g transform="translate(154.978382, 86.530219)" fill-rule="nonzero">
                            <circle id="Oval" fill="#C1D7F0" cx="87.0873547" cy="87.1047652" r="86.9654812"></circle>
                            <path d="M81.6552766,42.533868 C81.8642027,41.9767318 82.0208973,41.402185 82.1427708,40.8102278 C82.1427708,40.8102278 87.5748489,41.8896792 88.0101116,36.0223384 C88.0623431,35.3433287 88.0275221,34.7861925 87.9404695,34.2986983 C89.4029521,32.4705951 91.2136448,29.7719665 92.6238959,26.1505811 C95.4966295,18.7859368 90.464993,17.5149698 90.464993,17.5149698 C90.464993,17.5149698 93.3377266,10.8641562 79.8619944,9.07087401 C66.3862622,7.27759182 60.9890051,10.6900511 58.6559972,15.0078568 C57.0890516,17.9154114 58.029219,19.6738726 58.8301023,20.5095769 C58.7778708,23.1733845 58.7430497,28.6228731 59.1957229,34.2116457 C59.0912599,34.4728033 59.1086704,34.6817294 59.1086704,34.6817294 C59.1086704,34.6817294 59.1609019,34.6643189 59.2305439,34.6294979 C59.7006276,40.2008601 60.6582055,45.8592748 62.5733612,48.993166 C62.5211297,49.097629 62.4863087,49.2195026 62.4514877,49.3239656 C59.7528591,56.8801255 52.5623199,102.356369 52.5623199,102.356369 L52.4230358,102.495653 L49.6895862,102.495653 L18.3680846,102.495653 L18.3680846,97.5684798 L17.4453278,97.5684798 L17.4453278,94.4171781 L16.6096234,93.0243375 L16.6096234,92.9546955 L16.6096234,87.6444909 L17.6368433,85.9556718 L17.6368433,85.7293352 L17.6368433,83.5704324 L16.801139,83.5704324 L16.801139,84.4235472 L16.2962343,84.4235472 L16.2962343,83.9534635 L15.7390981,83.9534635 L15.7390981,84.8762204 L15.0949093,84.8762204 L15.0949093,83.7271269 L14.9033938,83.7271269 L14.294026,83.7271269 L14.1025105,83.7271269 L14.1025105,84.8762204 L13.4583217,84.8762204 L13.4583217,83.9534635 L12.9011855,83.9534635 L12.9011855,84.4235472 L12.3962808,84.4235472 L12.3962808,83.5704324 L11.5605765,83.5704324 L11.5605765,85.7293352 L11.5605765,85.9556718 L12.4833333,87.4877964 L12.5703859,87.6444909 L12.5703859,92.9546955 L12.5703859,93.0243375 L11.8217341,94.2604835 L11.7346815,94.4171781 L11.7346815,97.5684798 L0.731241283,97.5684798 C1.20132497,101.503254 1.93256625,105.350976 2.90755463,109.111646 L22.9296374,109.111646 L33.0103208,134.757322 C31.8264063,139.562622 30.6424919,145.795583 29.5456299,152.324523 C36.4053696,158.38338 44.2226871,163.362785 52.7364249,167.018991 L51.5176894,162.770828 C54.1640865,151.419177 57.0368201,140.607252 58.7952813,138.726918 C59.6135751,137.856392 61.2327522,137.159972 63.356834,136.602836 C62.5211297,138.657276 62.6430033,141.442957 62.6430033,141.442957 L63.7224547,141.442957 L63.7224547,170.884124 C71.1393305,172.938563 78.9566481,174.052836 87.0351232,174.052836 C93.9122734,174.052836 100.615318,173.251953 107.039795,171.737238 L107.039795,141.442957 L107.701395,141.442957 C107.701395,141.442957 109.25093,137.577824 106.796048,134.809554 C105.942934,133.851976 102.164854,133.468945 97.5858903,133.364482 C98.9961413,132.876987 100.214877,132.110925 101.276918,131.153347 L106.987564,132.720293 L110.400023,126.609205 L110.400023,109.721013 C110.400023,109.721013 102.843863,52.1966992 99.2572989,47.5306834 C97.5336588,45.2673175 89.5944677,43.0735937 81.6552766,42.533868 Z M43.0561832,110.800465 L37.7982101,114.648187 L36.213854,109.129056 L43.5784984,109.129056 L43.0561832,110.800465 Z M55.452464,113.70802 L54.5993491,114.265156 L54.7734542,113.847304 C55.0172013,113.70802 55.2609484,113.586146 55.4698745,113.464272 L55.452464,113.70802 Z" id="Shape" fill="#93B6D9"></path>
                        </g>
                        <g transform="translate(42.506509, 254.715714)" fill-rule="nonzero" id="Oval">
                            <ellipse fill="#848BB7" cx="152.690144" cy="13.7717108" rx="152.568271" ry="13.7194793"></ellipse>
                            <ellipse fill="#6E75A3" cx="152.045955" cy="13.7717108" rx="120.045444" ry="8.46150628"></ellipse>
                        </g>
                        <g transform="translate(91.952348, 80.262436)" fill-rule="nonzero" id="Shape">
                            <path d="M30.1201767,0.0870525337 L12.1525337,0.0870525337 C5.48430962,0.0870525337 0.0870525337,5.48430962 0.0870525337,12.1525337 L0.0870525337,15.495351 C0.0870525337,22.1635751 5.48430962,27.5608322 12.1525337,27.5608322 L14.8859833,27.5608322 L21.1363552,32.4531846 L21.1363552,27.5608322 L30.1201767,27.5608322 C36.7884007,27.5608322 42.1856578,22.1635751 42.1856578,15.495351 L42.1856578,12.1525337 C42.1856578,5.50172013 36.7884007,0.0870525337 30.1201767,0.0870525337 Z" fill="#FBFEFF"></path>
                            <g transform="translate(9.575779, 9.227569)" fill="#AAB6DD">
                                <path d="M0.0174105067,2.92496513 C0.0174105067,2.48970246 0.156694561,2.0544398 0.435262669,1.60176662 C0.713830776,1.14909344 1.13168294,0.783472803 1.65399814,0.487494189 C2.19372385,0.191515574 2.82050209,0.0522315202 3.53433287,0.0522315202 C4.19593212,0.0522315202 4.78788935,0.174105067 5.29279405,0.417852162 C5.79769874,0.661599256 6.1981404,0.992398884 6.47670851,1.42766155 C6.75527662,1.84551371 6.89456067,2.3155974 6.89456067,2.80309159 C6.89456067,3.18612273 6.80750814,3.53433287 6.65081358,3.83031148 C6.49411901,4.1262901 6.30260344,4.37003719 6.09367736,4.59637378 C5.86734077,4.80529986 5.48430962,5.1709205 4.92717341,5.6758252 C4.77047885,5.81510925 4.6486053,5.9369828 4.54414226,6.05885635 C4.45708973,6.16331939 4.3874477,6.26778243 4.33521618,6.35483496 C4.28298466,6.44188749 4.24816364,6.52894003 4.23075314,6.61599256 C4.21334263,6.7030451 4.16111111,6.85973966 4.10887959,7.08607624 C4.02182706,7.55615993 3.74325895,7.79990702 3.29058577,7.79990702 C3.04683868,7.79990702 2.85532311,7.73026499 2.68121804,7.57357043 C2.52452348,7.41687587 2.43747094,7.19053928 2.43747094,6.87715016 C2.43747094,6.49411901 2.48970246,6.16331939 2.61157601,5.86734077 C2.73344956,5.58877266 2.89014412,5.34502557 3.08165969,5.11868898 C3.27317527,4.9097629 3.55174338,4.6486053 3.882543,4.35262669 C4.17852162,4.09146908 4.3874477,3.89995351 4.52673175,3.77807996 C4.66601581,3.63879591 4.77047885,3.49951185 4.85753138,3.34281729 C4.94458391,3.18612273 4.99681543,3.01201767 4.99681543,2.82050209 C4.99681543,2.45488145 4.85753138,2.14149233 4.57896327,1.89774523 C4.30039517,1.63658763 3.95218503,1.51471409 3.51692236,1.51471409 C3.01201767,1.51471409 2.64639702,1.63658763 2.40264993,1.89774523 C2.15890284,2.15890284 1.96738726,2.52452348 1.79328219,3.02942817 C1.63658763,3.55174338 1.34060902,3.81290098 0.905346351,3.81290098 C0.644188749,3.81290098 0.435262669,3.72584844 0.261157601,3.53433287 C0.121873547,3.32540679 0.0174105067,3.13389121 0.0174105067,2.92496513 Z M3.39504881,10.4811251 C3.11648071,10.4811251 2.87273361,10.3940725 2.66380753,10.202557 C2.45488145,10.0284519 2.35041841,9.76729428 2.35041841,9.43649465 C2.35041841,9.14051604 2.45488145,8.89676894 2.64639702,8.70525337 C2.85532311,8.5137378 3.0990702,8.40927476 3.39504881,8.40927476 C3.69102743,8.40927476 3.93477452,8.5137378 4.1262901,8.70525337 C4.31780567,8.89676894 4.42226871,9.14051604 4.42226871,9.43649465 C4.42226871,9.74988377 4.31780567,10.0110414 4.10887959,10.202557 C3.89995351,10.376662 3.65620642,10.4811251 3.39504881,10.4811251 Z"></path>
                                <path d="M8.11329614,2.92496513 C8.11329614,2.48970246 8.2525802,2.0544398 8.5311483,1.60176662 C8.80971641,1.14909344 9.22756857,0.783472803 9.74988377,0.487494189 C10.2896095,0.191515574 10.9163877,0.0522315202 11.6302185,0.0522315202 C12.2918178,0.0522315202 12.883775,0.174105067 13.3886797,0.417852162 C13.8935844,0.661599256 14.294026,0.992398884 14.5725941,1.42766155 C14.8511623,1.84551371 14.9904463,2.3155974 14.9904463,2.80309159 C14.9904463,3.18612273 14.9033938,3.53433287 14.7466992,3.83031148 C14.5900046,4.1262901 14.3984891,4.37003719 14.189563,4.59637378 C13.9632264,4.80529986 13.5801953,5.1709205 13.023059,5.6758252 C12.8663645,5.81510925 12.7444909,5.9369828 12.6400279,6.05885635 C12.5529754,6.16331939 12.4833333,6.26778243 12.4311018,6.35483496 C12.3788703,6.44188749 12.3440493,6.52894003 12.3266388,6.61599256 C12.3092283,6.7030451 12.2569967,6.85973966 12.2047652,7.08607624 C12.1177127,7.55615993 11.8391446,7.79990702 11.3864714,7.79990702 C11.1427243,7.79990702 10.9512087,7.73026499 10.7771037,7.57357043 C10.6204091,7.41687587 10.5333566,7.19053928 10.5333566,6.87715016 C10.5333566,6.49411901 10.5855881,6.16331939 10.7074616,5.86734077 C10.8293352,5.58877266 10.9860298,5.34502557 11.1775453,5.11868898 C11.3690609,4.9097629 11.647629,4.6486053 11.9784286,4.35262669 C12.2744073,4.09146908 12.4833333,3.89995351 12.6226174,3.77807996 C12.7619014,3.63879591 12.8663645,3.49951185 12.953417,3.34281729 C13.0404695,3.18612273 13.0927011,3.01201767 13.0927011,2.82050209 C13.0927011,2.45488145 12.953417,2.14149233 12.6748489,1.89774523 C12.3962808,1.63658763 12.0480707,1.51471409 11.612808,1.51471409 C11.1079033,1.51471409 10.7422827,1.63658763 10.4985356,1.89774523 C10.2547885,2.15890284 10.0632729,2.52452348 9.88916783,3.02942817 C9.73247327,3.55174338 9.43649465,3.81290098 9.00123199,3.81290098 C8.74007438,3.81290098 8.5311483,3.72584844 8.35704324,3.53433287 C8.20034868,3.32540679 8.11329614,3.13389121 8.11329614,2.92496513 Z M11.4735239,10.4811251 C11.1949558,10.4811251 10.9512087,10.3940725 10.7422827,10.202557 C10.5333566,10.0284519 10.4288935,9.76729428 10.4288935,9.43649465 C10.4288935,9.14051604 10.5333566,8.89676894 10.7248722,8.70525337 C10.9337982,8.5137378 11.1775453,8.40927476 11.4735239,8.40927476 C11.7695026,8.40927476 12.0132497,8.5137378 12.2047652,8.70525337 C12.3962808,8.89676894 12.5007438,9.14051604 12.5007438,9.43649465 C12.5007438,9.74988377 12.3962808,10.0110414 12.1873547,10.202557 C11.9958391,10.376662 11.7520921,10.4811251 11.4735239,10.4811251 Z"></path>
                                <path d="M16.2091818,2.92496513 C16.2091818,2.48970246 16.3484658,2.0544398 16.6270339,1.60176662 C16.905602,1.14909344 17.3234542,0.783472803 17.8457694,0.487494189 C18.3854951,0.191515574 19.0122734,0.0522315202 19.7261041,0.0522315202 C20.3877034,0.0522315202 20.9796606,0.174105067 21.4845653,0.417852162 C21.98947,0.661599256 22.3899117,0.992398884 22.6684798,1.42766155 C22.9470479,1.84551371 23.0863319,2.3155974 23.0863319,2.80309159 C23.0863319,3.18612273 22.9992794,3.53433287 22.8425848,3.83031148 C22.6858903,4.1262901 22.4943747,4.37003719 22.2854486,4.59637378 C22.059112,4.80529986 21.6760809,5.1709205 21.1189447,5.6758252 C20.9622501,5.81510925 20.8403766,5.9369828 20.7359135,6.05885635 C20.648861,6.16331939 20.579219,6.26778243 20.5269874,6.35483496 C20.4747559,6.44188749 20.4399349,6.52894003 20.4225244,6.61599256 C20.4051139,6.7030451 20.3528824,6.85973966 20.3006509,7.08607624 C20.2135983,7.55615993 19.9350302,7.79990702 19.482357,7.79990702 C19.2386099,7.79990702 19.0470944,7.73026499 18.8729893,7.57357043 C18.7162947,7.41687587 18.6292422,7.19053928 18.6292422,6.87715016 C18.6292422,6.49411901 18.6814737,6.16331939 18.8033473,5.86734077 C18.9252208,5.58877266 19.0819154,5.34502557 19.273431,5.11868898 C19.4649465,4.9097629 19.7435146,4.6486053 20.0743143,4.35262669 C20.3702929,4.09146908 20.579219,3.89995351 20.718503,3.77807996 C20.8577871,3.63879591 20.9622501,3.49951185 21.0493026,3.34281729 C21.1363552,3.18612273 21.1885867,3.01201767 21.1885867,2.82050209 C21.1885867,2.45488145 21.0493026,2.14149233 20.7707345,1.89774523 C20.4921664,1.63658763 20.1439563,1.51471409 19.7086936,1.51471409 C19.2037889,1.51471409 18.8381683,1.63658763 18.5944212,1.89774523 C18.3506741,2.15890284 18.1591585,2.52452348 17.9850535,3.02942817 C17.8283589,3.55174338 17.5323803,3.81290098 17.0971176,3.81290098 C16.83596,3.81290098 16.6270339,3.72584844 16.4529289,3.53433287 C16.2962343,3.32540679 16.2091818,3.13389121 16.2091818,2.92496513 Z M19.5694096,10.4811251 C19.2908415,10.4811251 19.0470944,10.3940725 18.8381683,10.202557 C18.6292422,10.0284519 18.5247792,9.76729428 18.5247792,9.43649465 C18.5247792,9.14051604 18.6292422,8.89676894 18.8207578,8.70525337 C19.0296839,8.5137378 19.273431,8.40927476 19.5694096,8.40927476 C19.8653882,8.40927476 20.1091353,8.5137378 20.3006509,8.70525337 C20.4921664,8.89676894 20.5966295,9.14051604 20.5966295,9.43649465 C20.5966295,9.74988377 20.4921664,10.0110414 20.2832404,10.202557 C20.0743143,10.376662 19.8479777,10.4811251 19.5694096,10.4811251 Z"></path>
                            </g>
                        </g>
                        <g transform="translate(286.079498, 86.704324)" fill-rule="nonzero" id="Shape">
                            <path d="M12.0828917,0.0522315202 L30.0331241,0.0522315202 C36.7013482,0.0522315202 42.0986053,5.44948861 42.0986053,12.1177127 L42.0986053,15.46053 C42.0986053,22.1287541 36.7013482,27.5260112 30.0331241,27.5260112 L27.2996746,27.5260112 L21.0493026,32.4183636 L21.0493026,27.5260112 L12.0654812,27.5260112 C5.39725709,27.5260112 0,22.1287541 0,15.46053 L0,12.1177127 C0,5.44948861 5.4146676,0.0522315202 12.0828917,0.0522315202 Z" fill="#FBFEFF"></path>
                            <g transform="translate(10.446304, 6.964203)" fill="#AAB6DD">
                                <path d="M1.18391446,2.50711297 L16.5051604,2.50711297 C17.1145281,2.50711297 17.6194328,2.00220828 17.6194328,1.39284054 L17.6194328,1.11427243 C17.6194328,0.504904695 17.1145281,0 16.5051604,0 L1.18391446,0 C0.574546722,0 0.069642027,0.504904695 0.069642027,1.11427243 L0.069642027,1.39284054 C0.069642027,2.01961878 0.574546722,2.50711297 1.18391446,2.50711297 Z"></path>
                                <path d="M23.1385635,5.11868898 L1.18391446,5.11868898 C0.574546722,5.11868898 0.069642027,5.62359368 0.069642027,6.23296141 L0.069642027,6.51152952 C0.069642027,7.12089726 0.574546722,7.62580195 1.18391446,7.62580195 L23.1385635,7.62580195 C23.7479312,7.62580195 24.2528359,7.12089726 24.2528359,6.51152952 L24.2528359,6.23296141 C24.2528359,5.62359368 23.7479312,5.11868898 23.1385635,5.11868898 Z"></path>
                                <path d="M5.20574152,10.446304 L1.18391446,10.446304 C0.574546722,10.446304 0.069642027,10.9512087 0.069642027,11.5605765 L0.069642027,11.8391446 C0.069642027,12.4485123 0.574546722,12.953417 1.18391446,12.953417 L5.20574152,12.953417 C5.81510925,12.953417 6.32001395,12.4485123 6.32001395,11.8391446 L6.32001395,11.5605765 C6.32001395,10.9337982 5.81510925,10.446304 5.20574152,10.446304 Z"></path>
                                <path d="M10.446304,10.446304 C9.83693631,10.446304 9.33203161,10.9512087 9.33203161,11.5605765 L9.33203161,11.8913761 C9.33203161,12.5007438 9.83693631,13.0056485 10.446304,13.0056485 C11.0556718,13.0056485 11.5605765,12.5007438 11.5605765,11.8913761 L11.5605765,11.5605765 C11.5605765,10.9337982 11.0556718,10.446304 10.446304,10.446304 Z"></path>
                                <path d="M14.8163412,10.446304 C14.2069735,10.446304 13.7020688,10.9512087 13.7020688,11.5605765 L13.7020688,11.8913761 C13.7020688,12.5007438 14.2069735,13.0056485 14.8163412,13.0056485 C15.425709,13.0056485 15.9306137,12.5007438 15.9306137,11.8913761 L15.9306137,11.5605765 C15.9306137,10.9337982 15.4431195,10.446304 14.8163412,10.446304 Z"></path>
                            </g>
                        </g>
                        <g transform="translate(79.939098, 120.132497)" fill="#FBFEFF" fill-rule="nonzero" id="Shape">
                            <path d="M18.2462111,0.0870525337 L11.0382613,0.0870525337 C10.446304,0.0870525337 9.95880986,0.574546722 9.95880986,1.16650395 C9.95880986,1.75846118 10.446304,2.24595537 11.0382613,2.24595537 L18.2462111,2.24595537 C18.8381683,2.24595537 19.3256625,1.75846118 19.3256625,1.16650395 C19.343073,0.574546722 18.8555788,0.0870525337 18.2462111,0.0870525337 Z"></path>
                            <path d="M18.2462111,4.82271037 L6.7204556,4.82271037 C6.12849837,4.82271037 5.64100418,5.31020456 5.64100418,5.90216179 C5.64100418,6.49411901 6.12849837,6.9816132 6.7204556,6.9816132 L18.2462111,6.9816132 C18.8381683,6.9816132 19.3256625,6.49411901 19.3256625,5.90216179 C19.343073,5.31020456 18.8555788,4.82271037 18.2462111,4.82271037 Z"></path>
                            <path d="M2.35041841,4.82271037 L1.07945142,4.82271037 C0.487494189,4.82271037 0,5.31020456 0,5.90216179 C0,6.49411901 0.487494189,6.9816132 1.07945142,6.9816132 L2.35041841,6.9816132 C2.94237564,6.9816132 3.42986983,6.49411901 3.42986983,5.90216179 C3.42986983,5.31020456 2.94237564,4.82271037 2.35041841,4.82271037 Z"></path>
                        </g>
                        <g transform="translate(128.688517, 31.338912)" fill-rule="nonzero" id="Shape">
                            <polygon fill="#6E75A3" points="92.5368433 33.7067411 82.9958856 33.7067411 82.9958856 26.5858438 70.0076476 26.5858438 70.0076476 17.2712227 67.9183868 17.2712227 67.9183868 0.121873547 65.4635053 0.121873547 65.4635053 17.2712227 63.3742445 17.2712227 63.3742445 26.5858438 50.3860065 26.5858438 50.3860065 33.7067411 40.8450488 33.7067411 38.3205253 40.8972803 95.0439563 40.8972803"></polygon>
                            <polygon fill="#FFFFFF" opacity="0.3" points="94.6783357 40.8972803 66.8737564 40.8972803 39.0865876 40.8972803 0.0522315202 159.462831 66.8737564 159.462831 133.712692 159.462831"></polygon>
                        </g>
                        <g transform="translate(90.907717, 111.079033)" fill-rule="nonzero">
                            <path d="M165.121246,81.6378661 L136.672478,147.884844 C136.672478,147.884844 134.374291,149.347327 133.085914,148.128591 L153.839238,81.6378661 L165.121246,81.6378661 Z" id="Shape" fill="#C49A6C"></path>
                            <path d="M47.7047885,52.91053 L51.4480474,61.2849837 C51.4480474,61.2849837 62.2251511,61.2849837 63.8617387,55.9051371 C63.8617387,55.9051371 55.487285,37.3629475 50.8560902,35.7089493 C46.2074849,34.0723617 47.7047885,52.91053 47.7047885,52.91053 Z" id="Shape" fill="#493848"></path>
                            <g transform="translate(0.000000, 103.940725)" id="Shape">
                                <path d="M24.4095305,6.52894003 L24.4095305,55.8354951 L26.3595072,55.8354951 C26.3595072,55.8180846 26.3595072,55.7832636 26.3595072,55.7658531 L26.3595072,53.3980242 C26.3595072,48.5753138 28.1179684,44.6579498 30.2942817,44.6579498 L31.2692701,44.6579498 C33.4455834,44.6579498 35.2040446,48.5753138 35.2040446,53.3980242 L35.2040446,55.7658531 C35.2040446,55.7832636 35.2040446,55.8180846 35.2040446,55.8354951 L37.1540214,55.8354951 L37.1540214,6.52894003 L24.4095305,6.52894003 Z" fill="#694629"></path>
                                <path d="M35.7089493,31.3040911 C35.7089493,36.1268015 33.9504881,40.0441655 31.7741748,40.0441655 L30.1027662,40.0441655 C27.9264528,40.0441655 26.1679916,36.1268015 26.1679916,31.3040911 L26.1679916,19.8827987 C26.1679916,15.0600883 27.9264528,11.1427243 30.1027662,11.1427243 L31.7741748,11.1427243 C33.9504881,11.1427243 35.7089493,15.0600883 35.7089493,19.8827987 L35.7089493,31.3040911 Z" fill="#755D3E"></path>
                                <path d="M1.13168294,6.52894003 L1.13168294,55.8354951 L4.77047885,55.8354951 C4.77047885,55.8180846 4.77047885,55.7832636 4.77047885,55.7658531 L4.77047885,53.3980242 C4.77047885,48.5753138 8.06106462,44.6579498 12.1003022,44.6579498 L13.9284054,44.6579498 C17.967643,44.6579498 21.2582287,48.5753138 21.2582287,53.3980242 L21.2582287,55.7658531 C21.2582287,55.7832636 21.2582287,55.8180846 21.2582287,55.8354951 L24.8970246,55.8354951 L24.8970246,6.52894003 L1.13168294,6.52894003 Z" fill="#8B5E3C"></path>
                                <path d="M22.1809856,31.3040911 C22.1809856,36.1268015 18.9078103,40.0441655 14.8511623,40.0441655 L11.7346815,40.0441655 C7.67803347,40.0441655 4.40485821,36.1268015 4.40485821,31.3040911 L4.40485821,19.8827987 C4.40485821,15.0600883 7.67803347,11.1427243 11.7346815,11.1427243 L14.8511623,11.1427243 C18.8903998,11.1427243 22.1809856,15.0600883 22.1809856,19.8827987 L22.1809856,31.3040911 Z" fill="#C49A6C"></path>
                                <path d="M0.574546722,6.79009763 L25.3496978,6.79009763 L38.0593677,6.79009763 C38.0593677,6.79009763 38.2682938,1.53212459 35.6915388,1.00980939 C33.0973733,0.504904695 25.9938866,0.626778243 25.9938866,0.626778243 C25.9938866,0.626778243 3.37763831,-1.0446304 1.32319851,1.27096699 C-0.713830776,3.56915388 0.574546722,6.79009763 0.574546722,6.79009763 Z" fill="#E44145"></path>
                                <path d="M25.1407717,6.79009763 L38.0767782,6.79009763 C38.0767782,6.79009763 38.2857043,1.53212459 35.7089493,1.00980939 C33.1147838,0.504904695 26.0112971,0.626778243 26.0112971,0.626778243 C26.0112971,0.626778243 25.2452348,0.574546722 23.9742678,0.487494189 C24.6532775,1.34060902 25.1581822,2.52452348 25.1581822,4.21334263 L25.1581822,6.79009763 L25.1407717,6.79009763 Z" fill="#B12227"></path>
                            </g>
                            <g transform="translate(122.395862, 143.984891)">
                                <path d="M2.73344956,10.4985356 C2.73344956,10.4985356 0.905346351,10.3940725 0.626778243,10.3940725 C0.348210135,10.3940725 0.0522315202,10.7771037 0.0522315202,11.2645979 C0.0522315202,11.7520921 0.156694561,13.0927011 0.156694561,13.0927011 C0.156694561,13.0927011 1.0272199,13.9632264 5.83251976,14.154742 C10.6378196,14.3462576 16.2091818,14.5377731 18.9948629,14.7292887 C21.7805439,14.9208043 23.225616,15.1123199 23.6956997,13.7717108 C24.1831939,12.4311018 24.1831939,10.6029986 24.1831939,10.6029986 L2.73344956,10.4985356 Z" id="Shape" fill="#939393"></path>
                                <path d="M17.5149698,0.121873547 C17.5149698,0.121873547 17.8109484,6.459298 14.6248257,7.60839145 C11.4561134,8.75748489 5.31020456,7.03384472 2.99460716,7.31241283 C0.69642027,7.60839145 0.313389121,10.8641562 0.313389121,10.8641562 C0.313389121,10.8641562 1.75846118,11.9261971 7.03384472,11.9261971 C12.3092283,11.9261971 21.8327755,13.4583217 23.260437,12.4136913 C24.7055091,11.3516504 24.4095305,4.35262669 24.4095305,4.35262669 L17.5149698,0.121873547 Z" id="Shape" fill="#60524D"></path>
                                <path d="M14.6422362,7.60839145 C12.4833333,8.39186425 8.91417945,7.83472803 6.14590888,7.50392841 L6.73786611,8.21775918 C6.73786611,8.21775918 12.814133,9.43649465 15.7042771,8.28740121 C18.5944212,7.13830776 19.0993259,4.77047885 19.0993259,4.77047885 C19.0993259,4.77047885 17.7587169,3.83031148 17.2189912,3.70843794 C16.870781,5.34502557 16.1395397,7.06866574 14.6422362,7.60839145 Z" id="Shape" fill="#736E6C"></path>
                                <path d="M7.38205486,11.9436076 C7.95660158,9.73247327 7.10348675,8.30481172 6.40706648,7.53874942 C5.01422594,7.36464435 3.79549047,7.2253603 3.01201767,7.32982334 C0.713830776,7.62580195 0.330799628,10.8815667 0.330799628,10.8815667 C0.330799628,10.8815667 1.77587169,11.9436076 7.05125523,11.9436076 C7.15571827,11.9261971 7.27759182,11.9436076 7.38205486,11.9436076 Z" id="Shape" fill="#858081"></path>
                                <path d="M24.0090888,12.3266388 C23.5738261,13.023059 22.5988377,13.2145746 20.4921664,13.2319851 C19.7957462,13.2319851 18.9774523,13.2145746 18.0198745,13.1797536 C13.4583217,13.0404695 10.5855881,12.3614598 5.53654114,12.3614598 C3.02942817,12.3614598 1.58435611,12.0306602 0.783472803,11.6998605 C0.435262669,11.5605765 0.208926081,11.4212924 0.069642027,11.3168294 C0.069642027,11.3864714 0.069642027,11.4735239 0.069642027,11.5605765 C0.69642027,11.9784286 2.17631334,12.5703859 5.53654114,12.5703859 C10.5681776,12.5703859 13.4409112,13.2493956 18.0198745,13.3886797 C18.9774523,13.4235007 19.7957462,13.4409112 20.5095769,13.4409112 C20.544398,13.4409112 20.579219,13.4409112 20.61404,13.4409112 C22.3725012,13.4409112 23.3997211,13.2668061 23.9568573,12.7270804 C23.9568573,12.5877964 23.9916783,12.4659228 24.0090888,12.3266388 Z" id="Shape" fill="#393231"></path>
                                <circle id="Oval" fill="#736E6C" cx="20.6314505" cy="8.98382148" r="1.79328219"></circle>
                            </g>
                            <path d="M146.074152,94.5216411 C144.907648,92.9198745 145.255858,90.6739191 146.857624,89.5074152 L164.459647,76.6584612 L169.647978,36.3183171 C169.909135,34.3509298 171.702417,32.9580893 173.669805,33.2192469 C175.637192,33.462994 177.030033,35.2736867 176.768875,37.2410739 L171.389028,79.1133426 C171.267155,80.088331 170.74484,80.9762669 169.943956,81.5508136 L151.105788,95.3051139 C150.461599,95.7751976 149.730358,96.0015342 148.999117,96.0015342 C147.867434,96.0015342 146.770572,95.479219 146.074152,94.5216411 Z" id="Shape" fill="#FFD596"></path>
                            <path d="M155.545467,83.1351697 L160.78603,88.6717108 C160.78603,88.6717108 163.327964,87.3311018 163.780637,87.0351232 C164.23331,86.7391446 172.311785,80.7499303 172.311785,80.7499303 C172.311785,80.7499303 178.301,39.4696188 177.848326,35.8830544 C177.395653,32.29649 171.11046,27.8045793 168.881915,34.0897722 C166.63596,40.3749651 160.664156,78.2079963 160.664156,78.2079963 L155.545467,83.1351697 Z" id="Shape" fill="#433D38"></path>
                            <path d="M173.321595,87.8708275 C173.321595,87.8708275 151.401767,92.6935379 147.014319,97.9515109 C142.626871,103.209484 137.142562,151.210251 137.142562,151.210251 C137.142562,151.210251 141.094747,152.53345 147.014319,152.53345 C147.014319,152.53345 154.901278,111.984379 158.191864,108.484868 C161.48245,104.985356 180.111692,104.985356 187.789726,104.532682 C195.467759,104.09742 198.096746,95.9841237 198.096746,88.9676894 C198.096746,81.9512552 198.096746,84.5802417 198.096746,84.5802417 L173.547931,84.5802417 L173.321595,87.8708275 Z" id="Shape" fill="#421C33"></path>
                            <g transform="translate(35.517434, 62.503719)">
                                <path d="M5.86734077,19.1341469 L34.2986983,91.4748024 C34.2986983,91.4748024 36.5968852,93.076569 37.8852627,91.73596 L17.1319386,19.1341469 L5.86734077,19.1341469 Z" id="Shape" fill="#C49A6C"></path>
                                <g transform="translate(37.606695, 0.000000)" id="Shape">
                                    <g>
                                        <polygon fill="#F2DBC6" points="2.89014412 11.8391446 2.89014412 0.174105067 2.24595537 0.174105067 2.24595537 1.13168294 1.70622966 1.13168294 1.70622966 0.365620642 1.23614598 0.365620642 1.23614598 0.74865179 0.818293817 0.74865179 0.818293817 0.0522315202 0.121873547 0.0522315202 0.121873547 2.03702929 0.974988377 3.44728033 0.974988377 7.92178057 0.278568108 9.07087401 0.278568108 11.8391446"></polygon>
                                        <polygon fill="#D0BB9D" points="2.89014412 1.84551371 0.121873547 1.84551371 0.121873547 2.03702929 0.887935844 3.30799628 2.89014412 3.30799628"></polygon>
                                        <polygon fill="#F2EAE4" points="2.89014412 8.94900046 2.89014412 7.86954905 0.974988377 7.86954905 0.974988377 7.92178057 0.348210135 8.94900046"></polygon>
                                    </g>
                                    <g transform="translate(2.263366, 0.000000)">
                                        <polygon fill="#F2DBC6" points="0.139284054 11.8391446 0.139284054 0.174105067 0.783472803 0.174105067 0.783472803 1.13168294 1.32319851 1.13168294 1.32319851 0.365620642 1.79328219 0.365620642 1.79328219 0.74865179 2.21113436 0.74865179 2.21113436 0.0522315202 2.90755463 0.0522315202 2.90755463 2.03702929 2.0718503 3.44728033 2.0718503 7.92178057 2.75086007 9.07087401 2.75086007 11.8391446"></polygon>
                                        <polygon fill="#D0BB9D" points="0.139284054 1.84551371 2.90755463 1.84551371 2.90755463 2.03702929 2.14149233 3.30799628 0.139284054 3.30799628"></polygon>
                                        <polygon fill="#F2EAE4" points="0.139284054 8.94900046 0.139284054 7.86954905 2.0718503 7.86954905 2.0718503 7.92178057 2.68121804 8.94900046"></polygon>
                                    </g>
                                </g>
                                <g transform="translate(90.882845, 0.000000)" id="Shape">
                                    <g>
                                        <polygon fill="#8B5E3C" points="2.90755463 11.8391446 2.90755463 0.174105067 2.24595537 0.174105067 2.24595537 1.13168294 1.70622966 1.13168294 1.70622966 0.365620642 1.23614598 0.365620642 1.23614598 0.74865179 0.818293817 0.74865179 0.818293817 0.0522315202 0.121873547 0.0522315202 0.121873547 2.03702929 0.974988377 3.44728033 0.974988377 7.92178057 0.278568108 9.07087401 0.278568108 11.8391446"></polygon>
                                        <polygon fill="#603913" points="2.90755463 1.84551371 0.121873547 1.84551371 0.121873547 2.03702929 0.887935844 3.30799628 2.90755463 3.30799628"></polygon>
                                        <polygon fill="#C49A6C" points="2.90755463 8.94900046 2.90755463 7.86954905 0.974988377 7.86954905 0.974988377 7.92178057 0.348210135 8.94900046"></polygon>
                                    </g>
                                    <g transform="translate(2.263366, 0.000000)">
                                        <polygon fill="#8B5E3C" points="0.139284054 11.8391446 0.139284054 0.174105067 0.80088331 0.174105067 0.80088331 1.13168294 1.34060902 1.13168294 1.34060902 0.365620642 1.79328219 0.365620642 1.79328219 0.74865179 2.22854486 0.74865179 2.22854486 0.0522315202 2.92496513 0.0522315202 2.92496513 2.03702929 2.0718503 3.44728033 2.0718503 7.92178057 2.76827057 9.07087401 2.76827057 11.8391446"></polygon>
                                        <polygon fill="#603913" points="0.139284054 1.84551371 2.92496513 1.84551371 2.92496513 2.03702929 2.14149233 3.30799628 0.139284054 3.30799628"></polygon>
                                        <polygon fill="#C49A6C" points="0.139284054 8.94900046 0.139284054 7.86954905 2.0718503 7.86954905 2.0718503 7.92178057 2.68121804 8.94900046"></polygon>
                                    </g>
                                </g>
                                <g transform="translate(56.235937, 7.138308)" id="Shape">
                                    <path d="M1.65399814,4.70083682 L1.65399814,0.0348210135 C1.65399814,0.0348210135 0.591957229,0.191515574 0.591957229,0.922756857 C0.591957229,1.65399814 1.14909344,1.93256625 1.14909344,1.93256625 L1.14909344,3.8651325 L0.0348210135,4.28298466 L0.0348210135,4.70083682 L1.65399814,4.70083682 Z" fill="#8B5E3C"></path>
                                    <path d="M1.65399814,1.18391446 C0.957577871,1.16650395 0.783472803,1.07945142 0.591957229,0.992398884 C0.626778243,1.46248257 0.818293817,1.74105067 1.00980939,1.84551371 L1.65399814,1.84551371 L1.65399814,1.18391446 Z" fill="#603913"></path>
                                    <polygon fill="#C49A6C" points="1.65399814 3.84772199 1.13168294 3.84772199 0.0174105067 4.34772199 1.65399814 4.34772199"></polygon>
                                    <path d="M1.63658763,4.70083682 L1.63658763,0.0348210135 C1.63658763,0.0348210135 2.69862854,0.191515574 2.69862854,0.922756857 C2.69862854,1.65399814 2.14149233,1.93256625 2.14149233,1.93256625 L2.14149233,3.8651325 L3.25576476,4.28298466 L3.25576476,4.70083682 L1.63658763,4.70083682 Z" fill="#8B5E3C"></path>
                                    <path d="M1.63658763,1.18391446 C2.3330079,1.16650395 2.50711297,1.07945142 2.69862854,0.992398884 C2.66380753,1.46248257 2.47229196,1.74105067 2.28077638,1.84551371 L1.63658763,1.84551371 L1.63658763,1.18391446 Z" fill="#603913"></path>
                                    <polygon fill="#C49A6C" points="1.63658763 3.84772199 2.15890284 3.84772199 3.27317527 4.34772199 1.63658763 4.34772199"></polygon>
                                </g>
                                <g transform="translate(67.552766, 7.138308)" id="Shape">
                                    <path d="M1.74105067,4.70083682 L1.74105067,0.0348210135 C1.74105067,0.0348210135 0.679009763,0.191515574 0.679009763,0.922756857 C0.679009763,1.65399814 1.23614598,1.93256625 1.23614598,1.93256625 L1.23614598,3.8651325 L0.121873547,4.28298466 L0.121873547,4.70083682 L1.74105067,4.70083682 Z" fill="#F2DBC6"></path>
                                    <path d="M1.74105067,1.18391446 C1.0446304,1.16650395 0.870525337,1.07945142 0.679009763,0.992398884 C0.713830776,1.46248257 0.905346351,1.74105067 1.09686192,1.84551371 L1.74105067,1.84551371 L1.74105067,1.18391446 Z" fill="#D0BB9D"></path>
                                    <polygon fill="#F2EAE4" points="1.74105067 3.84772199 1.20132497 3.84772199 0.10446304 4.34772199 1.74105067 4.34772199"></polygon>
                                    <path d="M1.72364017,4.70083682 L1.72364017,0.0348210135 C1.72364017,0.0348210135 2.78568108,0.191515574 2.78568108,0.922756857 C2.78568108,1.65399814 2.22854486,1.93256625 2.22854486,1.93256625 L2.22854486,3.8651325 L3.34281729,4.28298466 L3.34281729,4.70083682 L1.72364017,4.70083682 Z" fill="#F2DBC6"></path>
                                    <path d="M1.72364017,1.18391446 C2.42006044,1.16650395 2.5941655,1.07945142 2.78568108,0.992398884 C2.75086007,1.46248257 2.55934449,1.74105067 2.36782892,1.84551371 L1.72364017,1.84551371 L1.72364017,1.18391446 Z" fill="#D0BB9D"></path>
                                    <polygon fill="#F2EAE4" points="1.72364017 3.84772199 2.24595537 3.84772199 3.3602278 4.34772199 1.72364017 4.34772199"></polygon>
                                </g>
                                <g transform="translate(73.298233, 7.138308)" id="Shape">
                                    <path d="M1.61917713,4.70083682 L1.61917713,0.0348210135 C1.61917713,0.0348210135 0.557136216,0.191515574 0.557136216,0.922756857 C0.557136216,1.65399814 1.11427243,1.93256625 1.11427243,1.93256625 L1.11427243,3.8651325 L0,4.28298466 L0,4.70083682 L1.61917713,4.70083682 Z" fill="#8B5E3C"></path>
                                    <path d="M1.61917713,1.18391446 C0.922756857,1.16650395 0.74865179,1.07945142 0.557136216,0.992398884 C0.591957229,1.46248257 0.783472803,1.74105067 0.974988377,1.84551371 L1.61917713,1.84551371 L1.61917713,1.18391446 Z" fill="#603913"></path>
                                    <polygon fill="#C49A6C" points="1.61917713 3.84772199 1.09686192 3.84772199 0 4.34772199 1.61917713 4.34772199"></polygon>
                                    <path d="M1.60176662,4.70083682 L1.60176662,0.0348210135 C1.60176662,0.0348210135 2.66380753,0.191515574 2.66380753,0.922756857 C2.66380753,1.65399814 2.10667132,1.93256625 2.10667132,1.93256625 L2.10667132,3.8651325 L3.22094375,4.28298466 L3.22094375,4.70083682 L1.60176662,4.70083682 Z" fill="#8B5E3C"></path>
                                    <path d="M1.60176662,1.18391446 C2.29818689,1.16650395 2.47229196,1.07945142 2.66380753,0.992398884 C2.62898652,1.46248257 2.43747094,1.74105067 2.24595537,1.84551371 L1.60176662,1.84551371 L1.60176662,1.18391446 Z" fill="#603913"></path>
                                    <polygon fill="#C49A6C" points="1.60176662 3.84772199 2.14149233 3.84772199 3.23835425 4.34772199 1.60176662 4.34772199"></polygon>
                                </g>
                                <rect id="Rectangle-path" fill="#764122" x="36.9973268" y="11.6998605" width="59.6832171" height="5.50172013"></rect>
                                <rect id="Rectangle-path" fill="#C49A6C" x="0.10446304" y="15.8087401" width="133.451534" height="5.50172013"></rect>
                            </g>
                            <path d="M46.8690841,140.607252 L45.9115063,147.04914 C45.9115063,147.04914 46.8690841,149.155811 51.5873315,147.815202 L52.3533938,142.731334 L46.8690841,140.607252 Z" id="Shape" fill="#D5CFCE"></path>
                            <g transform="translate(43.700372, 142.940260)" id="Shape">
                                <path d="M1.68881915,7.31241283 L0.330799628,8.16552766 L0.452673175,9.83693631 L4.92717341,10.4637146 L5.01422594,9.5583682 L5.97180381,9.50613668 L6.02403533,10.4637146 C6.02403533,10.4637146 8.42668526,10.7074616 11.1079033,11.7520921 C13.7891213,12.7967225 19.9698512,10.5507671 19.9698512,10.5507671 L19.9176197,9.59318921 L5.4320781,8.0088331 L1.68881915,7.31241283 Z" fill="#352634"></path>
                                <path d="M0,6.38965597 C0,6.38965597 0.261157601,3.74325895 1.61917713,2.21113436 C1.61917713,2.21113436 1.53212459,1.32319851 1.65399814,1.0272199 C1.77587169,0.731241283 2.76827057,0.591957229 3.16871223,1.09686192 C3.56915388,1.60176662 3.37763831,2.36782892 3.37763831,2.36782892 C3.37763831,2.36782892 4.19593212,2.87273361 6.26778243,3.08165969 C8.33963273,3.29058577 8.20034868,2.54193398 8.20034868,2.54193398 C8.20034868,2.54193398 7.78249651,1.61917713 8.13070665,0.974988377 C8.46150628,0.330799628 10.8989772,-0.435262669 11.2123663,0.539725709 C11.5257555,1.51471409 11.0208508,2.61157601 10.9337982,2.8379126 C10.8467457,3.06424919 12.5703859,7.67803347 19.6390516,7.83472803 L19.9872617,9.59318921 C19.9872617,9.59318921 15.6172245,11.5953975 11.2820084,10.341841 C6.9642027,9.08828452 5.55395165,8.72266388 4.16111111,8.7923059 C2.76827057,8.84453742 0.365620642,8.18293817 0.365620642,8.18293817 L0,6.38965597 Z" fill="#493848"></path>
                            </g>
                            <path d="M66.8911669,142.365714 L68.4929335,148.668317 C68.4929335,148.668317 70.1991632,150.252673 74.0120642,147.188424 L72.7585077,142.191609 L66.8911669,142.365714 Z" id="Shape" fill="#D5CFCE"></path>
                            <path d="M26.6032543,83.5530219 L28.7099256,82.2124128 L34.4728033,82.2124128 L34.4728033,89.5074152 C34.4728033,89.5074152 33.7067411,93.3551371 46.5731055,96.8024175 C59.43947,100.267108 63.287192,102.948326 63.6702232,107.945142 C64.0532543,112.941957 54.251139,144.454974 54.251139,144.454974 C54.251139,144.454974 45.5981172,146.178615 45.7896327,140.798768 C45.7896327,140.798768 47.896304,115.832101 46.9387262,111.792864 C45.9811483,107.753626 28.309484,108.519689 24.0787308,102.948326 C19.8827987,97.3943747 26.6032543,83.5530219 26.6032543,83.5530219 Z" id="Shape" fill="#D7B583"></path>
                            <path d="M4.31780567,82.4039284 L29.684914,82.4039284 L29.684914,88.5498373 C29.684914,88.5498373 30.2594607,91.0395397 33.9156671,91.0395397 C37.5718735,91.0395397 57.0716411,98.6305207 61.9639935,103.522873 C66.8563459,108.415225 75.7879358,143.863017 75.7879358,143.863017 C75.7879358,143.863017 68.4929335,149.625895 64.6452115,145.203626 C64.6452115,145.203626 52.9279405,112.924547 50.8212692,111.775453 C48.7145979,110.62636 8.74007438,109.860298 5.10127848,102.164854 C1.42766155,94.5042306 4.31780567,82.4039284 4.31780567,82.4039284 Z" id="Shape" fill="#F0CC88"></path>
                            <path d="M15.7042771,33.4804045 C15.7042771,33.4804045 4.49191074,74.3080428 2.24595537,80.7499303 C4.06619183e-14,87.1744073 0.156694561,94.6609252 0.156694561,94.6609252 C0.156694561,94.6609252 7.4865179,98.7001627 15.8609716,97.9515109 C24.2354254,97.2028591 33.3585309,92.2756857 33.3585309,92.2756857 L35.3085077,90.9350767 L37.6937471,92.2756857 L42.9343096,92.2756857 C42.9343096,92.2756857 49.8114598,62.3644351 51.1520688,51.2913529 C52.4926778,40.2182706 54.5993491,35.7437703 46.8168526,31.8438168 C39.0343561,27.9438633 15.7042771,33.4804045 15.7042771,33.4804045 Z" id="Shape" fill="#493848"></path>
                            <g transform="translate(65.811715, 142.766155)" id="Shape">
                                <path d="M2.95978615,12.1525337 L1.8106927,13.6846583 L2.68121804,15.5127615 L7.95660158,14.259205 L7.66062297,13.1971641 L8.72266388,12.7096699 L9.21015807,13.7717108 C9.21015807,13.7717108 11.9958391,13.0056485 15.46053,13.0056485 C18.9252208,13.0056485 24.8796141,7.81731753 24.8796141,7.81731753 L24.3921199,6.75527662 L7.4865179,11.2645979 L2.95978615,12.1525337 Z" fill="#352634"></path>
                                <path d="M0.644188749,11.8739656 C0.644188749,11.8739656 -0.226336588,8.7923059 0.644188749,6.49411901 C0.644188749,6.49411901 0.156694561,5.53654114 0.156694561,5.15351 C0.156694561,4.77047885 1.21873547,4.19593212 1.88033473,4.57896327 C2.55934449,4.96199442 2.66380753,5.90216179 2.66380753,5.90216179 C2.66380753,5.90216179 3.81290098,6.11108787 6.21555091,5.4320781 C8.61820084,4.75306834 8.13070665,3.98700604 8.13070665,3.98700604 C8.13070665,3.98700604 7.26018131,3.11648071 7.36464435,2.26336588 C7.46910739,1.39284054 9.85434682,-0.522315202 10.6378196,0.435262669 C11.4038819,1.39284054 11.3168294,2.8379126 11.3168294,3.11648071 C11.3168294,3.41245932 15.2516039,7.81731753 23.225616,4.94458391 L24.3747094,6.77268712 C24.3747094,6.77268712 20.3354719,10.8989772 14.9556253,11.3864714 C9.57577871,11.8739656 7.85213854,12.0654812 6.30260344,12.7270804 C4.77047885,13.4060902 1.79328219,13.6846583 1.79328219,13.6846583 L0.644188749,11.8739656 Z" fill="#493848"></path>
                            </g>
                            <g transform="translate(168.881915, 103.940725)" id="Shape">
                                <path d="M13.8587634,6.52894003 L13.8587634,55.8354951 L11.9087866,55.8354951 C11.9087866,55.8180846 11.9087866,55.7832636 11.9087866,55.7658531 L11.9087866,53.3980242 C11.9087866,48.5753138 10.1503254,44.6579498 7.97401209,44.6579498 L6.99902371,44.6579498 C4.82271037,44.6579498 3.06424919,48.5753138 3.06424919,53.3980242 L3.06424919,55.7658531 C3.06424919,55.7832636 3.06424919,55.8180846 3.06424919,55.8354951 L1.11427243,55.8354951 L1.11427243,6.52894003 L13.8587634,6.52894003 Z" fill="#694629"></path>
                                <path d="M2.54193398,31.3040911 C2.54193398,36.1268015 4.30039517,40.0441655 6.47670851,40.0441655 L8.14811715,40.0441655 C10.3244305,40.0441655 12.0828917,36.1268015 12.0828917,31.3040911 L12.0828917,19.8827987 C12.0828917,15.0600883 10.3244305,11.1427243 8.14811715,11.1427243 L6.47670851,11.1427243 C4.30039517,11.1427243 2.54193398,15.0600883 2.54193398,19.8827987 L2.54193398,31.3040911 Z" fill="#755D3E"></path>
                                <path d="M37.1192004,6.52894003 L37.1192004,55.8354951 L33.4804045,55.8354951 C33.4804045,55.8180846 33.4804045,55.7832636 33.4804045,55.7658531 L33.4804045,53.3980242 C33.4804045,48.5753138 30.2072292,44.6579498 26.1505811,44.6579498 L24.3224779,44.6579498 C20.2832404,44.6579498 16.9926546,48.5753138 16.9926546,53.3980242 L16.9926546,55.7658531 C16.9926546,55.7832636 16.9926546,55.8180846 16.9926546,55.8354951 L13.3538587,55.8354951 L13.3538587,6.52894003 L37.1192004,6.52894003 Z" fill="#8B5E3C"></path>
                                <path d="M16.0698977,31.3040911 C16.0698977,36.1268015 19.343073,40.0441655 23.3997211,40.0441655 L26.5162018,40.0441655 C30.5554393,40.0441655 33.8460251,36.1268015 33.8460251,31.3040911 L33.8460251,19.8827987 C33.8460251,15.0600883 30.5554393,11.1427243 26.5162018,11.1427243 L23.3997211,11.1427243 C19.343073,11.1427243 16.0698977,15.0600883 16.0698977,19.8827987 L16.0698977,31.3040911 Z" fill="#C49A6C"></path>
                                <path d="M37.6763366,6.79009763 L12.9011855,6.79009763 L0.191515574,6.79009763 C0.191515574,6.79009763 -0.0174105067,1.53212459 2.55934449,1.00980939 C5.15351,0.504904695 12.2569967,0.626778243 12.2569967,0.626778243 C12.2569967,0.626778243 34.873245,-1.0446304 36.9276848,1.27096699 C38.9647141,3.56915388 37.6763366,6.79009763 37.6763366,6.79009763 Z" fill="#E44145"></path>
                                <path d="M13.1101116,6.79009763 L0.174105067,6.79009763 C0.174105067,6.79009763 -0.0348210135,1.53212459 2.54193398,1.00980939 C5.13609949,0.504904695 12.2395862,0.626778243 12.2395862,0.626778243 C12.2395862,0.626778243 13.0056485,0.574546722 14.2766155,0.487494189 C13.5976058,1.34060902 13.0927011,2.52452348 13.0927011,4.21334263 L13.0927011,6.79009763 L13.1101116,6.79009763 Z" fill="#B12227"></path>
                            </g>
                            <g transform="translate(129.708275, 146.422362)">
                                <path d="M2.8379126,10.4288935 C2.8379126,10.4288935 1.00980939,10.3244305 0.731241283,10.3244305 C0.435262669,10.3244305 0.156694561,10.7074616 0.156694561,11.1949558 C0.156694561,11.68245 0.261157601,13.023059 0.261157601,13.023059 C0.261157601,13.023059 1.13168294,13.8935844 5.9369828,14.0851 C10.7422827,14.2766155 16.3136448,14.4681311 19.0993259,14.6596467 C21.885007,14.8511623 23.330079,15.0426778 23.8001627,13.7020688 C24.2876569,12.3614598 24.2876569,10.5333566 24.2876569,10.5333566 L2.8379126,10.4288935 Z" id="Shape" fill="#D6D5D2"></path>
                                <path d="M17.6368433,0.0522315202 C17.6368433,0.0522315202 17.9328219,6.38965597 14.7466992,7.53874942 C11.577987,8.68784286 5.4320781,6.9642027 3.11648071,7.2427708 C0.818293817,7.53874942 0.435262669,10.7945142 0.435262669,10.7945142 C0.435262669,10.7945142 1.88033473,11.8565551 7.15571827,11.8565551 C12.4311018,11.8565551 21.954649,13.3886797 23.3823106,12.3440493 C24.8273826,11.2820084 24.531404,4.28298466 24.531404,4.28298466 L17.6368433,0.0522315202 Z" id="Shape" fill="#5E4F4B"></path>
                                <path d="M14.7466992,7.53874942 C12.5877964,8.32222222 9.01864249,7.76508601 6.25037192,7.43428638 L6.84232915,8.14811715 C6.84232915,8.14811715 12.918596,9.36685263 15.8087401,8.21775918 C18.6988842,7.06866574 19.2037889,4.70083682 19.2037889,4.70083682 C19.2037889,4.70083682 17.8631799,3.76066946 17.3234542,3.63879591 C16.9752441,5.27538354 16.2614133,6.99902371 14.7466992,7.53874942 Z" id="Shape" fill="#8C8582"></path>
                                <path d="M7.50392841,11.8739656 C8.07847513,9.66283124 7.2253603,8.23516969 6.52894003,7.46910739 C5.13609949,7.29500232 3.91736402,7.15571827 3.13389121,7.26018131 C0.835704324,7.55615993 0.452673175,10.8119247 0.452673175,10.8119247 C0.452673175,10.8119247 1.89774523,11.8739656 7.17312878,11.8739656 C7.27759182,11.8739656 7.38205486,11.8739656 7.50392841,11.8739656 Z" id="Shape" fill="#BAB3B2"></path>
                                <path d="M24.1135518,12.2744073 C23.6782892,12.9708275 22.7033008,13.1623431 20.5966295,13.1797536 C19.9002092,13.1797536 19.0645049,13.1623431 18.1243375,13.1275221 C13.5801953,12.988238 10.6900511,12.3092283 5.64100418,12.3092283 C3.13389121,12.3092283 1.68881915,11.9784286 0.887935844,11.647629 C0.539725709,11.508345 0.313389121,11.3690609 0.174105067,11.2645979 C0.174105067,11.3342399 0.174105067,11.4212924 0.174105067,11.508345 C0.80088331,11.9261971 2.28077638,12.5181543 5.64100418,12.5181543 C10.6726406,12.5181543 13.5453742,13.1971641 18.1243375,13.3364482 C19.0819154,13.3712692 19.9002092,13.3886797 20.61404,13.3886797 C20.648861,13.3886797 20.683682,13.3886797 20.718503,13.3886797 C22.4769642,13.3886797 23.5041841,13.2145746 24.0787308,12.6748489 C24.0787308,12.5181543 24.0961413,12.3962808 24.1135518,12.2744073 Z" id="Shape" fill="#000000"></path>
                                <circle id="Oval" fill="#8C8582" cx="20.7359135" cy="8.91417945" r="1.79328219"></circle>
                            </g>
                            <path d="M180.982218,87.8708275 C180.982218,87.8708275 159.06239,92.6935379 154.674942,97.9515109 C150.287494,103.209484 144.803185,151.210251 144.803185,151.210251 C144.803185,151.210251 148.75537,152.53345 154.674942,152.53345 C154.674942,152.53345 162.561901,111.984379 165.852487,108.484868 C169.143073,104.985356 187.772315,104.985356 195.450349,104.532682 C203.128382,104.09742 205.757369,95.9841237 205.757369,88.9676894 C205.757369,81.9512552 205.757369,84.5802417 205.757369,84.5802417 L181.208554,84.5802417 L180.982218,87.8708275 Z" id="Shape" fill="#4E243A"></path>
                            <path d="M170.048419,33.0277313 L162.875291,88.9676894 L171.09305,86.58245 L178.718852,87.783775 L191.289238,99.4488145 L205.948884,103.488052 L208.786797,98.4041841 L208.786797,84.3364947 C208.786797,84.3364947 202.501604,36.4750116 199.506997,32.5924686 C196.5298,28.6925151 171.859112,25.1059507 170.048419,33.0277313 Z" id="Shape" fill="#6F625D"></path>
                            <path d="M167.367201,71.7661088 L178.579568,60.6930265 L177.98761,57.5591353 L183.82013,50.5252906 L188.155346,31.9831009 C188.155346,31.9831009 187.110716,30.6424919 186.518759,30.6424919 C185.926801,30.6424919 172.607764,31.9831009 172.607764,31.9831009 L169.317178,35.5696653 L167.976569,50.9779637 L168.881915,56.3578103 L166.792655,58.8997443 L167.367201,71.7661088 Z" id="Shape" fill="#7D756E"></path>
                            <path d="M35.7437703,80.192794 C34.908066,79.8794049 33.9853092,79.4615528 32.9580893,78.9566481 C30.9036495,77.9468387 28.4661785,76.5714086 25.9764761,74.9522315 C20.9796606,71.6616457 15.7913296,67.7791027 13.1623431,63.1653185 C11.8217341,60.6930265 11.4909344,58.029219 11.4735239,55.3654114 C11.5257555,46.8168526 15.3038354,37.45 15.3560669,37.2410739 C16.0698977,35.3955602 18.1591585,34.4728033 20.0046722,35.2040446 C21.850186,35.9178754 22.7729428,38.0071362 22.0417015,39.8526499 C22.0417015,39.8526499 22.0068805,39.957113 21.9024175,40.2008601 C21.8153649,40.4446072 21.6760809,40.8102278 21.5193863,41.2803115 C21.2059972,42.2204788 20.7707345,43.5436774 20.3354719,45.0932125 C19.4649465,48.1748722 18.6466527,52.1792887 18.6466527,55.3480009 C18.6292422,57.2979777 18.9774523,58.8823338 19.447536,59.6832171 C20.2832404,61.2849837 22.8425848,63.8617387 25.872013,66.1251046 C28.9014412,68.4232915 32.3835425,70.5647838 35.0995816,71.9750349 C36.6491167,72.7933287 38.0419572,73.3852859 38.616504,73.5768015 C38.6687355,73.559391 38.720967,73.5419805 38.790609,73.5071595 C39.0865876,73.3852859 39.5392608,73.1589493 40.1138075,72.8455602 C41.262901,72.2710135 42.9691306,71.2786146 45.4066016,71.2612041 C45.9463273,71.2612041 46.5382845,71.3134356 47.1128312,71.4353092 C49.13245,71.8705718 50.6297536,72.6018131 51.674384,73.594212 C52.7364249,74.5692004 53.1716876,75.7357043 53.2587401,76.3798931 C53.5895397,78.3298698 52.2663412,80.192794 50.298954,80.5061832 C48.7842399,80.7673408 47.3217573,80.018689 46.6079265,78.7651325 C46.4338215,78.67808 46.1030219,78.5736169 45.5981172,78.4517434 C45.5284751,78.4343329 45.4762436,78.4343329 45.4066016,78.4343329 C45.180265,78.4169224 44.5360762,78.6084379 43.4566248,79.2003952 C42.3771734,79.7052999 40.9321013,80.7151093 38.5120409,80.7847513 C37.2236634,80.7673408 36.6317062,80.4887727 35.7437703,80.192794 Z" id="Shape" fill="#FFD596"></path>
                            <path d="M62.0684565,81.0284984 C60.3622269,80.9414458 59.7528591,80.2102046 59.3872385,79.8968154 C59.0216179,79.5311948 58.8301023,79.2526267 58.6734077,78.9914691 C58.3600186,78.4865644 58.133682,78.0164807 57.8899349,77.476755 C57.4024407,76.3973036 56.897536,75.0566946 56.3229893,73.4375174 C55.1913064,70.2339842 53.8506974,66.0554626 52.5623199,61.876941 C50.0029754,53.5198977 47.6351464,45.215086 47.6351464,45.1976755 C47.0954207,43.2999303 48.2096932,41.297722 50.1074384,40.7579963 C52.0225941,40.2182706 54.0073919,41.332543 54.5471176,43.2302882 C54.5471176,43.2476987 55.5743375,46.8342631 57.0019991,51.6569735 C57.1586936,52.1618782 57.2979777,52.6667829 57.4546722,53.1890981 C58.5167132,53.5198977 59.404649,54.320781 59.8050907,55.4350535 C59.8050907,55.452464 60.9541841,58.7082287 62.2251511,62.6778243 C63.5135286,66.6648303 64.9411901,71.2612041 65.5679684,74.3080428 C65.7420735,75.2133891 65.8813575,75.9446304 65.898768,76.8499768 C65.898768,77.1633659 65.8813575,77.4941655 65.7768945,77.9990702 C65.6550209,78.4691539 65.4635053,79.2352162 64.5407485,80.088331 C63.9487913,80.6280567 62.9738029,80.9936774 62.1729196,80.9936774 C62.1206881,81.0284984 62.085867,81.0284984 62.0684565,81.0284984 Z" id="Shape" fill="#FFD596"></path>
                            <path d="M35.4826127,29.8764296 L31.2170386,28.413947 L31.5478382,25.7153185 C31.5478382,25.7153185 27.3344956,20.753324 27.003696,19.308252 C26.6728963,17.8457694 28.1701999,13.9980474 28.1701999,13.9980474 C28.1701999,13.9980474 26.5684333,12.3440493 30.1549977,8.5311483 C33.7415621,4.71824733 44.1182241,3.44728033 48.7145979,3.22094375 C53.3109716,2.99460716 58.029219,7.41687587 58.029219,7.41687587 L56.4622734,9.21015807 L58.5863552,9.10569503 L57.4720828,12.6922594 C57.4720828,12.6922594 56.793073,15.390888 56.793073,16.0524872 C56.793073,16.731497 53.9899814,19.7609252 53.5373082,20.1961878 C53.0846351,20.648861 36.4924221,30.3987448 36.4924221,30.3987448 L35.4826127,29.8764296 Z" id="Shape" fill="#603913"></path>
                            <path d="M55.1913064,14.9730358 C55.1913064,14.9730358 56.2707578,41.0365644 49.5851232,42.1160158 C42.8820781,43.1954672 36.9102743,38.686146 35.8308229,33.2540679 C35.8308229,33.2540679 31.3040911,34.1594142 30.9384705,29.2670618 C30.5728498,24.3747094 35.0995816,26.0112971 35.0995816,26.0112971 L36.3705486,28.1876104 L38.5468619,26.7425384 L37.8156206,20.9448396 L38.8950721,21.6760809 L38.8950721,18.4203161 C38.8950721,18.4203161 42.1508368,15.1645514 44.6927708,14.6248257 C47.2347048,14.0851 51.3958159,12.988238 51.3958159,12.988238 L48.6797768,15.5127615 L55.1913064,14.9730358 Z" id="Shape" fill="#FFD596"></path>
                            <path d="M15.7042771,33.4804045 C15.7042771,33.4804045 8.21775918,55.1738959 8.37445374,58.7604603 C8.5311483,62.3470246 8.67043236,64.1403068 8.67043236,64.1403068 C8.67043236,64.1403068 16.7489075,67.7268712 24.531404,62.3470246 L25.732729,40.5142492 C25.7153185,40.4968387 23.7827522,31.5304277 15.7042771,33.4804045 Z" id="Shape" fill="#493848"></path>
                            <path d="M50.7342166,26.6380753 C50.7342166,26.6380753 49.0453975,32.366132 50.5078801,32.9232682 C51.9703626,33.4804045 54.4426546,33.1496048 54.4426546,31.0081125 C54.4426546,28.8666202 50.7342166,26.6380753 50.7342166,26.6380753 Z" id="Shape" fill="#FAB072"></path>
                            <path d="M46.590516,26.5162018 L47.2347048,26.5858438 C47.2521153,26.4639702 47.2521153,26.3420967 47.2521153,26.2028126 C47.2521153,25.4193398 46.9909577,24.7751511 46.6601581,24.7751511 C46.3293584,24.7751511 46.0682008,25.4193398 46.0682008,26.2028126 C46.0682008,26.9862854 46.3293584,27.6304742 46.6601581,27.6304742 C46.8864947,27.6304742 47.0780102,27.3519061 47.1824733,26.9166434 L46.590516,26.5162018 Z" id="Shape" fill="#603913"></path>
                            <path d="M53.5373082,26.1505811 L54.181497,26.2202232 C54.1989075,26.0983496 54.1989075,25.9764761 54.1989075,25.837192 C54.1989075,25.0537192 53.9377499,24.4095305 53.6069503,24.4095305 C53.2761506,24.4095305 53.014993,25.0537192 53.014993,25.837192 C53.014993,26.6206648 53.2761506,27.2648536 53.6069503,27.2648536 C53.8332868,27.2648536 54.0248024,26.9862854 54.1292655,26.5510228 L53.5373082,26.1505811 Z" id="Shape" fill="#603913"></path>
                            <polygon id="Shape" fill="#603913" points="51.9703626 37.6589261 50.0203859 38.1812413 50.2467225 38.6339145"></polygon>
                            <path d="M47.4784519,21.4323338 C47.4784519,21.4323338 45.7548117,21.5890284 45.7548117,21.954649 C45.7722222,22.3376801 48.7494189,22.1113436 47.4784519,21.4323338 Z" id="Shape" fill="#603913"></path>
                            <path d="M54.216318,21.5019758 C54.216318,21.5019758 52.4926778,21.6586704 52.4926778,22.024291 C52.4926778,22.4073222 55.487285,22.1809856 54.216318,21.5019758 Z" id="Shape" fill="#603913"></path>
                            <path d="M157.02536,95.8622501 C155.945909,94.208252 156.398582,91.9797071 158.05258,90.9002557 L182.723268,74.7433054 L187.5808,40.1660391 C187.859368,38.1986518 189.67006,36.8406323 191.637448,37.1017899 C193.604835,37.380358 194.962854,39.1910507 194.701697,41.1584379 L189.617829,77.3548815 C189.478545,78.3821013 188.903998,79.2874477 188.033473,79.8619944 L162.004765,96.9068805 C161.395397,97.3073222 160.716388,97.4988377 160.037378,97.4988377 C158.870874,97.4814272 157.721781,96.924291 157.02536,95.8622501 Z" id="Shape" fill="#FFD596"></path>
                            <path d="M167.071223,84.3190841 L163.623942,86.408345 L169.003789,94.4868201 L172.590353,90.4475825 C172.590353,90.4475825 189.791934,84.6150628 192.925825,77.581218 C196.059716,70.5473733 197.852999,42.1334263 197.55702,39.1388192 C197.261041,36.144212 194.10974,32.8536262 189.478545,35.0995816 C184.84735,37.345537 181.556764,72.1839609 181.556764,72.1839609 L167.071223,84.3190841 Z" id="Shape" fill="#7D756E"></path>
                            <path d="M172.607764,31.9831009 L169.021199,64.1403068 L187.406695,31.6871223 C187.406695,31.6871223 180.076871,27.038517 172.607764,31.9831009 Z" id="Shape" fill="#FFFFFF"></path>
                            <path d="M175.89835,31.9831009 L177.848326,35.8656439 C177.848326,35.8656439 181.591585,37.6589261 184.725477,33.9156671 C187.859368,30.1724082 184.272803,31.0777545 184.272803,31.0777545 L183.524152,28.8317992 L175.89835,31.9831009 Z" id="Shape" fill="#FDC17C"></path>
                            <path d="M166.461855,10.5855881 C166.461855,10.5855881 163.763226,9.08828452 165.713203,5.50172013 C167.66318,1.91515574 172.13768,-0.922756857 183.367457,0.574546722 C194.579823,2.0718503 192.194584,7.60839145 192.194584,7.60839145 C192.194584,7.60839145 196.390516,8.65302185 193.987866,14.7815202 C191.602627,20.9100186 187.859368,23.9046258 187.859368,23.9046258 L183.82013,23.9046258 L179.032241,21.6586704 L166.461855,10.5855881 Z" id="Shape" fill="#433D38"></path>
                            <path d="M165.904719,8.68784286 C165.904719,8.68784286 164.825267,34.7513715 171.510902,35.8308229 C178.213947,36.9102743 184.185751,32.400953 185.265202,26.9688749 C185.265202,26.9688749 189.791934,27.8742213 190.157555,22.9818689 C190.523175,18.0895165 185.996444,19.7261041 185.996444,19.7261041 L184.725477,21.9024175 L182.549163,20.4573454 L183.280404,14.6596467 L182.200953,15.390888 L182.200953,12.1351232 C182.200953,12.1351232 178.945188,8.87935844 176.403254,8.33963273 C173.86132,7.79990702 169.700209,6.7030451 169.700209,6.7030451 L172.416248,9.22756857 L165.904719,8.68784286 Z" id="Shape" fill="#FFD596"></path>
                            <rect id="Rectangle-path" fill="#C49A6C" x="158.244096" y="78.3124593" width="10.8467457" height="5.50172013"></rect>
                            <path d="M173.791678,21.885007 C173.791678,21.885007 175.132287,21.2059972 176.403254,21.3626918 C177.674221,21.5193863 178.353231,22.1809856 178.353231,22.1809856 C178.353231,22.1809856 177.98761,20.683682 175.811297,20.683682 C173.652394,20.683682 173.791678,21.885007 173.791678,21.885007 Z" id="Shape" fill="#433D38"></path>
                            <path d="M166.096234,21.885007 C166.096234,21.885007 167.436843,21.2059972 168.70781,21.3626918 C169.978777,21.5193863 170.657787,22.1809856 170.657787,22.1809856 C170.657787,22.1809856 170.292166,20.683682 168.115853,20.683682 C165.93954,20.683682 166.096234,21.885007 166.096234,21.885007 Z" id="Shape" fill="#433D38"></path>
                            <path d="M173.878731,19.1167364 C173.878731,19.1167364 173.809089,19.273431 174.331404,19.273431 C174.853719,19.273431 175.89835,18.5247792 176.351023,18.5247792 C176.803696,18.5247792 178.440284,19.5694096 178.440284,19.5694096 C178.440284,19.5694096 178.283589,17.9328219 176.351023,17.9328219 C174.401046,17.9154114 173.878731,19.1167364 173.878731,19.1167364 Z" id="Shape" fill="#433D38"></path>
                            <path d="M166.461855,18.7337053 C166.461855,18.7337053 166.392213,18.8903998 166.914528,18.8903998 C167.436843,18.8903998 168.481474,18.141748 168.934147,18.141748 C169.38682,18.141748 171.023408,19.1863784 171.023408,19.1863784 C171.023408,19.1863784 170.866713,17.5497908 168.934147,17.5497908 C166.98417,17.5497908 166.461855,18.7337053 166.461855,18.7337053 Z" id="Shape" fill="#433D38"></path>
                            <path d="M169.090841,29.8764296 C169.090841,29.8764296 170.135472,32.5750581 172.451069,32.4880056 C174.766667,32.4183636 177.378243,29.650093 177.378243,29.650093 C177.378243,29.650093 175.132287,32.9406788 172.520711,33.0103208 C169.909135,33.0973733 169.090841,29.8764296 169.090841,29.8764296 Z" id="Shape" fill="#433D38"></path>
                            <path d="M171.928754,22.7033008 C171.928754,22.7033008 169.752441,26.6728963 169.978777,27.5608322 C170.205114,28.4661785 172.224733,28.379126 172.224733,28.379126 C172.224733,28.379126 173.043026,28.309484 173.199721,27.2648536 C173.339005,26.2202232 171.928754,22.7033008 171.928754,22.7033008 Z" id="Shape" fill="#F9AD7F"></path>
                            <path d="M135.140353,81.6378661 L163.571711,153.978522 C163.571711,153.978522 165.869898,155.580288 167.158275,154.239679 L146.404951,81.6378661 L135.140353,81.6378661 Z" id="Shape" fill="#C49A6C"></path>
                            <path d="M71.3656671,81.6378661 L42.9343096,147.884844 C42.9343096,147.884844 40.6361227,149.347327 39.3477452,148.128591 L60.1010693,81.6378661 L71.3656671,81.6378661 Z" id="Shape" fill="#C49A6C"></path>
                        </g>
                        <g transform="translate(294.436541, 125.529754)" fill-rule="nonzero" id="Shape">
                            <path d="M10.4288935,0.139284054 L6.28519293,0.139284054 C2.8379126,0.139284054 0.0348210135,2.94237564 0.0348210135,6.38965597 L0.0348210135,8.11329614 C0.0348210135,11.2297768 2.3155974,13.7891213 5.29279405,14.2766155 C5.44948861,14.9556253 5.64100418,16.2788238 4.80529986,16.870781 C4.80529986,16.870781 7.66062297,16.3310553 8.2525802,14.3462576 L10.1677359,14.3462576 L10.4288935,14.3462576 C13.8761739,14.3462576 16.6792655,11.543166 16.6792655,8.09588563 L16.6792655,6.37224547 C16.6792655,2.94237564 13.8935844,0.139284054 10.4288935,0.139284054 Z" fill="#FBFEFF"></path>
                            <path d="M12.1873547,7.26018131 C12.4485123,6.91197118 12.6226174,6.459298 12.6226174,5.98921432 C12.6226174,4.80529986 11.6650395,3.8651325 10.4985356,3.8651325 C9.31462111,3.8651325 8.37445374,4.82271037 8.37445374,5.98921432 C8.37445374,4.80529986 7.41687587,3.8651325 6.25037192,3.8651325 C5.08386797,3.8651325 4.1262901,4.82271037 4.1262901,5.98921432 C4.1262901,6.47670851 4.28298466,6.91197118 4.56155277,7.26018131 C4.63119479,7.34723384 4.70083682,7.43428638 4.78788935,7.52133891 L8.39186425,11.612808 L11.9958391,7.52133891 C12.0480707,7.43428638 12.1177127,7.34723384 12.1873547,7.26018131 Z" fill="#F2665D"></path>
                        </g>
                        <circle id="Oval" fill="#FBFEFF" fill-rule="nonzero" cx="86.6247327" cy="165.539098" r="3.25576476"></circle>
                        <circle id="Oval" fill="#FBFEFF" fill-rule="nonzero" cx="314.597908" cy="182.531753" r="3.25576476"></circle>
                        <circle id="Oval" fill="#FBFEFF" fill-rule="nonzero" cx="72.4351697" cy="153.020944" r="1.2883775"></circle>
                        <circle id="Oval" fill="#FBFEFF" fill-rule="nonzero" cx="271.524314" cy="80.3494886" r="1.2883775"></circle>
                        <circle id="Oval" fill="#FBFEFF" fill-rule="nonzero" cx="320.778638" cy="189.391492" r="1.2883775"></circle>
                        <circle id="Oval" fill="#FBFEFF" fill-rule="nonzero" cx="73.5494421" cy="238.193143" r="2.42006044"></circle>
                        <circle id="Oval" fill="#FBFEFF" fill-rule="nonzero" cx="333.714644" cy="127.13152" r="2.42006044"></circle>
                        <g transform="translate(290.606230, 281.353789)" fill="#6E75A3" fill-rule="nonzero" id="Oval">
                            <ellipse cx="6.30260344" cy="5.91957229" rx="6.25037192" ry="1.94997675"></ellipse>
                            <ellipse cx="17.1145281" cy="1.16650395" rx="3.06424919" ry="1.14909344"></ellipse>
                        </g>
                    </g>
                </g>
            </g>
        </g>
    </g>
</svg>