<?xml version="1.0" encoding="UTF-8"?>
<svg width="60px" height="68px" viewBox="0 0 60 68" version="1.1" xmlns="http://www.w3.org/2000/svg" xmlns:xlink="http://www.w3.org/1999/xlink">
    <!-- Generator: Sketch 48.2 (47327) - http://www.bohemiancoding.com/sketch -->
    <title>icon / divorce / 2</title>
    <desc>Created with Sketch.</desc>
    <defs></defs>
    <g id="Symbols" stroke="none" stroke-width="1" fill="none" fill-rule="evenodd">
        <g id="icon-/-divorce-/-2">
            <g id="Group" transform="translate(1.000000, 0.000000)">
                <path d="M49.4585239,41.5945548 C49.5189986,41.5380885 49.5796477,41.480925 49.6395996,41.4223673 C51.0855912,40.0002519 51.8820455,38.0995668 51.8820455,36.0707868 L51.8820455,32.2441462 C51.8820455,28.4004262 48.7551344,25.2729923 44.9108916,25.2729923 L40.9500563,25.2729923 C38.7008135,25.2729923 36.8715828,27.1022231 36.8715828,29.3507688 L36.8715828,35.9707507 C36.8715828,37.9082087 37.6012883,39.6884671 38.7975383,41.038431 C37.8423159,41.3352279 36.9737102,41.8866462 36.2936741,42.6477219 L31.1789385,47.6235572 C31.1524481,47.6495248 31.1264806,47.6767123 31.1019073,47.7045969 C30.7833255,48.0688397 30.3232294,48.2778 29.8390828,48.2778 C29.3551104,48.2778 28.8941428,48.0688397 28.5755611,47.7045969 C28.5382654,47.6617243 28.4973099,47.6207688 28.4551344,47.582776 L22.944263,42.6648012 C22.2218772,41.8758409 21.2265707,41.3958769 20.1653868,41.3181486 C20.853614,39.9171209 21.2403388,38.3425115 21.2403388,36.6793685 L21.2403388,33.4416161 C21.2408616,31.4851618 20.4790888,29.6463457 19.0958376,28.2629202 C17.7124121,26.879669 15.8737703,26.1178962 13.9171416,26.1178962 L13.7639505,26.1178962 C9.60914285,26.1178962 6.22848179,29.4842664 6.22848179,33.6226918 C6.22848179,37.0803841 4.6803628,40.3024514 1.9797378,42.4626377 L0.813638041,43.395901 C0.0877666467,43.9765981 -0.182365565,44.9182267 0.125236599,45.7957207 C0.433013041,46.6725176 1.23225583,47.2389238 2.16151064,47.2389238 L5.04460559,47.2389238 C4.82745415,47.727776 4.6374902,48.2377159 4.47680511,48.7673493 L0.72771857,61.1104743 C0.255945733,62.6639959 0.52834357,64.3924935 1.43912482,65.6206365 C2.13693732,66.5606966 3.14862602,67.0999154 4.21678107,67.0999154 L21.7243111,67.0999154 C22.7917691,67.0999154 23.8039806,66.5606966 24.5005731,65.6206365 C25.4113544,64.3924935 25.6844493,62.6639959 25.2126765,61.1104743 L21.8271356,49.9641221 C21.6031873,49.2267483 20.8243352,48.8114418 20.0876585,49.0348673 C19.3511561,49.2588156 18.9351525,50.0376678 19.1591008,50.7741702 L22.5439445,61.9205224 C22.7910719,62.7326618 22.5793231,63.5299875 22.2607414,63.9601077 C22.1633195,64.0915139 21.9639445,64.3114539 21.7243111,64.3114539 L4.21678107,64.3114539 C3.97645054,64.3114539 3.77690126,64.0915139 3.67965367,63.9601077 C3.36107194,63.5299875 3.15002025,62.7326618 3.39645054,61.9205224 L7.14553708,49.5780945 C7.404864,48.7223853 7.75673299,47.9388277 8.19382434,47.2389238 L10.6793892,47.2389238 C13.6149421,47.2389238 16.2746116,46.0353541 18.190459,44.0951077 L19.8597017,44.0951077 C20.2619373,44.0951077 20.6439566,44.2686894 20.9086861,44.5715861 C20.9468532,44.6144587 20.9869373,44.6554142 21.0299842,44.6935813 L26.5401585,49.6113817 C27.3855852,50.5373252 28.5818352,51.0662615 29.8390828,51.0662615 C31.1067871,51.0662615 32.3138424,50.5277399 33.1599662,49.5869827 L38.2753989,44.6097531 C38.3018892,44.5839599 38.3276825,44.5565981 38.3522558,44.5287135 C38.8818892,43.9236173 39.6464505,43.5762796 40.4503989,43.5762796 L46.5691549,43.5762796 C47.3800743,43.5762796 48.1228508,43.9112435 48.6592811,44.5193024 C49.1964085,45.1278841 49.436739,45.9060392 49.3346116,46.722187 L48.5100984,53.807145 L44.6351825,55.7439058 L40.9854349,53.9193805 L40.4599842,49.5073373 C40.3686621,48.742776 39.6750323,48.1960632 38.910471,48.2873853 C38.1459097,48.3785332 37.6000683,49.0723373 37.6912162,49.8367243 L39.4564866,64.6572231 C39.6307654,66.0495368 40.8200443,67.0999154 42.2231633,67.0999154 L47.2880551,67.0999154 C48.6911741,67.0999154 49.8804529,66.0495368 50.056126,64.6457207 L52.1025082,47.0564539 C52.3013604,45.4703421 51.8078027,43.8725536 50.7499301,42.6736894 C50.3727907,42.2468805 49.9363965,41.8838577 49.4585239,41.5945548 Z M18.4518772,36.6786714 C18.4518772,40.9641882 14.9649061,44.4504623 10.6793892,44.4504623 L10.4240707,44.4504623 C12.348632,42.9133228 13.8714806,40.8130885 14.7409578,38.3336233 C14.996102,37.6072291 14.6135599,36.8114719 13.8871657,36.5568505 C13.1607715,36.3022291 12.3650142,36.6842483 12.1096957,37.4106426 C10.8121897,41.1112796 7.6981753,43.7444587 4.09827145,44.3286414 C7.23128227,41.6430043 9.01764044,37.7693084 9.01764044,33.6226918 C9.01764044,31.0221029 11.1464566,28.9056606 13.7639505,28.9056606 L13.9171416,28.9056606 C15.1289025,28.9056606 16.2678147,29.3774334 17.124221,30.2345368 C17.9806272,31.090943 18.4524001,32.2298553 18.4524001,33.440919 L18.4518772,36.6786714 Z M49.0942811,36.0707868 C49.093584,37.3458108 48.5932294,38.5399695 47.6843652,39.4345428 C46.7748039,40.328419 45.5691428,40.8062916 44.295513,40.7872952 C41.739888,40.7442483 39.6600443,38.5835392 39.6600443,35.9707507 L39.6600443,35.5826317 C41.2210599,36.5303601 43.0924662,37.0463998 45.0013424,37.0463998 C45.7713063,37.0463998 46.3955731,36.4221329 46.3955731,35.652169 C46.3955731,34.8822051 45.7713063,34.2579382 45.0013424,34.2579382 C43.4328328,34.2579382 41.9113784,33.7908709 40.7172198,32.9426558 C40.055483,32.4722772 39.6600443,31.6906365 39.6600443,30.8499154 L39.6600443,29.3507688 C39.6600443,28.6400596 40.2386501,28.0614539 40.9500563,28.0614539 L44.9115888,28.0614539 C47.2172979,28.0614539 49.0942811,29.9377399 49.0942811,32.2441462 L49.0942811,36.0707868 Z M47.2880551,64.3114539 L42.2245575,64.319645 L41.3803508,57.2341642 L44.0123099,58.5499695 C44.4044373,58.7460332 44.8666248,58.7460332 45.2587522,58.5499695 L48.1247678,57.1170488 L47.2880551,64.3114539 Z" id="Fill-1" fill="#CEC68E"></path>
                <path d="M31.5291652,39.7980914 C32.0051945,39.7980914 32.4821544,39.5007126 32.6602467,39.0239389 L33.3151127,37.2378052 C33.5536857,36.6424893 33.1967567,35.9271426 32.6006965,35.6895001 C32.0051945,35.4511132 31.2907783,35.8086005 31.0522053,36.4041025 L30.3973393,38.19005 C30.1595107,38.7861103 30.5164396,39.5007126 31.1119416,39.7385412 C31.231042,39.7980914 31.4098787,39.7980914 31.5291652,39.7980914 Z" id="Fill-1" fill="#B5A1D2"></path>
                <path d="M55.9811646,25.4738215 L53.3959028,25.4738215 C54.2658764,23.2795085 54.7539275,20.9262334 54.7539275,18.3602071 C54.7539275,10.2613805 49.9299895,4.84212662 45.1656017,3.11572924 C40.8186235,1.50768786 36.5311955,2.75805587 33.374849,6.50971819 L33.374849,6.56926839 L36.7695824,9.96344344 C37.1860615,10.380667 37.4244484,10.9164327 37.305348,11.5117485 C37.2457978,12.0482586 36.8888689,12.5242879 36.411909,12.7628609 L23.906554,19.9680624 L35.400114,26.2800109 C35.8165931,26.4588476 36.1145302,26.7569708 36.2926225,27.17345 C36.4714592,27.6504098 36.4714592,28.1264392 36.2926225,28.5429184 L34.6855116,33.0689193 C34.5066749,33.6649796 33.7920726,34.0219085 33.1967567,33.7835217 C32.6006965,33.6054294 32.2437675,32.890827 32.4821544,32.2947668 L33.9113591,28.1859894 L21.8224833,21.5165536 C21.1674311,21.1588802 20.8097578,20.5038281 20.8694941,19.848962 C20.9290443,19.25346 21.2867176,18.7178805 21.8224833,18.4197573 L34.6257753,11.1548195 L31.0522053,7.5819939 C30.6357261,7.16477035 30.5761759,6.56926839 30.874113,6.09323901 C30.9338493,6.03350272 31.2907783,5.37863667 31.5887154,5.02096331 C35.400114,0.495148442 40.7588872,-1.05334274 45.9994905,0.852821804 C52.6689263,3.29382154 57.135191,10.3209307 57.1949273,18.3602071 C57.1949273,20.9100583 56.7592471,23.2687865 55.9811646,25.4738215 Z M3.5613515,25.4738215 C2.78419744,23.2666387 2.34938323,20.9075231 2.34938323,18.3602071 C2.34938323,10.9164327 6.22033204,4.30636096 12.1753516,1.38840138 C16.8204529,-0.874506056 21.762747,-0.33874039 25.693246,2.75805587 C26.1694615,3.17453505 26.2887479,3.88988178 25.8713383,4.42564744 C25.4548591,4.90167682 24.7402568,5.02096331 24.2044911,4.60448412 C20.9885944,2.10300372 16.9985452,1.68578016 13.1871466,3.53220842 C8.06601591,6.03350272 4.73157715,11.8694219 4.73157715,18.3602071 C4.73157715,20.9049704 5.24157957,23.2631475 6.14077303,25.4738215 L3.5613515,25.4738215 Z" id="Fill-3" fill="#CEC68E"></path>
            </g>
        </g>
    </g>
</svg>