<?xml version="1.0" encoding="UTF-8"?>
<svg width="17px" height="22px" viewBox="0 0 17 22" version="1.1" xmlns="http://www.w3.org/2000/svg" xmlns:xlink="http://www.w3.org/1999/xlink">
    <!-- Generator: Sketch 48.2 (47327) - http://www.bohemiancoding.com/sketch -->
    <title>signing-the-contract</title>
    <desc>Created with Sketch.</desc>
    <defs>
        <polygon id="path-1" points="0.0347368421 0.231578947 16.8213158 0.231578947 16.8213158 22.0011579 0.0347368421 22.0011579"></polygon>
    </defs>
    <g id="Order-Flow-4" stroke="none" stroke-width="1" fill="none" fill-rule="evenodd" transform="translate(-1032.000000, -298.000000)">
        <g id="progress-tracker" transform="translate(-2.000000, 283.000000)">
            <g id="Group" transform="translate(325.000000, 0.000000)">
                <g id="signing-the-contract" transform="translate(709.000000, 15.000000)">
                    <path d="M12.122,4.10763158 L4.69931579,4.10763158 C4.15452632,4.10763158 3.71105263,4.55110526 3.71105263,5.09589474 C3.71105263,5.64357895 4.15452632,6.08647368 4.69931579,6.08647368 L12.122,6.08647368 C12.6667895,6.08647368 13.1102632,5.64357895 13.1102632,5.09589474 C13.1102632,4.55110526 12.6667895,4.10763158 12.122,4.10763158 Z" id="Fill-1" fill="#C7BE7E"></path>
                    <path d="M13.1102632,8.80752632 C13.1102632,8.25984211 12.6667895,7.81694737 12.122,7.81694737 L4.69931579,7.81694737 C4.15452632,7.81694737 3.71105263,8.25984211 3.71105263,8.80752632 C3.71105263,9.35463158 4.15452632,9.79752632 4.69931579,9.79752632 L12.122,9.79752632 C12.6667895,9.79752632 13.1102632,9.35463158 13.1102632,8.80752632 Z" id="Fill-2" fill="#C7BE7E"></path>
                    <mask id="mask-2" fill="white">
                        <use xlink:href="#path-1"></use>
                    </mask>
                    <g id="Clip-4"></g>
                    <path d="M8.41036842,13.5068421 C8.95805263,13.5068421 9.40094737,13.0633684 9.40094737,12.5185789 C9.40094737,11.9708947 8.95805263,11.528 8.41036842,11.528 L4.69931579,11.528 C4.15452632,11.528 3.71105263,11.9708947 3.71105263,12.5185789 C3.71105263,13.0633684 4.15452632,13.5068421 4.69931579,13.5068421 L8.41036842,13.5068421 Z" id="Fill-3" fill="#C7BE7E" mask="url(#mask-2)"></path>
                    <path d="M15.8805263,16.8716842 L14.8424737,17.5571579 L14.8424737,20.02 L1.97884211,20.02 L1.97884211,2.21042105 L14.8424737,2.21042105 L14.8424737,6.12063158 L16.8213158,2.69210526 L16.8213158,1.21984211 C16.8213158,0.675052632 16.3778421,0.231578947 15.8307368,0.231578947 L0.988263158,0.231578947 C0.443473684,0.231578947 0,0.675052632 0,1.21984211 L0,21.0105789 C0,21.5576842 0.443473684,22.0011579 0.988263158,22.0011579 L15.8307368,22.0011579 C16.3778421,22.0011579 16.8213158,21.5576842 16.8213158,21.0105789 L16.8213158,15.5580526 L16.3483158,16.3743684 C16.2331053,16.5752632 16.0704211,16.7472105 15.8805263,16.8716842 Z" id="Fill-5" fill="#C7BE7E" mask="url(#mask-2)"></path>
                    <path d="M21.7307895,4.81336842 C21.7105263,4.72536842 21.5003684,3.92468421 20.2428947,3.19868421 C18.9831053,2.47268421 18.1870526,2.68978947 18.0990526,2.717 C17.9815263,2.75521053 17.8819474,2.83452632 17.8182632,2.94336842 L11.6356842,13.6538947 C11.5968947,13.7193158 11.5743158,13.794 11.5696842,13.871 L11.3392632,17.7354737 C11.3276842,17.9236316 11.4226316,18.0996316 11.5835789,18.1945789 C11.7462632,18.2877895 11.9477368,18.2831579 12.1034737,18.1789474 L15.3351579,16.0461053 C15.4011579,16.0032632 15.4526842,15.9471053 15.4914737,15.8811053 L21.6763684,5.16826316 C21.7377368,5.06231579 21.758,4.93552632 21.7307895,4.81336842 Z M13.3516842,16.467 C13.1866842,16.3338421 12.9991053,16.2093684 12.7976316,16.0935789 C12.5990526,15.9760526 12.3952632,15.8787895 12.1984211,15.8023684 L12.2684737,14.6444737 C12.5266842,14.6780526 12.9087895,14.7822632 13.3951053,15.0624737 C13.8791053,15.3432632 14.1616316,15.6211579 14.3196842,15.8272632 L13.3516842,16.467 Z" id="Fill-7" fill="#C7BE7E" mask="url(#mask-2)"></path>
                    <path d="M6.89757895,18.0793684 C6.93173684,18.2785263 7.15984211,18.3393158 7.31384211,18.403 C7.46089474,18.4661053 7.63921053,18.3462632 7.76136842,18.2877895 C8.51689474,17.9213158 9.53931579,18.3508947 10.3486842,18.3508947 C10.8257368,18.3508947 10.8257368,17.6092632 10.3486842,17.6092632 C9.40557895,17.6092632 8.62110526,17.3713158 7.68436842,17.5253158 C7.68436842,17.4708947 7.66642105,17.3985263 7.60794737,17.2989474 C7.43368421,17.0007895 7.20963158,16.9145263 6.98789474,16.951 C6.97226316,16.9168421 6.95894737,16.8809474 6.93810526,16.8444737 C6.87963158,16.7495263 6.798,16.7020526 6.70536842,16.6817895 C6.96763158,16.2273158 7.13494737,15.7456316 6.963,15.3542632 C6.91147368,15.2367368 6.76210526,15.1759474 6.64457895,15.1713158 C6.149,15.1527895 5.72405263,15.6732632 5.40505263,15.9853158 C4.60668421,16.7657368 3.90557895,17.6521053 3.22473684,18.5361579 C2.93294737,18.9142105 3.57789474,19.2824211 3.86505263,18.9095789 C4.46889474,18.1268421 5.10631579,17.3695789 5.79178947,16.6592105 C5.62678947,16.9307368 5.45021053,17.1976316 5.26726316,17.4529474 C5.00268421,17.8622632 5.63315789,18.2084737 5.907,17.8286842 C5.97242105,17.7291053 6.05636842,17.6567368 6.14668421,17.5953684 C6.12873684,17.6405263 6.11078947,17.6856842 6.09052632,17.7314211 C6.09226316,17.7314211 6.09226316,17.7331579 6.09457895,17.7331579 C6.07894737,17.7626842 6.06563158,17.7922105 6.05405263,17.8194211 C5.88673684,18.2356842 6.50621053,18.4255789 6.73257895,18.1065789 C6.78931579,18.0249474 6.84084211,17.9392632 6.88831579,17.8489474 C6.88657895,17.9120526 6.88426316,17.9936842 6.89757895,18.0793684 Z" id="Fill-8" fill="#C7BE7E" mask="url(#mask-2)"></path>
                </g>
            </g>
        </g>
    </g>
</svg>