<?xml version="1.0" encoding="UTF-8"?>
<svg width="60px" height="57px" viewBox="0 0 60 57" version="1.1" xmlns="http://www.w3.org/2000/svg" xmlns:xlink="http://www.w3.org/1999/xlink">
    <!-- Generator: Sketch 48.2 (47327) - http://www.bohemiancoding.com/sketch -->
    <title>newspaper (1)</title>
    <desc>Created with Sketch.</desc>
    <defs></defs>
    <g id="Home-2" stroke="none" stroke-width="1" fill="none" fill-rule="evenodd" transform="translate(-572.000000, -1557.000000)" opacity="0.800000012">
        <g id="services" transform="translate(219.000000, 741.000000)" fill="#C7BE7E">
            <g id="content" transform="translate(0.000000, 154.000000)">
                <g id="row-5" transform="translate(86.000000, 662.000000)">
                    <g id="Media-inquiries">
                        <g id="icon-/-newspaper-gold" transform="translate(267.000000, 0.000000)">
                            <g id="purple">
                                <path d="M57.1695703,41.7592969 C56.9472656,41.7592969 56.7495703,41.5991016 56.7092578,41.3721094 L53.4550781,22.9153125 C53.4101953,22.6604297 53.5804688,22.4175 53.8348828,22.3726172 C54.0819141,22.3272656 54.3317578,22.4970703 54.3774609,22.7523047 L57.6317578,41.2092188 C57.6765234,41.4636328 57.5063672,41.7070312 57.2519531,41.7519141 C57.2245312,41.7564844 57.1969922,41.7592969 57.1695703,41.7592969" id="Fill-1"></path>
                                <path d="M57.6582422,44.5273828 C57.4359375,44.5273828 57.2382422,44.3682422 57.1979297,44.1403125 C56.7752344,41.7482812 47.6158594,41.3070703 41.9412891,41.5935938 C41.6585156,41.6063672 41.4617578,41.4069141 41.4499219,41.1488672 C41.4362109,40.8908203 41.6357813,40.6712109 41.8937109,40.6583203 C43.4814844,40.5776953 57.4167187,39.9938672 58.1205469,43.9774219 C58.1653125,44.2327734 57.9951562,44.4752344 57.7407422,44.52 C57.7132031,44.5255078 57.6856641,44.5273828 57.6582422,44.5273828" id="Fill-2"></path>
                                <path d="M39.6379688,28.6749609 C39.4155469,28.6749609 39.2178516,28.5152344 39.1775391,28.2878906 C39.1327734,28.0328906 39.3029297,27.7899609 39.5573438,27.7450781 C43.5362109,27.0423047 53.7003516,24.3079688 52.9664063,20.1460547 C52.9215234,19.8911719 53.0917969,19.6482422 53.3460938,19.6033594 C53.5951172,19.5580078 53.8439063,19.7278125 53.8887891,19.9830469 C54.3391406,22.5335156 52.0430859,24.7768359 47.0649609,26.6505469 C43.4960156,27.9933984 39.7578516,28.6610156 39.7202344,28.6674609 C39.6928125,28.6727344 39.6653906,28.6749609 39.6379688,28.6749609" id="Fill-3"></path>
                                <path d="M53.4267188,20.5332422 C53.2044141,20.5332422 53.0057813,20.3731641 52.9664063,20.1457031 C52.9215234,19.8908203 53.0917969,19.6478906 53.3460938,19.6030078 L55.1928516,19.2781641 C55.4436328,19.2378516 55.6916016,19.4035547 55.7355469,19.6589062 C55.7804297,19.9137891 55.6102734,20.1567187 55.3557422,20.2016016 L53.5091016,20.5263281 C53.4816797,20.5308984 53.4542578,20.5332422 53.4267188,20.5332422" id="Fill-4"></path>
                                <path d="M59.503125,44.2025391 C59.2808203,44.2025391 59.083125,44.0423438 59.0428125,43.8153516 L54.8131641,19.8212109 C54.7682812,19.5663281 54.9384375,19.3233984 55.1928516,19.2785156 C55.4436328,19.2331641 55.6906641,19.4029688 55.7355469,19.6583203 L59.9651953,43.6524609 C60.0100781,43.906875 59.8398047,44.1502734 59.5855078,44.1951562 C59.5580859,44.1998437 59.5305469,44.2025391 59.503125,44.2025391" id="Fill-6"></path>
                                <path d="M57.6582422,44.5273828 C57.4359375,44.5273828 57.2382422,44.3682422 57.1979297,44.1403125 C57.1530469,43.8849609 57.3233203,43.6425 57.5777344,43.5976172 L59.4225,43.2728906 C59.6704687,43.2253125 59.919375,43.3964063 59.9651953,43.6525781 C60.0100781,43.9069922 59.8398047,44.1503906 59.5855078,44.1952734 L57.740625,44.52 C57.7132031,44.5255078 57.6856641,44.5273828 57.6582422,44.5273828" id="Fill-7"></path>
                                <path d="M32.6886328,43.2215625 C32.4663281,43.2215625 32.2686328,43.0613672 32.2283203,42.834375 L29.9497266,29.9149219 C29.9276953,29.7923438 29.9561719,29.6660156 30.0275391,29.5653516 C30.0979688,29.4629297 30.2068359,29.3933203 30.3295313,29.3723438 L39.5574609,27.7451953 C39.8054297,27.6986719 40.0543359,27.8696484 40.1001562,28.125 C40.1450391,28.3798828 39.9747656,28.6228125 39.7203516,28.6676953 L30.9535547,30.2132813 L33.069375,42.2103516 L41.8361719,40.6647656 C42.0869531,40.618125 42.3339844,40.7892188 42.37875,41.0444531 C42.4236328,41.2988672 42.2534766,41.5422656 41.9990625,41.5871484 L32.7711328,43.2142969 C32.7434766,43.2188672 32.7160547,43.2215625 32.6886328,43.2215625" id="Fill-9"></path>
                                <path d="M28.1560547,41.3262891 L32.1076172,42.1526953 L30.0696094,30.5957813 L26.6388281,32.724375 L28.1560547,41.3262891 Z M32.6894531,43.2215625 C32.6574609,43.2215625 32.6254688,43.2188672 32.5934766,43.2114844 L27.6536719,42.1791797 C27.4660547,42.1407422 27.3215625,41.990625 27.2886328,41.8020703 L25.6614844,32.5741406 C25.6276172,32.3857031 25.7128125,32.1953906 25.8757031,32.0946094 L30.1638281,29.4353906 C30.2966016,29.3547656 30.4603125,29.3438672 30.6022266,29.4060938 C30.7440234,29.4692578 30.8455078,29.5991016 30.8721094,29.7520313 L33.1507031,42.6714844 C33.178125,42.8252344 33.1270313,42.9808594 33.0153516,43.0887891 C32.9274609,43.1749219 32.8103906,43.2215625 32.6894531,43.2215625 L32.6894531,43.2215625 Z" id="Fill-10"></path>
                                <path d="M41.5907812,39.7478906 C41.3683594,39.7478906 41.1706641,39.5876953 41.1304687,39.3607031 L39.5033203,30.1327734 C39.4584375,29.8783594 39.6287109,29.6349609 39.8830078,29.5900781 C40.1339062,29.5434375 40.3808203,29.7137109 40.4257031,29.9698828 L42.0528516,39.1978125 C42.0977344,39.4522266 41.9274609,39.695625 41.6730469,39.7405078 C41.6457422,39.7450781 41.6183203,39.7478906 41.5907812,39.7478906" id="Fill-11"></path>
                                <path d="M28.2924609,34.4805469 C28.0692187,34.4805469 27.8715234,34.3203516 27.8321484,34.0933594 C27.7872656,33.8380078 27.9574219,33.5955469 28.2118359,33.5497266 L29.1343359,33.3887109 C29.3851172,33.3447656 29.6321484,33.5131641 29.6769141,33.7694531 C29.7217969,34.02375 29.5516406,34.2672656 29.2972266,34.3110937 L28.3747266,34.4741016 C28.3473047,34.4777344 28.3198828,34.4805469 28.2924609,34.4805469" id="Fill-12"></path>
                                <path d="M29.2679297,40.0177734 C29.0446875,40.0177734 28.8469922,39.8576953 28.8076172,39.6297656 C28.7627344,39.3753516 28.9328906,39.1319531 29.1882422,39.0880078 L30.1126172,38.9251172 C30.3632813,38.8830469 30.6094922,39.0513281 30.6542578,39.3057422 C30.6991406,39.5610937 30.5289844,39.8035547 30.2736328,39.849375 L29.349375,40.0103906 C29.3219531,40.0158984 29.2953516,40.0177734 29.2679297,40.0177734" id="Fill-13"></path>
                                <path d="M28.7811328,37.2495703 C28.5588281,37.2495703 28.3611328,37.089375 28.3208203,36.8623828 C28.2759375,36.6079687 28.4460937,36.3645703 28.7005078,36.3196875 L29.6230078,36.1567969 C29.8700391,36.1092187 30.12,36.2804297 30.1655859,36.5364844 C30.2104687,36.7910156 30.0403125,37.0342969 29.7858984,37.0791797 L28.8633984,37.2421875 C28.8360937,37.246875 28.8085547,37.2495703 28.7811328,37.2495703" id="Fill-14"></path>
                                <path d="M31.2519141,29.6779687 C31.0296094,29.6779687 30.8319141,29.5177734 30.7916016,29.2908984 C30.7467187,29.0358984 30.916875,28.7930859 31.1712891,28.7482031 L33.0161719,28.4224219 C33.2632031,28.3770703 33.5130469,28.546875 33.5588672,28.8021094 C33.60375,29.0569922 33.4334766,29.2999219 33.1790625,29.3448047 L31.3342969,29.6705859 C31.306875,29.6752734 31.2793359,29.6779687 31.2519141,29.6779687" id="Fill-15"></path>
                                <path d="M45.2814844,55.2735938 C45.1103906,55.2735938 44.945625,55.1792578 44.8632422,55.0154297 L40.4670703,46.2762891 C40.3508203,46.0446094 40.4432812,45.7628906 40.6747266,45.6475781 C40.9034766,45.5303906 41.18625,45.6228516 41.3034375,45.8552344 L45.6996094,54.5944922 C45.8158594,54.8260547 45.7233984,55.1078906 45.4919531,55.2232031 C45.4241016,55.2580078 45.3527344,55.2735938 45.2814844,55.2735938" id="Fill-16"></path>
                                <path d="M40.6674609,56.0879297 C40.4963672,56.0879297 40.3317187,55.9935937 40.2493359,55.8298828 L35.8530469,47.08875 C35.7369141,46.8571875 35.829375,46.5753516 36.0608203,46.4601562 C36.2905078,46.3429687 36.5723437,46.4344922 36.6894141,46.6678125 L41.0857031,55.4089453 C41.2018359,55.6405078 41.1094922,55.9223437 40.8779297,56.0375391 C40.8101953,56.0724609 40.7388281,56.0879297 40.6674609,56.0879297" id="Fill-17"></path>
                                <path d="M39.7422656,56.25 C39.5199609,56.25 39.3222656,56.0907422 39.2819531,55.8628125 C39.2370703,55.6074609 39.4072266,55.365 39.6616406,55.3201172 L46.1224219,54.1808203 C46.3712109,54.1341797 46.6192969,54.3043359 46.665,54.5605078 C46.7098828,54.8149219 46.5397266,55.0583203 46.2853125,55.1032031 L39.8246484,56.2426172 C39.7972266,56.2482422 39.7696875,56.25 39.7422656,56.25" id="Fill-19"></path>
                                <path d="M34.0998047,45.8278125 C33.8773828,45.8278125 33.6796875,45.6677344 33.6394922,45.4407422 L33.4564453,44.4021094 C33.4115625,44.1467578 33.5818359,43.9042969 33.83625,43.8594141 C34.0842188,43.8118359 34.333125,43.9838672 34.3788281,44.2392188 L34.561875,45.2778516 C34.6067578,45.5321484 34.4364844,45.7756641 34.1820703,45.8204297 C34.1545313,45.825 34.1272266,45.8278125 34.0998047,45.8278125" id="Fill-21"></path>
                                <path d="M34.0998047,45.8278125 C33.8764453,45.8278125 33.67875,45.6677344 33.6385547,45.4389844 C33.5946094,45.1845703 33.7657031,44.9411719 34.0210547,44.8972266 L42.3302344,43.4605078 C42.5810156,43.4184375 42.8261719,43.5876563 42.871875,43.8430078 C42.9158203,44.0974219 42.7447266,44.3408203 42.489375,44.3847656 L34.1801953,45.8214844 C34.1537109,45.825 34.1262891,45.8278125 34.0998047,45.8278125" id="Fill-22"></path>
                                <path d="M42.4088672,44.3910938 C42.1865625,44.3910938 41.9888672,44.2310156 41.9485547,44.0039062 L41.7856641,43.0815234 C41.7407812,42.8271094 41.9109375,42.5837109 42.1653516,42.5388281 C42.4151953,42.4921875 42.6631641,42.6632813 42.7080469,42.9186328 L42.8709375,43.8410156 C42.9158203,44.0954297 42.7456641,44.3388281 42.49125,44.3837109 C42.4638281,44.3882813 42.4362891,44.3910938 42.4088672,44.3910938" id="Fill-23"></path>
                                <path d="M59.5040625,29.0602734 C59.2450781,29.0602734 59.0355469,28.8507422 59.0355469,28.5917578 L59.0355469,0.479648438 C59.0355469,0.220664062 59.2450781,0.011015625 59.5040625,0.011015625 C59.7630469,0.011015625 59.9725781,0.220664062 59.9725781,0.479648438 L59.9725781,28.5917578 C59.9725781,28.8507422 59.7630469,29.0602734 59.5040625,29.0602734" id="Fill-24"></path>
                                <path d="M6.0909375,42.1792969 C5.83207031,42.1792969 5.62242188,41.9697656 5.62242188,41.7107812 L5.62242188,0.479648438 C5.62242188,0.220664062 5.83207031,0.011015625 6.0909375,0.011015625 C6.34992187,0.011015625 6.55957031,0.220664062 6.55957031,0.479648438 L6.55957031,41.7107812 C6.55957031,41.9697656 6.34992187,42.1792969 6.0909375,42.1792969" id="Fill-25"></path>
                                <path d="M3.27972656,44.9903906 C3.02074219,44.9903906 2.81121094,44.7809766 2.81121094,44.521875 C2.81121094,44.2630078 3.02074219,44.0533594 3.27972656,44.0533594 C4.57183594,44.0533594 5.62242188,43.0027734 5.62242188,41.7107812 C5.62242188,41.4517969 5.83207031,41.2422656 6.0909375,41.2422656 C6.34992187,41.2422656 6.55957031,41.4517969 6.55957031,41.7107812 C6.55957031,43.5188672 5.08804687,44.9903906 3.27972656,44.9903906" id="Fill-26"></path>
                                <path d="M3.27972656,44.9903906 C1.47140625,44.9903906 0,43.5188672 0,41.7107812 C0,41.4517969 0.20953125,41.2422656 0.468515625,41.2422656 C0.7275,41.2422656 0.93703125,41.4517969 0.93703125,41.7107812 C0.93703125,43.0027734 1.98761719,44.0533594 3.27972656,44.0533594 C3.53871094,44.0533594 3.74824219,44.2630078 3.74824219,44.521875 C3.74835938,44.7809766 3.53871094,44.9903906 3.27972656,44.9903906" id="Fill-28"></path>
                                <path d="M0.468515625,42.1792969 C0.20953125,42.1792969 0,41.9697656 0,41.7107813 L0,3.29074219 C0,3.03175781 0.20953125,2.82222656 0.468515625,2.82222656 C0.7275,2.82222656 0.93703125,3.03175781 0.93703125,3.29074219 L0.93703125,41.7107813 C0.93703125,41.9697656 0.7275,42.1792969 0.468515625,42.1792969" id="Fill-29"></path>
                                <path d="M4.216875,42.1792969 C3.95789063,42.1792969 3.74835938,41.9697656 3.74835938,41.7107812 L3.74835938,1.41667969 C3.74835938,1.15769531 3.95789063,0.948164063 4.216875,0.948164063 C4.47585938,0.948164063 4.68539063,1.15769531 4.68539063,1.41667969 L4.68539063,41.7107812 C4.68539063,41.9697656 4.47585938,42.1792969 4.216875,42.1792969" id="Fill-31"></path>
                                <path d="M2.34269531,42.1792969 C2.08382813,42.1792969 1.87417969,41.9697656 1.87417969,41.7107813 L1.87417969,2.35371094 C1.87417969,2.09472656 2.08382813,1.88519531 2.34269531,1.88519531 C2.60167969,1.88519531 2.81132813,2.09472656 2.81132813,2.35371094 L2.81132813,41.7107813 C2.81121094,41.9697656 2.60167969,42.1792969 2.34269531,42.1792969" id="Fill-32"></path>
                                <path d="M3.27972656,43.1163281 C3.02074219,43.1163281 2.81121094,42.9067969 2.81121094,42.6478125 C2.81121094,42.3888281 3.02074219,42.1792969 3.27972656,42.1792969 C3.53777344,42.1792969 3.74824219,41.9688281 3.74824219,41.7107812 C3.74824219,41.4517969 3.95777344,41.2422656 4.21675781,41.2422656 C4.47574219,41.2422656 4.68527344,41.4517969 4.68527344,41.7107812 C4.68539062,42.4857422 4.05492187,43.1163281 3.27972656,43.1163281" id="Fill-33"></path>
                                <path d="M3.27972656,43.1163281 C2.50464844,43.1163281 1.8740625,42.4857422 1.8740625,41.7107812 C1.8740625,41.4517969 2.08371094,41.2422656 2.34257813,41.2422656 C2.6015625,41.2422656 2.81121094,41.4517969 2.81121094,41.7107812 C2.81121094,41.9688281 3.02167969,42.1792969 3.27972656,42.1792969 C3.53871094,42.1792969 3.74824219,42.3888281 3.74824219,42.6478125 C3.74824219,42.9067969 3.53871094,43.1163281 3.27972656,43.1163281" id="Fill-34"></path>
                                <path d="M29.6055469,44.9903906 L3.27972656,44.9903906 C3.02074219,44.9903906 2.81121094,44.7809766 2.81121094,44.521875 C2.81121094,44.2630078 3.02074219,44.0533594 3.27972656,44.0533594 L29.6055469,44.0533594 C29.8645312,44.0533594 30.0741797,44.2630078 30.0741797,44.521875 C30.0741797,44.7809766 29.8645312,44.9903906 29.6055469,44.9903906" id="Fill-35"></path>
                                <path d="M59.5040625,0.948164063 L6.0909375,0.948164063 C5.83207031,0.948164063 5.62242188,0.738515625 5.62242188,0.479648438 C5.62242188,0.220664062 5.83207031,0.011015625 6.0909375,0.011015625 L59.5040625,0.011015625 C59.7630469,0.011015625 59.9725781,0.220664062 59.9725781,0.479648438 C59.9725781,0.738515625 59.7630469,0.948164063 59.5040625,0.948164063" id="Fill-36"></path>
                                <path d="M12.181875,9.38179687 L55.2871875,9.38179687 L55.2871875,4.69640625 L12.181875,4.69640625 L12.181875,9.38179687 Z M55.7557031,10.3188281 L11.7133594,10.3188281 C11.454375,10.3188281 11.2448437,10.1092969 11.2448437,9.8503125 L11.2448437,4.22789062 C11.2448437,3.96890625 11.454375,3.75925781 11.7133594,3.75925781 L55.7557031,3.75925781 C56.0146875,3.75925781 56.2242187,3.96890625 56.2242187,4.22789062 L56.2242187,9.8503125 C56.2242187,10.1092969 56.0146875,10.3188281 55.7557031,10.3188281 L55.7557031,10.3188281 Z" id="Fill-37"></path>
                                <path d="M52.9444922,7.50761719 L14.5245703,7.50761719 C14.2655859,7.50761719 14.0560547,7.29808594 14.0560547,7.03910156 C14.0560547,6.78011719 14.2655859,6.57058594 14.5245703,6.57058594 L52.9444922,6.57058594 C53.2034766,6.57058594 53.4130078,6.78011719 53.4130078,7.03910156 C53.4130078,7.29808594 53.2034766,7.50761719 52.9444922,7.50761719" id="Fill-38"></path>
                                <path d="M53.8815234,44.9903906 L45.4478906,44.9903906 C45.1889062,44.9903906 44.979375,44.7809766 44.979375,44.521875 C44.979375,44.2630078 45.1889062,44.0533594 45.4478906,44.0533594 L53.8815234,44.0533594 C54.140625,44.0533594 54.3500391,44.2630078 54.3500391,44.521875 C54.3500391,44.7809766 54.140625,44.9903906 53.8815234,44.9903906" id="Fill-39"></path>
                                <path d="M12.181875,21.5636719 L24.3638672,21.5636719 L24.3638672,14.0670703 L12.181875,14.0670703 L12.181875,21.5636719 Z M24.8325,22.5007031 L11.7133594,22.5007031 C11.454375,22.5007031 11.2448437,22.2911719 11.2448437,22.0321875 L11.2448437,13.5985547 C11.2448437,13.3395703 11.454375,13.1300391 11.7133594,13.1300391 L24.8323828,13.1300391 C25.09125,13.1300391 25.3008984,13.3395703 25.3008984,13.5985547 L25.3008984,22.0321875 C25.3010156,22.2911719 25.0913672,22.5007031 24.8325,22.5007031 L24.8325,22.5007031 Z" id="Fill-40"></path>
                                <path d="M17.3358984,21.5636719 C17.2379297,21.5636719 17.1391406,21.5329688 17.055,21.4699219 C16.8481641,21.3147656 16.8060937,21.0209766 16.9606641,20.8141406 L19.771875,17.0658984 C19.9283203,16.8582422 20.2230469,16.8179297 20.4280078,16.9721484 C20.6348437,17.1271875 20.6769141,17.4209766 20.5223437,17.6278125 L17.7111328,21.3760547 C17.6185547,21.4991016 17.4776953,21.5636719 17.3358984,21.5636719" id="Fill-41"></path>
                                <path d="M22.9582031,21.5636719 C22.8164063,21.5636719 22.6754297,21.4991016 22.5830859,21.3760547 L19.771875,17.6278125 C19.6171875,17.4209766 19.6592578,17.1273047 19.8660938,16.9721484 C20.0719922,16.8174609 20.3657813,16.8576562 20.5222266,17.0658984 L23.3334375,20.8141406 C23.4880078,21.0209766 23.4459375,21.3146484 23.2391016,21.4699219 C23.1549609,21.5329688 23.0561719,21.5636719 22.9582031,21.5636719" id="Fill-42"></path>
                                <path d="M14.5246875,21.5636719 C14.4349219,21.5636719 14.3443359,21.5380078 14.2647656,21.4849219 C14.0497266,21.34125 13.9911328,21.0507422 14.1348047,20.8352344 L16.0089844,18.0240234 C16.1534766,17.8085156 16.4445703,17.7513281 16.6586719,17.8941797 C16.8737109,18.0378516 16.9323047,18.3283594 16.7886328,18.5438672 L14.9144531,21.3550781 C14.8238672,21.4904297 14.675625,21.5636719 14.5246875,21.5636719" id="Fill-43"></path>
                                <path d="M17.0228906,19.6896094 C16.8718359,19.6896094 16.7235937,19.6163672 16.6330078,19.4810156 L16.0088672,18.5438672 C15.8651953,18.3283594 15.9236719,18.0373828 16.1388281,17.8941797 C16.3519922,17.7503906 16.6440234,17.8086328 16.7885156,18.0240234 L17.4125391,18.9611719 C17.5563281,19.1766797 17.4977344,19.4676562 17.2826953,19.6108594 C17.203125,19.6639453 17.1125391,19.6896094 17.0228906,19.6896094" id="Fill-44"></path>
                                <path d="M14.5246875,15.94125 C14.2666406,15.94125 14.0561719,16.15125 14.0561719,16.4097656 C14.0561719,16.6682812 14.2666406,16.8782813 14.5246875,16.8782813 C14.7827344,16.8782813 14.9932031,16.6682812 14.9932031,16.4097656 C14.9932031,16.15125 14.7827344,15.94125 14.5246875,15.94125 Z M14.5246875,17.8154297 C13.7496094,17.8154297 13.1190234,17.1849609 13.1190234,16.4098828 C13.1190234,15.6348047 13.7494922,15.0042187 14.5246875,15.0042187 C15.2998828,15.0042187 15.9302344,15.6348047 15.9302344,16.4098828 C15.9302344,17.1849609 15.2997656,17.8154297 14.5246875,17.8154297 L14.5246875,17.8154297 Z" id="Fill-45"></path>
                                <path d="M39.8255859,14.0670703 L27.6435938,14.0670703 C27.3846094,14.0670703 27.1749609,13.8575391 27.1749609,13.5985547 C27.1749609,13.3395703 27.3846094,13.1300391 27.6435938,13.1300391 L39.8255859,13.1300391 C40.0845703,13.1300391 40.2941016,13.3395703 40.2941016,13.5985547 C40.2941016,13.8575391 40.0845703,14.0670703 39.8255859,14.0670703" id="Fill-46"></path>
                                <path d="M39.8255859,16.8782813 L27.6435938,16.8782813 C27.3846094,16.8782813 27.1749609,16.66875 27.1749609,16.4097656 C27.1749609,16.1507813 27.3846094,15.94125 27.6435938,15.94125 L39.8255859,15.94125 C40.0845703,15.94125 40.2941016,16.1507813 40.2941016,16.4097656 C40.2941016,16.66875 40.0845703,16.8782813 39.8255859,16.8782813" id="Fill-47"></path>
                                <path d="M39.8255859,19.6896094 L27.6435938,19.6896094 C27.3846094,19.6896094 27.1749609,19.4800781 27.1749609,19.2210937 C27.1749609,18.9621094 27.3846094,18.7524609 27.6435938,18.7524609 L39.8255859,18.7524609 C40.0845703,18.7524609 40.2941016,18.9621094 40.2941016,19.2210937 C40.2941016,19.4800781 40.0845703,19.6896094 39.8255859,19.6896094" id="Fill-48"></path>
                                <path d="M39.8255859,22.5007031 L27.6435938,22.5007031 C27.3846094,22.5007031 27.1749609,22.2911719 27.1749609,22.0321875 C27.1749609,21.7732031 27.3846094,21.5636719 27.6435938,21.5636719 L39.8255859,21.5636719 C40.0845703,21.5636719 40.2941016,21.7732031 40.2941016,22.0321875 C40.2941016,22.2911719 40.0845703,22.5007031 39.8255859,22.5007031" id="Fill-49"></path>
                                <path d="M39.8255859,25.3119141 L27.6435938,25.3119141 C27.3846094,25.3119141 27.1749609,25.1023828 27.1749609,24.8433984 C27.1749609,24.5844141 27.3846094,24.3748828 27.6435938,24.3748828 L39.8255859,24.3748828 C40.0845703,24.3748828 40.2941016,24.5844141 40.2941016,24.8433984 C40.2941016,25.1023828 40.0845703,25.3119141 39.8255859,25.3119141" id="Fill-50"></path>
                                <path d="M29.5177734,28.1232422 L27.6435938,28.1232422 C27.3846094,28.1232422 27.1749609,27.9137109 27.1749609,27.6547266 C27.1749609,27.3957422 27.3846094,27.1862109 27.6435938,27.1862109 L29.5177734,27.1862109 C29.7767578,27.1862109 29.9862891,27.3957422 29.9862891,27.6547266 C29.9862891,27.9137109 29.7767578,28.1232422 29.5177734,28.1232422" id="Fill-51"></path>
                                <path d="M24.8763281,25.3119141 L11.7573047,25.3119141 C11.4983203,25.3119141 11.2887891,25.1023828 11.2887891,24.8433984 C11.2887891,24.5844141 11.4983203,24.3748828 11.7573047,24.3748828 L24.8763281,24.3748828 C25.1353125,24.3748828 25.3448437,24.5844141 25.3448437,24.8433984 C25.3448437,25.1023828 25.1353125,25.3119141 24.8763281,25.3119141" id="Fill-52"></path>
                                <path d="M23.0021484,36.5567578 L11.7573047,36.5567578 C11.4983203,36.5567578 11.2887891,36.3472266 11.2887891,36.0882422 C11.2887891,35.8292578 11.4983203,35.6197266 11.7573047,35.6197266 L23.0021484,35.6197266 C23.2611328,35.6197266 23.4706641,35.8292578 23.4706641,36.0882422 C23.4706641,36.3472266 23.2611328,36.5567578 23.0021484,36.5567578" id="Fill-53"></path>
                                <path d="M23.9391797,39.3680859 L11.7573047,39.3680859 C11.4983203,39.3680859 11.2887891,39.1585547 11.2887891,38.8995703 C11.2887891,38.6405859 11.4983203,38.4310547 11.7573047,38.4310547 L23.9391797,38.4310547 C24.1981641,38.4310547 24.4076953,38.6405859 24.4076953,38.8995703 C24.4076953,39.1585547 24.1981641,39.3680859 23.9391797,39.3680859" id="Fill-54"></path>
                                <path d="M24.8763281,42.1792969 L11.7573047,42.1792969 C11.4983203,42.1792969 11.2887891,41.9697656 11.2887891,41.7107812 C11.2887891,41.4517969 11.4983203,41.2422656 11.7573047,41.2422656 L24.8763281,41.2422656 C25.1353125,41.2422656 25.3448437,41.4517969 25.3448437,41.7107812 C25.3448437,41.9697656 25.1353125,42.1792969 24.8763281,42.1792969" id="Fill-55"></path>
                                <path d="M24.8763281,28.1232422 L11.7573047,28.1232422 C11.4983203,28.1232422 11.2887891,27.9137109 11.2887891,27.6547266 C11.2887891,27.3957422 11.4983203,27.1862109 11.7573047,27.1862109 L24.8763281,27.1862109 C25.1353125,27.1862109 25.3448437,27.3957422 25.3448437,27.6547266 C25.3448437,27.9137109 25.1353125,28.1232422 24.8763281,28.1232422" id="Fill-56"></path>
                                <path d="M23.9391797,30.9344531 L11.7573047,30.9344531 C11.4983203,30.9344531 11.2887891,30.7249219 11.2887891,30.4659375 C11.2887891,30.2069531 11.4983203,29.9973047 11.7573047,29.9973047 L23.9391797,29.9973047 C24.1981641,29.9973047 24.4076953,30.2069531 24.4076953,30.4659375 C24.4076953,30.7249219 24.1981641,30.9344531 23.9391797,30.9344531" id="Fill-57"></path>
                                <path d="M23.0021484,33.7456641 L11.7573047,33.7456641 C11.4983203,33.7456641 11.2887891,33.5360156 11.2887891,33.2771484 C11.2887891,33.0180469 11.4983203,32.8085156 11.7573047,32.8085156 L23.0021484,32.8085156 C23.2611328,32.8085156 23.4706641,33.0180469 23.4706641,33.2771484 C23.4706641,33.5360156 23.2611328,33.7456641 23.0021484,33.7456641" id="Fill-58"></path>
                                <path d="M55.7557031,14.0670703 L42.6367969,14.0670703 C42.3776953,14.0670703 42.1681641,13.8575391 42.1681641,13.5985547 C42.1681641,13.3395703 42.3776953,13.1300391 42.6367969,13.1300391 L55.7557031,13.1300391 C56.0146875,13.1300391 56.2242188,13.3395703 56.2242188,13.5985547 C56.2242188,13.8575391 56.0146875,14.0670703 55.7557031,14.0670703" id="Fill-59"></path>
                                <path d="M55.7557031,16.8782813 L42.6367969,16.8782813 C42.3776953,16.8782813 42.1681641,16.66875 42.1681641,16.4097656 C42.1681641,16.1507813 42.3776953,15.94125 42.6367969,15.94125 L55.7557031,15.94125 C56.0146875,15.94125 56.2242188,16.1507813 56.2242188,16.4097656 C56.2242188,16.66875 56.0146875,16.8782813 55.7557031,16.8782813" id="Fill-60"></path>
                                <path d="M51.0704297,19.6896094 L42.6367969,19.6896094 C42.3776953,19.6896094 42.1681641,19.4800781 42.1681641,19.2210937 C42.1681641,18.9621094 42.3776953,18.7524609 42.6367969,18.7524609 L51.0704297,18.7524609 C51.3294141,18.7524609 51.5389453,18.9621094 51.5389453,19.2210937 C51.5389453,19.4800781 51.3294141,19.6896094 51.0704297,19.6896094" id="Fill-61"></path>
                                <path d="M48.2592188,22.5007031 L42.6367969,22.5007031 C42.3776953,22.5007031 42.1681641,22.2911719 42.1681641,22.0321875 C42.1681641,21.7732031 42.3776953,21.5636719 42.6367969,21.5636719 L48.2592188,21.5636719 C48.5182031,21.5636719 48.7277344,21.7732031 48.7277344,22.0321875 C48.7277344,22.2911719 48.5182031,22.5007031 48.2592188,22.5007031" id="Fill-62"></path>
                                <path d="M43.5738281,25.3119141 L42.6367969,25.3119141 C42.3776953,25.3119141 42.1681641,25.1023828 42.1681641,24.8433984 C42.1681641,24.5844141 42.3776953,24.3748828 42.6367969,24.3748828 L43.5738281,24.3748828 C43.8328125,24.3748828 44.0423438,24.5844141 44.0423438,24.8433984 C44.0423438,25.1023828 43.8328125,25.3119141 43.5738281,25.3119141" id="Fill-63"></path>
                            </g>
                        </g>
                    </g>
                </g>
            </g>
        </g>
    </g>
</svg>