<?xml version="1.0" encoding="UTF-8"?>
<svg width="60px" height="60px" viewBox="0 0 60 60" version="1.1" xmlns="http://www.w3.org/2000/svg" xmlns:xlink="http://www.w3.org/1999/xlink">
    <!-- Generator: Sketch 48.2 (47327) - http://www.bohemiancoding.com/sketch -->
    <title>footprints</title>
    <desc>Created with Sketch.</desc>
    <defs>
        <path d="M51.6417187,36.6445312 C47.8645312,40.4217187 42.8422266,42.5034375 37.4995312,42.5034375 C36.856875,42.5034375 36.2196094,42.4705078 35.5898437,42.4119141 C36.0751172,41.7016406 36.3660937,40.8008203 36.4448437,39.7351172 C36.5547656,38.2263281 36.1939453,36.85875 36.1792969,36.8020312 C36,36.1354688 35.3151562,35.7400781 34.6487109,35.9176172 L27.9492187,37.7138672 C27.6288281,37.798125 27.3560156,38.0066016 27.189375,38.2959375 C27.0246094,38.5816406 26.9787891,38.9221875 27.0649219,39.2444531 C27.0704297,39.2591016 27.1107422,39.4129687 27.193125,39.6509766 C25.8144141,38.8196484 24.5254687,37.8127734 23.3573437,36.6446484 C19.5801562,32.8674609 17.5001953,27.8451562 17.5001953,22.5033984 C17.5001953,17.1616406 19.5801562,12.1393359 23.3573437,8.36109375 C27.1364062,4.58390625 32.1587109,2.50394531 37.4995312,2.50394531 C40.3521094,2.50394531 43.1114062,3.09714844 45.6399609,4.22414062 C44.9094141,4.70390625 44.1933984,5.38136719 43.5105469,6.24738281 C42.1757812,7.93839844 41.0698828,10.2553125 40.3960547,12.7720312 C39.7113281,15.3298828 39.4458984,18.7400391 39.7662891,20.8812891 C39.8395312,21.3737109 40.1983594,21.7747266 40.6798828,21.9038672 L47.3773828,23.6990625 C47.4854297,23.7274219 47.5934766,23.7411328 47.7015234,23.7411328 C48.076875,23.7411328 48.4394531,23.5717969 48.6793359,23.2696875 C50.0288672,21.5751562 51.504375,18.4900781 52.1892187,15.9322266 C52.7696484,13.7680078 52.9967578,11.6067187 52.8575391,9.69152344 C55.8621094,13.2810937 57.4989844,17.7658594 57.4989844,22.5035156 C57.4989844,27.8450391 55.4189062,32.8672266 51.6417187,36.6445312 Z M29.9414062,39.7680469 L33.9512109,38.6913281 C33.9694922,38.9622656 33.9732422,39.2552344 33.9512109,39.5519531 C33.8230078,41.29875 32.9258203,41.5386328 32.5889063,41.6283984 C32.4186328,41.6759766 32.2539844,41.6980078 32.1001172,41.6980078 C31.1407031,41.6980078 30.3955078,40.6835156 29.9414062,39.7680469 Z M19.0307813,41.8515234 L18.1464844,40.9673437 L21.1528125,37.9627734 C21.2956641,38.1126562 21.4421484,38.2628906 21.5903906,38.4130078 C21.736875,38.5594922 21.8852344,38.7023437 22.0352344,38.8451953 L19.0307813,41.8515234 Z M6.76898438,56.7664453 C6.29660156,57.2388281 5.66859375,57.4988672 5.00027344,57.4988672 C4.33371094,57.4988672 3.70582031,57.2388281 3.2334375,56.7683203 C2.76105469,56.2961719 2.50101563,55.6680469 2.50101563,55.0016016 C2.50101563,54.3314062 2.76105469,53.7052734 3.2334375,53.2327734 L15.0540234,41.4105469 L18.5895703,44.9460937 L6.76898438,56.7664453 Z M49.7742187,15.2857031 C49.2578906,17.2127344 48.2068359,19.5389062 47.1943359,21.0614062 L42.1575,19.7110547 C42.0403125,17.8865625 42.2948437,15.3471094 42.8110547,13.4191406 C43.3988672,11.2229297 44.3435156,9.22535156 45.4733203,7.79542969 C46.4217187,6.5915625 47.4580078,5.87296875 48.2435156,5.87296875 C48.3496875,5.87296875 48.4541016,5.88667969 48.5530078,5.91328125 C50.0085937,6.30304687 51.1747266,10.0564453 49.7742187,15.2857031 Z M53.4086719,6.59320312 C57.6582422,10.8428906 60,16.4932031 60,22.5032813 C60,28.5133594 57.6582422,34.1617969 53.4086719,38.4130078 C49.1589844,42.6608203 43.5086719,45.0026953 37.4995312,45.0026953 C32.5430859,45.0026953 27.8321484,43.4078906 23.9486719,40.4674219 L20.7976172,43.6184766 L21.2407031,44.0634375 C21.4750781,44.2978125 21.6069141,44.6145703 21.6069141,44.9459766 C21.6069141,45.2773828 21.4750781,45.5957813 21.2407031,45.8301562 L8.53582031,58.5351562 C7.59105469,59.4799219 6.33679688,60 5.00027344,60 C3.66550781,60 2.40949219,59.4799219 1.46472656,58.5351562 C0.519960938,57.5903906 0,56.3344922 0,55.0014844 C0,53.6648437 0.519960938,52.4089453 1.46472656,51.4641797 L14.1716016,38.7590625 C14.4059766,38.5246875 14.7227344,38.3928516 15.0541406,38.3928516 C15.3855469,38.3928516 15.7040625,38.5246875 15.9384375,38.7590625 L16.3778906,39.2003906 L19.5307031,36.0475781 C16.5919922,32.1659766 15.0009375,27.4569141 15.0009375,22.5032813 C15.0009375,16.4930859 17.3409375,10.8428906 21.5905078,6.59320312 C25.8400781,2.3446875 31.4903906,0.00375 37.4995312,0.00375 C43.5105469,0.00375 49.1589844,2.34363281 53.4086719,6.59320312 Z M32.8470703,32.5175391 L27.8083594,33.8688281 C26.7958594,32.3453906 25.7467969,30.0192187 25.2285938,28.0921875 C23.8279688,22.8630469 24.9960938,19.1096484 26.4498047,18.7196484 C26.5504688,18.6930469 26.65125,18.6802734 26.7591797,18.6802734 C27.5446875,18.6802734 28.5809766,19.3988672 29.53125,20.6027344 C30.6591797,22.0326562 31.6039453,24.0292969 32.1935156,26.2264453 C32.7097266,28.1535937 32.9642578,30.6928125 32.8470703,32.5175391 Z M31.4940234,19.05375 C30.0110156,17.1733594 28.3741406,16.1800781 26.7591797,16.1800781 C26.4351562,16.1800781 26.1128906,16.2221484 25.8033984,16.3054688 C24.0639844,16.7715234 22.8336328,18.4348828 22.3410937,20.9891016 C21.9071484,23.2310156 22.0755469,25.9829297 22.8153516,28.7394141 C23.5000781,31.2962109 24.9758203,34.3814063 26.3234766,36.076875 C26.5651172,36.3771094 26.9276953,36.5475 27.3030469,36.5475 C27.4092187,36.5475 27.5191406,36.5347266 27.6253125,36.5054297 L34.3246875,34.7110547 C34.8044531,34.5810938 35.1631641,34.1803125 35.2364062,33.6877734 C35.5586719,31.5464063 35.293125,28.1363672 34.6085156,25.5794531 C33.9329297,23.0615625 32.8269141,20.7446484 31.4940234,19.05375 Z M42.9044531,28.8912891 C42.7507031,28.8912891 42.5859375,28.8675 42.4156641,28.8216797 C42.0823828,28.7328516 41.1979687,28.4958984 41.0569922,26.7938672 C41.0295703,26.4799219 41.0349609,26.1696094 41.0533594,25.8857812 L45.0595312,26.9595703 C44.6310937,27.8385937 43.9059375,28.8912891 42.9044531,28.8912891 Z M47.0552344,24.9053906 L40.3557422,23.1110156 C40.0353516,23.025 39.6948047,23.0697656 39.4073437,23.2354687 C39.1198828,23.4011719 38.9111719,23.6739844 38.8251562,23.9944922 C38.8086328,24.0521484 38.4479297,25.4198437 38.5596094,26.9285156 C38.724375,29.1970312 39.8649609,30.7266797 41.7673828,31.2366797 C42.1501172,31.3392187 42.5327344,31.3913672 42.9043359,31.3913672 C44.0083594,31.3913672 45.5995312,30.9372656 46.9158984,28.7767969 C47.6133984,27.6297656 47.9246484,26.4844922 47.9375391,26.4369141 C48.1171875,25.7696484 47.7216797,25.0848047 47.0552344,24.9053906 Z" id="path-1"></path>
    </defs>
    <g id="Home-2" stroke="none" stroke-width="1" fill="none" fill-rule="evenodd" transform="translate(-845.000000, -1392.000000)" opacity="0.7">
        <g id="services" transform="translate(219.000000, 741.000000)">
            <g id="content" transform="translate(0.000000, 154.000000)">
                <g id="row-4" transform="translate(0.000000, 497.000000)">
                    <g id="Opposition-Research" transform="translate(626.000000, 0.000000)">
                        <g id="icon-/-footprints">
                            <mask id="mask-2" fill="white">
                                <use xlink:href="#path-1"></use>
                            </mask>
                            <use id="Combined-Shape" fill="#B793DA" fill-rule="evenodd" xlink:href="#path-1"></use>
                            <g id="color/secondary-/-gold" mask="url(#mask-2)" fill="#C7BE7E" fill-rule="evenodd">
                                <rect id="purple" x="0" y="0" width="60" height="60"></rect>
                            </g>
                        </g>
                    </g>
                </g>
            </g>
        </g>
    </g>
</svg>