<?xml version="1.0" encoding="UTF-8"?>
<svg width="18px" height="16px" viewBox="0 0 18 16" version="1.1" xmlns="http://www.w3.org/2000/svg" xmlns:xlink="http://www.w3.org/1999/xlink">
    <!-- Generator: Sketch 48.2 (47327) - http://www.bohemiancoding.com/sketch -->
    <title>icon / pencil</title>
    <desc>Created with Sketch.</desc>
    <defs>
        <path d="M11.5519728,3.96597347 C11.1167182,3.57598204 10.4110231,3.57598204 9.97576847,3.96597347 L4.06533053,9.25992913 L4.06656683,9.26096616 L3.89271224,9.41707335 C3.89271224,9.41707335 3.33854107,9.91671314 2.08686528,13.531998 C2.07805665,13.5570941 2.06932529,13.5821901 2.06059392,13.6078393 C2.03826327,13.6726881 2.01562353,13.7385739 1.9929838,13.8052893 C1.9727394,13.8641233 1.95218593,13.9244092 1.93201879,13.9849024 C1.9144788,14.0359242 1.89755695,14.0863929 1.88009422,14.1385208 C1.84022357,14.2570876 1.80012111,14.377521 1.75901416,14.5017569 C1.66907338,14.7747716 1.44939845,15.3905585 1.69804915,15.6135885 C1.93711853,15.8283223 2.63253689,15.6392377 2.93682106,15.5584878 C3.0747457,15.5220536 3.20842057,15.4861033 3.3397001,15.4507752 C3.4004333,15.4342519 3.45923479,15.4183508 3.51873169,15.4021732 C3.58240111,15.3846129 3.64576145,15.3676056 3.70796276,15.3503218 C3.78646776,15.3286825 3.86373647,15.3075963 3.93976888,15.2863027 C3.96240861,15.2800805 3.98473927,15.2738583 4.00706992,15.2676362 C7.85149718,14.1965943 8.54181581,13.6937743 8.59914919,13.6478685 C8.59945826,13.647592 8.59945826,13.647592 8.59976734,13.6473155 C8.60216267,13.6453797 8.60393985,13.6440661 8.60393985,13.6440661 L8.78173514,13.484433 L8.79378906,13.4950107 L14.3103884,8.55399002 L14.7043043,8.2009859 C15.1394816,7.81134015 15.1394816,7.17909912 14.7043043,6.78938423 L11.5519728,3.96597347 Z M7.96925469,13.0056029 C7.96438676,13.0085757 7.95774165,13.0123782 7.95078747,13.0164571 C7.94684676,13.0186003 7.94236518,13.0210201 7.93780632,13.0237163 C7.93332474,13.0264126 7.92814773,13.0291089 7.92273892,13.0320817 C7.917871,13.0345014 7.91308034,13.0371977 7.90767153,13.0401705 C7.72415835,13.1384807 7.18567273,13.3920685 5.87844074,13.8155213 C5.72568051,13.8649529 5.55939825,13.9173574 5.38492551,13.9713519 L3.52684491,12.3069921 C3.58757811,12.1500553 3.64607052,11.9999629 3.70162672,11.8624531 C4.17366126,10.687985 4.45685107,10.2045919 4.56610902,10.0406725 C4.56881342,10.0365935 4.57120875,10.0330676 4.57360408,10.0296109 C4.57754479,10.0239418 4.58117642,10.0184801 4.58449897,10.0136406 C4.5868943,10.0098382 4.58990778,10.0061049 4.5920713,10.0028556 C4.59655289,9.99663339 4.60080267,9.99068776 4.60412522,9.98640138 L4.74019542,9.86430869 L8.10802928,12.8808831 L7.96925469,13.0056029 Z M17.8565584,3.96597347 L14.7043043,1.14249357 C14.2690496,0.752502142 13.5633545,0.752502142 13.1280999,1.14249357 L12.3400364,1.84815614 C11.9047817,2.23807844 11.9047817,2.87004293 12.3400364,3.26003436 L15.4923678,6.08344512 C15.9276224,6.47316001 16.6332403,6.47316001 17.0684949,6.08344512 L17.8565584,5.37757514 C18.2918131,4.98758371 18.2918131,4.35561922 17.8565584,3.96597347 Z" id="path-1"></path>
    </defs>
    <g id="Order-Flow-1" stroke="none" stroke-width="1" fill="none" fill-rule="evenodd" transform="translate(-383.000000, -241.000000)">
        <g id="progress-tracker" transform="translate(-2.000000, 223.000000)">
            <g id="Group" transform="translate(325.000000, 0.000000)">
                <g id="icon-/-pencil" transform="translate(59.000000, 18.000000)">
                    <mask id="mask-2" fill="white">
                        <use xlink:href="#path-1"></use>
                    </mask>
                    <use id="Combined-Shape" fill="#B793DA" fill-rule="nonzero" xlink:href="#path-1"></use>
                    <g id="color/secondary-/-white" mask="url(#mask-2)" fill="#FFFFFF" fill-rule="evenodd">
                        <g transform="translate(0.316667, 0.000000)" id="white">
                            <rect x="0" y="0" width="19" height="17"></rect>
                        </g>
                    </g>
                </g>
            </g>
        </g>
    </g>
</svg>