<?xml version="1.0" encoding="UTF-8"?>
<svg width="59px" height="60px" viewBox="0 0 59 60" version="1.1" xmlns="http://www.w3.org/2000/svg" xmlns:xlink="http://www.w3.org/1999/xlink">
    <!-- Generator: Sketch 48.2 (47327) - http://www.bohemiancoding.com/sketch -->
    <title>Personal Research</title>
    <desc>Created with Sketch.</desc>
    <defs>
        <path d="M25.7304912,45.3639293 C19.4518016,39.0884853 19.4491356,28.911391 25.7245796,22.6328173 C32.0000236,16.3541277 42.1771179,16.3514617 48.4556916,22.6269057 C54.7343811,28.9022338 54.7370472,39.0793281 48.4616031,45.3580177 C48.4596326,45.3599882 48.4576621,45.3619587 48.4556916,45.3639293 C42.1793202,51.637055 32.0068625,51.637055 25.7304912,45.3639293 Z M49.4571847,47.7502417 L58.9281336,57.2334774 L57.1847937,58.9768173 L47.5036935,49.2957171 C40.0561316,54.3531415 30.0617171,53.384336 23.7241434,46.9905442 C16.4557839,39.6577367 16.5080609,27.8211081 23.8408684,20.5527485 C31.1736758,13.284389 43.0103045,13.336666 50.278664,20.6694735 C57.5470236,28.0022809 57.4947466,39.8389096 50.1619391,47.1072692 C49.9393851,47.3422259 49.6921415,47.5399745 49.4571847,47.7502417 Z M48.2208507,33.8282122 C48.2179528,37.4896896 46.3551061,40.8988232 43.275167,42.8787426 L43.275167,40.727387 C43.3809961,38.839387 41.9472613,37.2181041 40.0605363,37.0923379 L34.1257623,37.0923379 C32.2390373,37.2181041 30.8051866,38.839387 30.9110157,40.727387 L30.9110157,45.7472554 L33.3839155,45.7472554 L33.3839155,40.727387 C33.3839155,40.059725 33.7795285,39.5651218 34.1257623,39.5651218 L40.0605363,39.5651218 C40.4066542,39.5651218 40.8023831,40.059725 40.8023831,40.727387 L40.8023831,44.0532947 C39.7214892,44.4114676 38.5904047,44.5950747 37.4516699,44.5973929 L37.4516699,47.0701768 C39.4352986,47.0668153 41.3923831,46.6145206 43.1762927,45.7472554 L43.275167,45.7472554 C47.8098212,43.5234538 50.6865639,38.91589 50.6936346,33.8653045 L48.2208507,33.8282122 Z M37.0931493,28.4374204 C38.4588428,28.4374204 39.5659332,29.5446267 39.5659332,30.9103202 C39.5659332,32.2760138 38.4588428,33.3831041 37.0931493,33.3831041 C35.7274558,33.3831041 34.6202495,32.2760138 34.6202495,30.9103202 C34.6202495,29.5446267 35.7274558,28.4374204 37.0931493,28.4374204 Z M37.0931493,35.855888 C39.8245363,35.855888 42.0387171,33.6417073 42.0387171,30.9103202 C42.0387171,28.1789332 39.8245363,25.9646365 37.0931493,25.9646365 C34.3617623,25.9646365 32.1474656,28.1789332 32.1474656,30.9103202 C32.1474656,33.6417073 34.3617623,35.855888 37.0931493,35.855888 Z M42.0387171,55.6385069 L42.0387171,54.402057 L44.5116169,54.402057 L44.5116169,55.6385069 C44.5116169,57.6870472 42.8509234,59.3477407 40.8023831,59.3477407 L3.71004519,59.3477407 C1.661389,59.3477407 0.000811394892,57.6870472 0.000811394892,55.6385069 L0.000811394892,13.6004853 C-0.011475442,13.2529764 0.123100196,12.9163635 0.371734774,12.6731768 L12.7357701,0.309141454 C12.8397446,0.206094303 12.9611061,0.122404715 13.0944067,0.0617819253 L13.2056837,0.0617819253 C13.3095422,0.0270078585 13.4176896,0.00625933202 13.527112,0 L40.8023831,0 C42.8509234,0 44.5116169,1.66069352 44.5116169,3.70923379 L44.5116169,13.6004853 L42.0387171,13.6004853 L42.0387171,3.70923379 C42.0387171,3.02638703 41.4852299,2.47278389 40.8023831,2.47278389 L14.8377466,2.47278389 L14.8377466,11.1277014 C14.8377466,13.1762417 13.177053,14.8369352 11.1285128,14.8369352 L7.41927898,14.8369352 L7.41927898,12.3641513 L11.1285128,12.3641513 C11.8113595,12.3641513 12.3648468,11.8105481 12.3648468,11.1277014 L12.3648468,4.21612377 L2.47359528,14.1074912 L2.47359528,55.6385069 C2.47359528,56.3213536 3.02719843,56.8749568 3.71004519,56.8749568 L40.8023831,56.8749568 C41.4852299,56.8749568 42.0387171,56.3213536 42.0387171,55.6385069 Z M4.94637917,53.165723 L4.94637917,48.2200393 L7.41927898,48.2200393 L7.41927898,51.9292731 L11.1285128,51.9292731 L11.1285128,54.402057 L6.18282908,54.402057 C5.49998232,54.402057 4.94637917,53.8485697 4.94637917,53.165723 Z M4.94637917,45.7472554 L4.94637917,43.2743556 L7.41916306,43.2743556 L7.41916306,45.7472554 L4.94637917,45.7472554 Z" id="path-1"></path>
    </defs>
    <g id="Home-2" stroke="none" stroke-width="1" fill="none" fill-rule="evenodd" transform="translate(-846.000000, -1559.000000)" opacity="0.7">
        <g id="services" transform="translate(219.000000, 741.000000)">
            <g id="content" transform="translate(0.000000, 154.000000)">
                <g id="row-5" transform="translate(86.000000, 662.000000)">
                    <g id="Group" transform="translate(541.000000, 1.000000)">
                        <g id="icon-/-Personal-Research" transform="translate(0.000000, 1.000000)">
                            <mask id="mask-2" fill="white">
                                <use xlink:href="#path-1"></use>
                            </mask>
                            <use id="Combined-Shape" fill="#B793DA" fill-rule="evenodd" xlink:href="#path-1"></use>
                            <g id="color/secondary-/-gold" mask="url(#mask-2)" fill="#C7BE7E" fill-rule="evenodd">
                                <g transform="translate(-2.000000, -4.000000)" id="purple">
                                    <rect x="0" y="0" width="61" height="63"></rect>
                                </g>
                            </g>
                        </g>
                    </g>
                </g>
            </g>
        </g>
    </g>
</svg>