<?xml version="1.0" standalone="no"?>
<!DOCTYPE svg PUBLIC "-//W3C//DTD SVG 20010904//EN"
 "http://www.w3.org/TR/2001/REC-SVG-20010904/DTD/svg10.dtd">
<svg version="1.0" xmlns="http://www.w3.org/2000/svg"
 width="243.000000pt" height="243.000000pt" viewBox="0 0 243.000000 243.000000"
 preserveAspectRatio="xMidYMid meet">
<metadata>
Created by potrace 1.11, written by Peter Selinger 2001-2013
</metadata>
<g transform="translate(0.000000,243.000000) scale(0.100000,-0.100000)"
fill="#000000" stroke="none">
<path d="M953 1808 c0 -516 3 -617 13 -592 7 16 63 164 125 329 61 165 114
303 118 308 6 6 69 -154 168 -423 7 -19 30 -82 52 -140 l40 -105 0 623 1 622
-258 0 -259 0 0 -622z"/>
<path d="M322 1850 l1 -381 31 -13 c17 -8 69 -32 116 -54 47 -22 115 -53 153
-70 l67 -31 0 465 0 464 -184 0 -184 0 0 -380z"/>
<path d="M1730 1765 l0 -464 43 18 c47 21 133 61 250 115 l77 36 0 87 c1 105
1 618 0 651 l0 22 -185 0 -185 0 0 -465z"/>
<path d="M1195 1585 c-9 -27 -56 -167 -104 -310 l-87 -259 -109 -2 c-61 -2
-207 -3 -325 -3 -185 -1 -212 -3 -200 -15 15 -14 266 -201 418 -310 79 -56 83
-61 78 -90 -4 -17 -47 -157 -96 -311 -49 -153 -88 -280 -87 -281 1 -1 121 82
266 186 l263 188 85 -61 c47 -34 94 -69 106 -77 12 -8 87 -61 167 -118 157
-113 177 -125 167 -99 -21 55 -189 598 -186 601 31 24 473 348 488 358 12 7
21 16 21 20 0 6 -340 12 -577 10 l-62 -1 -17 52 c-10 29 -57 169 -104 312
l-87 260 -18 -50z"/>
</g>
</svg>
