<?xml version="1.0" encoding="UTF-8"?>
<svg width="60px" height="52px" viewBox="0 0 60 52" version="1.1" xmlns="http://www.w3.org/2000/svg" xmlns:xlink="http://www.w3.org/1999/xlink">
    <!-- Generator: Sketch 48.2 (47327) - http://www.bohemiancoding.com/sketch -->
    <title>family-svgrepo-com</title>
    <desc>Created with Sketch.</desc>
    <defs>
        <path d="M30.9999609,30.0155859 C27.4669922,30.0155859 24.9999609,32.4826172 24.9999609,36.0155859 L24.9999609,37.0155469 C24.9999609,41.8755469 27.7480078,45.0155859 31.9999219,45.0155859 C36.2519531,45.0155859 38.9998828,41.8755469 38.9998828,37.0155469 L38.9998828,36.0155859 C38.9998828,32.4826172 36.5319141,30.0155859 32.9998828,30.0155859 L30.9999609,30.0155859 Z M36.9999609,36.0155859 L36.9999609,37.0155469 C36.9999609,38.8195312 36.5119922,43.0155469 31.9999219,43.0155469 C27.4869141,43.0155469 26.9998828,38.8195312 26.9998828,37.0155469 L26.9998828,36.0155859 C26.9998828,33.5855859 28.5698437,32.015625 30.9998437,32.015625 L33,32.015625 C35.4289453,32.015625 36.9999609,33.5855859 36.9999609,36.0155859 Z M30.03,36.0155859 L30.0189844,36.0155859 C29.4679688,36.0155859 29.025,36.4635938 29.025,37.0155469 C29.025,37.5675 29.4769922,38.0155078 30.03,38.0155078 C30.5819531,38.0155078 31.0299609,37.5675 31.0299609,37.0155469 C31.0299609,36.4635938 30.5819531,36.0155859 30.03,36.0155859 Z M34.9230469,23.0125781 C34.3729688,22.970625 33.9610547,22.4895703 34.0030078,21.9385547 L35.0029688,8.93859375 C35.325,5.50160156 39.36,2.015625 42.9999609,2.015625 L45,2.015625 C48.3019922,2.015625 52.7300391,5.27765625 52.9971094,8.94246094 L53.9970703,21.9384375 C54.0390234,22.4894531 53.6269922,22.9705078 53.0770313,23.0124609 C53.0510156,23.0145703 53.0239453,23.0155078 52.9989844,23.0155078 C52.4810156,23.0155078 52.0429688,22.6164844 52.0030078,22.0925391 L51.0030469,9.09257812 C50.8299609,6.71753906 47.6320313,4.01554687 45,4.01554687 L43.0000781,4.01554687 C40.4171484,4.01554687 37.2180469,6.72855469 36.9960938,9.10851562 L35.9970703,22.0925391 C35.955,22.6426172 35.4800391,23.0485547 34.9230469,23.0125781 Z M43.9480078,8.69964844 C44.7,10.9525781 48.9569531,11.015625 49.0000781,11.015625 C49.5520313,11.015625 50.0000391,11.4636328 50.0000391,12.0155859 L50.0000391,16.0155469 C50.0000391,19.355625 47.7169922,24.0155859 44.0000391,24.0155859 C40.2820313,24.0155859 38.0000391,19.3555078 38.0000391,16.0155469 L38.0000391,12.0155859 C38.0000391,11.4636328 38.4469922,11.015625 39,11.015625 C39.0869531,11.0146875 41.2999219,10.9546875 42.0509766,8.69964844 C42.1869141,8.29066406 42.5689453,8.015625 42.9999609,8.015625 C43.4300391,8.015625 43.8119531,8.29066406 43.9480078,8.69964844 Z M48,16.0156641 L48.0001172,16.0156641 L48.0001172,12.9536719 C46.7111719,12.8166797 44.4761719,12.3786328 43.0761328,10.9776562 C42.1880859,12.1136719 40.9790625,12.6717187 40.0000781,12.8936719 L40.0000781,16.0156641 C40.0000781,18.7337109 41.7840234,22.0156641 44.0000391,22.0156641 C46.2160547,22.0156641 48,18.7337109 48,16.0156641 Z M34.0299609,38.015625 C34.5819141,38.015625 35.0299219,37.5676172 35.0299219,37.0156641 C35.0299219,36.4637109 34.5819141,36.0157031 34.0299609,36.0157031 L34.0189453,36.0157031 C33.4679297,36.0157031 33.0249609,36.4637109 33.0249609,37.0156641 C33.0249609,37.5676172 33.4769531,38.015625 34.0299609,38.015625 Z M10.0380469,11.7686719 C9.42,11.4285938 9,10.7696484 9,10.0156641 L9,8.015625 C9,7.27664063 9.40195313,6.63058594 10.0001953,6.28464844 L10.0001953,6.01570313 C10.0001953,2.70667969 12.6911719,0.015703125 16.0001953,0.015703125 L20.0001563,0.015703125 C23.308125,0.015703125 26.0001563,2.70667969 26.0001563,6.01570313 L26.0001563,6.28464844 C26.5971094,6.63058594 27.0001172,7.27664063 27.0001172,8.015625 L27.0001172,10.0156641 C27.0001172,10.7696484 26.5801172,11.4287109 25.9620703,11.7686719 C25.77,13.6906641 24.9339844,15.3826172 24.8940234,15.4626563 C23.9880469,17.2756641 22.6180078,20.015625 18,20.015625 C13.3819922,20.015625 12.0110156,17.2756641 11.1050391,15.4626563 C11.0650781,15.3826172 10.2290625,13.6906641 10.0380469,11.7686719 Z M20.0000391,10.0156641 C19.4470313,10.0156641 18.9999609,9.56765625 19.0000781,9.01570312 C19.0000781,8.46375 19.4470313,8.01574219 20.0000391,8.01574219 L21,8.01574219 C21.5519531,8.01574219 21.9999609,8.46375 21.9999609,9.01570312 C21.9999609,9.56765625 21.5519531,10.0156641 21,10.0156641 L20.0000391,10.0156641 Z M11.0000391,8.015625 L10.9999219,8.015625 L10.9999219,10.0156641 C11.551875,10.0156641 11.9998828,10.4636719 11.9998828,11.015625 C11.9998828,12.7455469 12.8848828,14.5515234 12.8948437,14.5695703 C13.9348828,16.6505859 14.8529297,18.0155859 17.9998828,18.0155859 C21.1458984,18.0155859 22.0639453,16.6505859 23.1049219,14.5686328 C23.1139453,14.5516406 23.9998828,12.7456641 23.9998828,11.015625 C23.9998828,10.4636719 24.4468359,10.0156641 24.9998437,10.0156641 L24.9998437,8.015625 C24.4468359,8.015625 23.9998828,7.56761719 23.9998828,7.01566406 L23.9998828,6.01570312 C23.9998828,3.80976562 22.2059766,2.01574219 19.9999219,2.01574219 L15.9999609,2.01574219 C13.7940234,2.01574219 12,3.80964844 12,6.01570312 L12,7.01566406 C12,7.56761719 11.5519922,8.015625 11.0000391,8.015625 Z M35.0000391,46.0156641 C40.785,46.0156641 42,48.7346484 41.9997656,51.0155859 C41.9997656,51.5675391 41.5517578,52.0155469 40.9998047,52.0155469 C40.4467969,52.0155469 39.9998438,51.5675391 39.9998438,51.0155859 C39.9998438,50.2115625 39.9998438,48.1035937 35.2988672,48.0175781 L32.5538672,49.8475781 C32.2178906,50.0715234 31.7808984,50.0715234 31.4449219,49.8475781 L28.7009766,48.0175781 C24,48.1035937 24,50.2115625 24,51.0155859 C24,51.5675391 23.5519922,52.0155469 23.0000391,52.0155469 C22.4470313,52.0155469 22.0000781,51.5675391 22.0000781,51.0155859 C22.0000781,48.7345312 23.2150781,46.0155469 29.0000391,46.0155469 C29.1970313,46.0155469 29.3900391,46.0746094 29.5539844,46.1835937 L32.0000391,47.8136719 L34.4450391,46.1837109 C34.6089844,46.0746094 34.8019922,46.0156641 35.0000391,46.0156641 Z M53.0660156,34.0156641 C53.6190234,34.0176563 54.0639844,34.4676563 54.0619922,35.0197266 L54,51.0196875 C53.9980078,51.5707031 53.5510547,52.0156641 53.0000391,52.0156641 L52.9960547,52.0156641 C52.4430469,52.0135547 51.9980859,51.5635547 52.0000781,51.0116016 L52.0620703,35.0116406 C52.0640625,34.460625 52.5110156,34.0156641 53.0620313,34.0156641 L53.0660156,34.0156641 Z M15,10.0156641 C14.4469922,10.0156641 14.0000391,9.56765625 14.0000391,9.01570312 C14.0000391,8.46375 14.4469922,8.01574219 15,8.01574219 L15.9999609,8.01574219 C16.5519141,8.01574219 16.9999219,8.46375 16.9999219,9.01570312 C16.9999219,9.56765625 16.5519141,10.0156641 15.9999609,10.0156641 L15,10.0156641 Z M22.98,28.2126562 C22.8840234,28.6876172 22.4680078,29.015625 22.0010156,29.0157422 C21.9349219,29.0157422 21.87,29.0096484 21.8029687,28.9957031 C21.2609766,28.8876562 20.9109375,28.3606641 21.0189844,27.8186719 L22.0189453,22.8316406 C22.1178516,22.3436719 22.5669141,22.0196484 23.0639062,22.0286719 C29.4308203,22.0286719 33.8008594,23.6146875 35.3698828,26.4986719 C35.6339062,26.9835937 35.4549609,27.590625 34.9699219,27.8546484 C34.4819531,28.1186719 33.8769141,27.9397266 33.6139453,27.4546875 C32.4999609,25.4087109 28.8659766,24.1507031 23.8169531,24.0366797 L22.98,28.2126562 Z M57.5479688,27.0166406 C59.1290625,28.595625 60,30.725625 60,33.0155859 L60,49.0154297 C60,49.5673828 59.5519922,50.0153906 59.0000391,50.0153906 C58.4470313,50.0153906 58.0000781,49.5673828 58.0000781,49.0154297 L58.0000781,33.0154688 C58.0000781,31.2604688 57.3380859,29.6335547 56.1341016,28.4325 C54.7160156,27.0155859 52.5850781,26.2014844 49.9320703,26.0525391 C49.6461328,28.3305469 48.3751172,31.4185547 45.0001172,31.9335938 L45.0001172,37.0156641 C45.0001172,37.5676172 44.5521094,38.015625 44.0001563,38.015625 C43.4471484,38.015625 43.0001953,37.5676172 43.0001953,37.0156641 L43.0001953,31.9346484 C39.0801563,31.3376953 38.0001563,27.2647266 38.0001563,25.0286719 C38.0001563,24.4756641 38.4471094,24.0287109 39.0001172,24.0287109 C39.5511328,24.0287109 39.9990234,24.4747266 40.0000781,25.0257422 C40.0010156,25.2296484 40.0700391,30.0157031 44.0000391,30.0157031 C47.9289844,30.0157031 47.9989453,25.2287109 48,25.0246875 C48.0029297,24.4646484 48.4519922,24.0386719 49.0299609,24.0276563 C52.6429688,24.0276563 55.5880078,25.0606641 57.5479688,27.0166406 Z M18,22.0156641 C19.1020312,22.0156641 20.0000391,22.9126172 19.9998047,24.0157031 C19.9998047,24.7526953 19.5938672,25.3906641 18.9998437,25.7376562 L18.9998437,33.0157031 C18.9998437,33.5676562 18.5518359,34.0156641 17.9998828,34.0156641 C17.446875,34.0156641 16.9999219,33.5676562 16.9999219,33.0157031 L16.9999219,25.7376562 C16.4049609,25.3906641 15.9999609,24.7526953 15.9999609,24.0157031 C15.9999609,22.9126172 16.8970312,22.0156641 18,22.0156641 Z M6.99996094,34.0156641 C7.55203125,34.0156641 8.00003906,34.4636719 7.99992188,35.015625 L7.99992188,51.0155859 C7.99992188,51.5675391 7.55191406,52.0155469 6.99996094,52.0155469 C6.44695313,52.0155469 6,51.5675391 6,51.0155859 L6,35.015625 C6,34.4636719 6.44695313,34.0156641 6.99996094,34.0156641 Z M13.9780078,22.8246094 L18.9780469,46.8114844 C19.0920703,47.3514844 18.7450781,47.8815234 18.2040234,47.9944922 C17.6649609,48.1065234 17.1330469,47.7595313 17.0210156,47.2195313 L12.1879687,24.0365625 C7.89691406,24.1325391 4.58296875,25.0576172 3.02496094,26.6125781 C2.33589844,27.3016406 1.99992187,28.0876172 1.99992187,29.015625 L1.99992187,49.0156641 C1.99992187,49.5676172 1.55191406,50.015625 0.999960937,50.015625 C0.446953125,50.015625 0,49.5676172 0,49.0156641 L0,29.015625 C0,27.5506641 0.543046875,26.2655859 1.61203125,25.1975391 C3.6609375,23.1535547 7.67894531,22.0285547 12.9319922,22.0285547 C13.4069531,22.0296094 13.8780469,22.3386328 13.9780078,22.8246094 Z" id="path-1"></path>
    </defs>
    <g id="Home-2" stroke="none" stroke-width="1" fill="none" fill-rule="evenodd" transform="translate(-572.000000, -1396.000000)" opacity="0.7">
        <g id="services" transform="translate(219.000000, 741.000000)">
            <g id="content" transform="translate(0.000000, 154.000000)">
                <g id="row-4" transform="translate(0.000000, 497.000000)">
                    <g id="Understanding-Family-Members" transform="translate(0.000000, 4.000000)">
                        <g id="icon-/-family" transform="translate(353.000000, 0.000000)">
                            <mask id="mask-2" fill="white">
                                <use xlink:href="#path-1"></use>
                            </mask>
                            <use id="Combined-Shape" fill="#B793DA" fill-rule="nonzero" xlink:href="#path-1"></use>
                            <g id="color/secondary-/-gold" mask="url(#mask-2)" fill="#C7BE7E" fill-rule="evenodd">
                                <g transform="translate(-3.000000, -3.000000)" id="purple">
                                    <rect x="0" y="0" width="63" height="66"></rect>
                                </g>
                            </g>
                        </g>
                    </g>
                </g>
            </g>
        </g>
    </g>
</svg>