<?xml version="1.0" encoding="UTF-8"?>
<svg width="55px" height="15px" viewBox="0 0 55 15" version="1.1" xmlns="http://www.w3.org/2000/svg" xmlns:xlink="http://www.w3.org/1999/xlink">
    <!-- Generator: Sketch 43.2 (39069) - http://www.bohemiancoding.com/sketch -->
    <title>amex</title>
    <desc>Created with Sketch.</desc>
    <defs></defs>
    <g id="Desktop" stroke="none" stroke-width="1" fill="none" fill-rule="evenodd">
        <g id="Home" transform="translate(-1174.000000, -2766.000000)" fill="#26A6D1">
            <g id="Footer" transform="translate(208.000000, 2683.000000)">
                <g id="amex" transform="translate(952.000000, 25.000000)">
                    <path d="M20.7096412,58.58 L14.59,72.1240907 L21.9159383,72.1240907 L22.8245777,69.9645453 L24.9010126,69.9645453 L25.809652,72.1240907 L33.8740258,72.1240907 L33.8740258,70.4759537 L34.5928121,72.1240907 L38.7645343,72.1240907 L39.4833207,70.4417005 L39.4833207,72.1240907 L56.256241,72.1240907 L58.2955018,70.0205719 L60.2049191,72.1240907 L68.8199995,72.1418811 L62.6796471,65.390547 L68.8199995,58.58 L60.3387456,58.58 L58.3533871,60.6452826 L56.5039793,58.58 L38.2573744,58.58 L36.6899582,62.0764826 L35.08643,58.58 L27.7750958,58.58 L27.7750958,60.1721104 L26.9620468,58.58 L20.7096412,58.58 Z M22.1275647,60.5040214 L25.698661,60.5040214 L29.7583301,69.6875988 L29.7583301,60.5040214 L33.6706307,60.5040214 L36.8062598,67.0883379 L39.6960092,60.5040214 L43.5897229,60.5040214 L43.5897229,70.2229048 L41.2206753,70.2229048 L41.2010262,62.606478 L37.7480903,70.2229048 L35.6289053,70.2229048 L32.1563202,62.606478 L32.1563202,70.2229048 L27.2836021,70.2229048 L26.3592965,68.0437103 L21.3681525,68.0437103 L20.4462367,70.2207806 L17.8352924,70.2207806 L22.1275647,60.5040214 Z M45.7564375,60.5040214 L55.387962,60.5040214 L58.333738,63.6853214 L61.3748388,60.5040214 L64.3206148,60.5040214 L59.8448621,65.3884228 L64.3206148,70.2167976 L61.2410123,70.2167976 L58.2955018,66.9980581 L55.2387348,70.2167976 L45.7564375,70.2167976 L45.7564375,60.5040214 Z M23.8649194,62.1481754 L22.2207653,66.0294092 L25.5077458,66.0294092 L23.8649194,62.1481754 Z M48.1347785,62.5164638 L48.1347785,64.2899303 L53.3893271,64.2899303 L53.3893271,66.267854 L48.1347785,66.267854 L48.1347785,68.2043552 L54.0281892,68.2043552 L56.7676494,65.3520453 L54.1444908,62.5143395 L48.1347785,62.5143395 L48.1347785,62.5164638 Z" id="Fill-2"></path>
                </g>
            </g>
        </g>
    </g>
</svg>