<?xml version="1.0" encoding="UTF-8"?>
<svg width="59px" height="57px" viewBox="0 0 59 57" version="1.1" xmlns="http://www.w3.org/2000/svg" xmlns:xlink="http://www.w3.org/1999/xlink">
    <!-- Generator: Sketch 48.2 (47327) - http://www.bohemiancoding.com/sketch -->
    <title>file</title>
    <desc>Created with Sketch.</desc>
    <defs>
        <path d="M58.6602891,42.1996348 C59.1126992,42.6487031 59.1135059,43.3770996 58.6612109,43.8262832 C58.2088008,44.2753516 57.4767168,44.2753516 57.0245371,43.8262832 L47.9296641,34.7864922 C47.7962227,34.9023027 47.6706172,35.0234141 47.5326816,35.1345 L47.5334883,53.7443906 C47.5334883,55.4308457 46.1460664,56.8105469 44.4482031,56.8105469 L3.08528516,56.8105469 C1.38822852,56.8105469 0,55.4306152 0,53.7443906 L0,3.1531582 C0,1.46681836 1.38822852,0.0870019531 3.08528516,0.0870019531 L44.447166,0.0870019531 C46.1442227,0.0870019531 47.5324512,1.46681836 47.5324512,3.1531582 L47.5324512,12.5640039 C50.8233145,15.2353672 52.9281855,19.2963418 52.9281855,23.848791 C52.9281855,27.3840664 51.6587637,30.6242266 49.5523945,33.1468223 L58.6602891,42.1996348 Z M45.2192363,53.7443906 L45.2191211,53.7443906 L45.2191211,36.6748379 C43.1510098,37.7838535 40.7869766,38.4140703 38.2735996,38.4140703 C33.3457168,38.4140703 28.9961953,35.9886172 26.3402734,32.2817578 L11.5684941,32.2817578 C10.9307871,32.2817578 10.4125781,31.7666602 10.4125781,31.1319492 C10.4125781,30.4972383 10.9307871,29.9821406 11.5684941,29.9821406 L24.995834,29.9821406 C24.2246855,28.3371699 23.7593691,26.5266074 23.659,24.616252 L11.5684941,24.616252 C10.9307871,24.616252 10.4125781,24.1011543 10.4125781,23.4664434 C10.4125781,22.8318477 10.9307871,22.3166348 11.5684941,22.3166348 L23.7025586,22.3166348 C23.9051406,20.3910684 24.4860371,18.5782012 25.3675801,16.9508613 L11.5684941,16.9508613 C10.9307871,16.9508613 10.4125781,16.4357637 10.4125781,15.8010527 C10.4125781,15.1663418 10.9307871,14.6512441 11.5684941,14.6512441 L26.9175977,14.6512441 C29.6027891,11.3772051 33.6915352,9.2854707 38.2745215,9.2854707 C40.7881289,9.2854707 43.1520469,9.91557227 45.2178535,11.0238965 L45.2178535,3.1531582 C45.2178535,2.73773828 44.8644297,2.38661914 44.4467051,2.38661914 L3.08528516,2.38661914 C2.66756055,2.38661914 2.31413672,2.73773828 2.31413672,3.1531582 L2.31413672,53.7443906 C2.31413672,54.1598105 2.66756055,54.5108145 3.08528516,54.5108145 L44.4480879,54.5108145 C44.8658125,54.5108145 45.2192363,54.1598105 45.2192363,53.7443906 Z M21.5946914,37.6470703 C22.234127,37.6470703 22.7521055,38.1622832 22.7521055,38.7969941 C22.7521055,39.4315898 22.2338965,39.9468027 21.5946914,39.9468027 L11.5684941,39.9468027 C10.9307871,39.9468027 10.4125781,39.4315898 10.4125781,38.7969941 C10.4125781,38.1622832 10.9307871,37.6470703 11.5684941,37.6470703 L21.5946914,37.6470703 Z M50.6133574,23.848791 C50.6133574,20.7519824 49.4444199,17.9281641 47.5319902,15.7679805 L47.5319902,31.9304082 C49.4444199,29.7695332 50.6133574,26.9455996 50.6133574,23.848791 Z M35.4759395,29.9817949 C36.1151445,29.9817949 36.6341602,30.4970078 36.6338145,31.131373 C36.6338145,31.766084 36.1157207,32.2811816 35.4764004,32.2811816 L29.3365977,32.2811816 C31.5862031,34.6358809 34.7574531,36.113877 38.274291,36.113877 C40.8475898,36.113877 43.2384727,35.324291 45.2191211,33.9790449 L45.2175078,13.7188828 C43.2384727,12.3743281 40.8467832,11.5848574 38.2735996,11.5848574 C35.1567402,11.5848574 32.313793,12.7491855 30.1382832,14.6508984 L35.475709,14.6508984 C36.1150293,14.6508984 36.633123,15.1661113 36.633123,15.8008223 C36.633123,16.435418 36.1150293,16.9506309 35.475709,16.9506309 L28.0788145,16.9506309 C27.0026406,18.5174727 26.2896855,20.3463574 26.0413555,22.3164043 L35.4750176,22.3164043 C36.1143379,22.3164043 36.6324316,22.831502 36.6324316,23.4662129 C36.6324316,24.1009238 36.1143379,24.6160215 35.4750176,24.6160215 L25.973252,24.6160215 C26.094248,26.5623301 26.6706504,28.3843008 27.6035879,29.9817949 L35.4759395,29.9817949 Z" id="path-1"></path>
    </defs>
    <g id="Home-2" stroke="none" stroke-width="1" fill="none" fill-rule="evenodd" transform="translate(-846.000000, -916.000000)" opacity="0.7">
        <g id="services" transform="translate(219.000000, 741.000000)">
            <g id="content" transform="translate(0.000000, 154.000000)">
                <g id="row-1" transform="translate(80.000000, 0.000000)">
                    <g id="Background-Investigation" transform="translate(547.000000, 21.000000)">
                        <g id="icon-/-file">
                            <mask id="mask-2" fill="white">
                                <use xlink:href="#path-1"></use>
                            </mask>
                            <use id="file" fill="#B793DA" fill-rule="evenodd" xlink:href="#path-1"></use>
                            <g id="color/secondary-/-gold" mask="url(#mask-2)" fill="#C7BE7E" fill-rule="evenodd">
                                <g transform="translate(0.000000, -1.000000)" id="purple">
                                    <rect x="0" y="0" width="60" height="60"></rect>
                                </g>
                            </g>
                        </g>
                    </g>
                </g>
            </g>
        </g>
    </g>
</svg>