<?xml version="1.0" encoding="UTF-8"?>
<svg width="64px" height="45px" viewBox="0 0 64 45" version="1.1" xmlns="http://www.w3.org/2000/svg" xmlns:xlink="http://www.w3.org/1999/xlink">
    <!-- Generator: Sketch 48.2 (47327) - http://www.bohemiancoding.com/sketch -->
    <title>social-relations</title>
    <desc>Created with Sketch.</desc>
    <defs>
        <path d="M20.4991785,13.1372391 C24.0790842,13.1372391 26.9907609,10.2247003 26.9907609,6.64479461 C26.9907609,3.06488889 24.0790842,0.152350168 20.4991785,0.152350168 C16.9192727,0.152350168 14.0058721,3.06488889 14.0058721,6.64479461 C14.006734,10.2247003 16.9192727,13.1372391 20.4991785,13.1372391 Z M20.4991785,3.25516498 C22.3678923,3.25516498 23.8879461,4.77608081 23.8879461,6.64479461 C23.8879461,8.51350842 22.3678923,10.0337778 20.4991785,10.0337778 C18.6304646,10.0337778 17.1093333,8.51350842 17.1093333,6.64479461 C17.1093333,4.77608081 18.6304646,3.25516498 20.4991785,3.25516498 Z M41.7945859,13.1372391 C45.3744916,13.1372391 48.2870303,10.2247003 48.2870303,6.64479461 C48.2870303,3.06488889 45.3744916,0.152350168 41.7945859,0.152350168 C38.2146801,0.152350168 35.3030034,3.06488889 35.3030034,6.64479461 C35.3030034,10.2247003 38.2146801,13.1372391 41.7945859,13.1372391 Z M41.7945859,3.25516498 C43.6632997,3.25516498 45.184431,4.77608081 45.184431,6.64479461 C45.184431,8.51350842 43.6641616,10.0337778 41.7945859,10.0337778 C39.9258721,10.0337778 38.4058182,8.51350842 38.4058182,6.64479461 C38.4058182,4.77608081 39.9258721,3.25516498 41.7945859,3.25516498 Z M30.12633,27.3383434 L32.4941145,21.8511515 C33.6196094,19.245037 35.6456296,15.7812795 40.2238923,15.7812795 L43.3661414,15.7812795 C47.945266,15.7812795 49.9706397,19.245899 51.0950572,21.8511515 L53.4637037,27.3383434 C53.8039596,28.1246599 53.4410774,29.037899 52.6549764,29.3779394 C51.867798,29.7171178 50.9545589,29.3553131 50.6153805,28.5681347 L48.246734,23.0815892 C46.9596229,20.1003098 45.5453737,18.8838788 43.3661414,18.8838788 L40.2238923,18.8838788 C38.0446599,18.8838788 36.6304108,20.1003098 35.3435152,23.0815892 L32.9746532,28.5681347 C32.7223165,29.1549091 32.1506263,29.5050774 31.5496296,29.5050774 C31.3442694,29.5050774 31.1363232,29.4647811 30.9352727,29.3779394 C30.1489562,29.037899 29.7862896,28.1246599 30.12633,27.3383434 Z M63.8610101,32.6262088 C63.762532,33.2651313 63.4074074,34.1962559 62.2743704,35.0026128 C60.1313401,36.5261145 55.798734,37.1514613 50.5261684,37.1514613 C44.5580067,37.1514613 37.3854815,36.3502761 30.820633,35.145697 C22.6497508,33.6465455 15.0639192,31.5160135 9.45885522,29.1490909 C2.96641077,26.4057104 0.0118518519,23.7651178 0.426020202,21.074101 C0.867771044,18.2012121 4.82154882,17.4200673 6.1202963,17.1634209 C6.9613468,16.996633 7.7769697,17.5437576 7.94354209,18.3848081 C8.10946801,19.2247811 7.56234343,20.041266 6.72215488,20.2071919 C3.83676768,20.7778047 3.49414141,21.5386936 3.49327946,21.5455892 C3.44694949,21.8494276 4.45715825,23.5278653 9.76937374,25.8999596 L11.5167677,21.8511515 C12.6422626,19.245037 14.6674209,15.7812795 19.2465455,15.7812795 L22.3887946,15.7812795 C24.7197306,15.7812795 26.6649428,16.7020606 28.1707744,18.5186263 C28.7181145,19.1784512 28.6263165,20.1565522 27.9662761,20.7028148 C27.3073131,21.2499394 26.3292121,21.1592189 25.7820875,20.4991785 C24.868633,19.3973872 23.79033,18.8838788 22.3887946,18.8838788 L19.2465455,18.8838788 C17.0673131,18.8838788 15.6532795,20.1003098 14.3653064,23.0815892 L12.6388148,27.0799731 C17.7980337,29.0454411 24.3551246,30.8038249 31.3804714,32.0935219 C46.6784108,34.9015488 57.7879057,34.3848081 60.4756902,32.4738586 C60.7239327,32.2971582 60.790303,32.17433 60.7937508,32.1540741 C60.7954747,32.14567 60.7543165,31.3257374 58.3089562,29.7778855 C57.5849158,29.3191111 57.3694276,28.3610505 57.8273401,27.6372256 C58.2861145,26.9134007 59.245037,26.6979125 59.968862,27.1558249 C62.8721347,28.9941549 64.1448081,30.7837845 63.8610101,32.6262088 Z M61.815596,39.2240269 C62.4402963,39.8097239 62.4713266,40.7921347 61.8856296,41.4166195 C60.0453603,43.3771313 55.3341414,44.1750842 49.4125253,44.1750842 C43.5100875,44.1750842 36.4056566,43.3829495 29.7399596,42.1591919 C15.3610774,39.5203232 3.54887542,35.0944108 0.346720539,31.1455892 C-0.193508418,30.4797306 -0.0909360269,29.5024916 0.574060606,28.9629091 C1.23991919,28.4235421 2.21715825,28.5252525 2.75674074,29.1911111 C5.05815488,32.0286599 15.2585051,36.3468283 30.2995825,39.1070168 C47.4655892,42.25767 57.9443502,41.0808889 59.6230034,39.2929832 C60.2087003,38.6682828 61.1911111,38.6372525 61.815596,39.2240269 Z" id="path-1"></path>
    </defs>
    <g id="Home-2" stroke="none" stroke-width="1" fill="none" fill-rule="evenodd" transform="translate(-841.000000, -1077.000000)" opacity="0.7">
        <g id="services" transform="translate(219.000000, 741.000000)">
            <g id="content" transform="translate(0.000000, 154.000000)">
                <g id="row-2" transform="translate(82.000000, 177.000000)">
                    <g id="Challenging-Friends" transform="translate(540.000000, 5.000000)">
                        <g id="icon-/-social-relations">
                            <mask id="mask-2" fill="white">
                                <use xlink:href="#path-1"></use>
                            </mask>
                            <use id="Fill-1" fill="#B793DA" fill-rule="evenodd" xlink:href="#path-1"></use>
                            <g id="color/secondary-/-gold" mask="url(#mask-2)" fill="#C7BE7E" fill-rule="evenodd">
                                <g transform="translate(-2.000000, -5.000000)" id="purple">
                                    <rect x="0" y="0" width="66" height="60"></rect>
                                </g>
                            </g>
                        </g>
                    </g>
                </g>
            </g>
        </g>
    </g>
</svg>