<?xml version="1.0" encoding="UTF-8"?>
<svg width="60px" height="53px" viewBox="0 0 60 53" version="1.1" xmlns="http://www.w3.org/2000/svg" xmlns:xlink="http://www.w3.org/1999/xlink">
    <!-- Generator: Sketch 48.2 (47327) - http://www.bohemiancoding.com/sketch -->
    <title>romantic-dinner</title>
    <desc>Created with Sketch.</desc>
    <defs>
        <path d="M45.9375,33.4570312 L54.6380859,33.4570312 C54.2298047,35.4604688 52.4542969,36.9726562 50.3320312,36.9726562 L45.9375,36.9726562 L45.9375,33.4570312 Z M43.0078125,50.7421875 L16.9921875,50.7421875 L16.9921875,44.8091016 C17.1333984,44.7076172 17.2604297,44.6054297 17.3766797,44.5113281 C17.8127344,44.1583594 18.0759375,43.9453125 18.7060547,43.9453125 C19.3360547,43.9453125 19.5992578,44.1583594 20.0353125,44.5113281 C20.5346484,44.9153906 21.2183203,45.46875 22.4704687,45.46875 C23.7226172,45.46875 24.4065234,44.9153906 24.9057422,44.5113281 C25.3417969,44.1583594 25.605,43.9453125 26.2351172,43.9453125 C26.8651172,43.9453125 27.1283203,44.1583594 27.564375,44.5113281 C28.0637109,44.9153906 28.7473828,45.46875 29.9995313,45.46875 C31.2516797,45.46875 31.9355859,44.9153906 32.4348047,44.5113281 C32.8708594,44.1583594 33.1340625,43.9453125 33.7641797,43.9453125 C34.3942969,43.9453125 34.6575,44.1583594 35.0935547,44.5113281 C35.5928906,44.9153906 36.2766797,45.46875 37.5288281,45.46875 C38.7809766,45.46875 39.4648828,44.9153906 39.9641016,44.5113281 C40.4001562,44.1583594 40.6633594,43.9453125 41.2934766,43.9453125 C41.9237109,43.9453125 42.1869141,44.1583594 42.6232031,44.5113281 C42.7395703,44.6055469 42.8666016,44.7077344 43.0078125,44.8092187 L43.0078125,50.7421875 Z M9.66796875,36.9726562 C7.24476563,36.9726562 5.2734375,35.0013281 5.2734375,32.578125 L5.2734375,25.1592188 C6.39105469,26.3012109 7.94777344,27.0117188 9.66796875,27.0117188 L14.0625,27.0117188 L14.0625,36.9726562 L9.66796875,36.9726562 Z M6.73828125,19.3945312 L12.5976562,19.3945312 C13.4054297,19.3945312 14.0625,20.0516016 14.0625,20.859375 L14.0625,25.2539062 L9.66796875,25.2539062 C7.24476563,25.2539062 5.2734375,23.2825781 5.2734375,20.859375 C5.2734375,20.0516016 5.93050781,19.3945312 6.73828125,19.3945312 Z M44.1796875,27.0117188 L44.1796875,43.4819531 C44.0347266,43.3923047 43.8942188,43.27875 43.7288672,43.1449219 C43.2295312,42.7408594 42.5457422,42.1875 41.2934766,42.1875 C40.0412109,42.1875 39.3574219,42.7408594 38.8582031,43.1449219 C38.4221484,43.4978906 38.1589453,43.7109375 37.5288281,43.7109375 C36.8987109,43.7109375 36.6355078,43.4978906 36.1994531,43.1449219 C35.7001172,42.7408594 35.0163281,42.1875 33.7641797,42.1875 C32.5120312,42.1875 31.828125,42.7408594 31.3289063,43.1449219 C30.8928516,43.4978906 30.6296484,43.7109375 29.9995313,43.7109375 C29.3695313,43.7109375 29.1063281,43.4978906 28.6702734,43.1449219 C28.1709375,42.7408594 27.4872656,42.1875 26.2351172,42.1875 C24.9828516,42.1875 24.2990625,42.7408594 23.7998438,43.1449219 C23.3637891,43.4978906 23.1005859,43.7109375 22.4704687,43.7109375 C21.8404687,43.7109375 21.5772656,43.4978906 21.1412109,43.1449219 C20.641875,42.7408594 19.9582031,42.1875 18.7060547,42.1875 C17.4539062,42.1875 16.77,42.7408594 16.2707812,43.1449219 C16.1056641,43.2786328 15.9652734,43.3923047 15.8203125,43.4818359 L15.8203125,27.0117188 L44.1796875,27.0117188 Z M45.9375,20.859375 C45.9375,20.0516016 46.5945703,19.3945312 47.4023438,19.3945312 L53.2617188,19.3945312 C54.0694922,19.3945312 54.7265625,20.0516016 54.7265625,20.859375 C54.7265625,23.2825781 52.7552344,25.2539062 50.3320312,25.2539062 L45.9375,25.2539062 L45.9375,20.859375 Z M54.7265625,31.6992188 L45.9375,31.6992188 L45.9375,27.0117188 L50.3320312,27.0117188 C52.0522266,27.0117188 53.6089453,26.3012109 54.7265625,25.1592188 L54.7265625,31.6992188 Z M24.609375,1.81640625 L26.3671875,1.81640625 L26.3671875,6.796875 C26.3671875,7.2815625 25.9729687,7.67578125 25.4882812,7.67578125 C25.0035938,7.67578125 24.609375,7.2815625 24.609375,6.796875 L24.609375,1.81640625 Z M33.6328125,1.81640625 L35.390625,1.81640625 L35.390625,6.796875 C35.390625,7.2815625 34.9964062,7.67578125 34.5117188,7.67578125 C34.0270313,7.67578125 33.6328125,7.2815625 33.6328125,6.796875 L33.6328125,1.81640625 Z M59.1210938,18.515625 C59.6066016,18.515625 60,18.9091406 60,19.3945312 L60,51.6210938 C60,52.1064844 59.6066016,52.5 59.1210938,52.5 C58.6355859,52.5 58.2421875,52.1064844 58.2421875,51.6210938 L58.2421875,42.2460938 L48.5742188,42.2460938 C48.0887109,42.2460938 47.6953125,41.8525781 47.6953125,41.3671875 C47.6953125,40.8817969 48.0887109,40.4882812 48.5742188,40.4882812 L58.2421875,40.4882812 L58.2421875,38.7304688 L45.9375,38.7304688 L45.9375,44.5898438 C45.9375,45.0752344 45.5441016,45.46875 45.0585938,45.46875 C44.9567578,45.46875 44.8600781,45.4638281 44.765625,45.4569141 L44.765625,51.6210938 C44.765625,52.1064844 44.3722266,52.5 43.8867188,52.5 L16.1132812,52.5 C15.6277734,52.5 15.234375,52.1064844 15.234375,51.6210938 L15.234375,45.4569141 C15.1399219,45.4638281 15.0432422,45.46875 14.9414062,45.46875 C14.4558984,45.46875 14.0625,45.0752344 14.0625,44.5898438 L14.0625,38.7304688 L1.7578125,38.7304688 L1.7578125,40.4882812 L11.4257812,40.4882812 C11.9112891,40.4882812 12.3046875,40.8817969 12.3046875,41.3671875 C12.3046875,41.8525781 11.9112891,42.2460938 11.4257812,42.2460938 L1.7578125,42.2460938 L1.7578125,51.6210938 C1.7578125,52.1064844 1.36441406,52.5 0.87890625,52.5 C0.393398438,52.5 0,52.1064844 0,51.6210938 L0,19.3945312 C0,18.9091406 0.393398438,18.515625 0.87890625,18.515625 C1.36441406,18.515625 1.7578125,18.9091406 1.7578125,19.3945312 L1.7578125,36.9726562 L5.368125,36.9726562 C4.22613281,35.8550391 3.515625,34.2983203 3.515625,32.578125 L3.515625,20.859375 C3.515625,19.0823438 4.96136719,17.6367188 6.73828125,17.6367188 L12.5976562,17.6367188 C14.0698828,17.6367188 15.3138281,18.6295312 15.6975,19.9804688 L18.4570312,19.9804688 C21.5510156,19.9804688 24.1177734,17.6844141 24.545625,14.7070312 L23.7304688,14.7070312 C23.2449609,14.7070312 22.8515625,14.3135156 22.8515625,13.828125 C22.8515625,13.3427344 23.2449609,12.9492188 23.7304688,12.9492188 L24.609375,12.9492188 L24.609375,9.28242187 C23.5864453,8.91960937 22.8515625,7.94261719 22.8515625,6.796875 L22.8515625,0.9375 C22.8515625,0.452109375 23.2449609,0.05859375 23.7304688,0.05859375 L27.2460938,0.05859375 C27.7316016,0.05859375 28.125,0.452109375 28.125,0.9375 L28.125,6.796875 C28.125,7.94273438 27.3901172,8.91960937 26.3671875,9.28242187 L26.3671875,12.9492188 L27.2460938,12.9492188 C27.7316016,12.9492188 28.125,13.3427344 28.125,13.828125 C28.125,14.3135156 27.7316016,14.7070312 27.2460938,14.7070312 L26.3171484,14.7070312 C25.8783984,18.6564844 22.5215625,21.7382812 18.4570312,21.7382812 L15.8203125,21.7382812 L15.8203125,25.2539062 L44.1796875,25.2539062 L44.1796875,21.7382812 L41.5429688,21.7382812 C37.4785547,21.7382812 34.1216016,18.6564844 33.6828516,14.7070312 L32.7539062,14.7070312 C32.2683984,14.7070312 31.875,14.3135156 31.875,13.828125 C31.875,13.3427344 32.2683984,12.9492188 32.7539062,12.9492188 L33.6328125,12.9492188 L33.6328125,9.28242187 C32.6098828,8.91960937 31.875,7.94261719 31.875,6.796875 L31.875,0.9375 C31.875,0.452109375 32.2683984,0.05859375 32.7539062,0.05859375 L36.2695312,0.05859375 C36.7550391,0.05859375 37.1484375,0.452109375 37.1484375,0.9375 L37.1484375,6.796875 C37.1484375,7.94273438 36.4135547,8.91960937 35.390625,9.28242187 L35.390625,12.9492188 L36.2695312,12.9492188 C36.7550391,12.9492188 37.1484375,13.3427344 37.1484375,13.828125 C37.1484375,14.3135156 36.7550391,14.7070312 36.2695312,14.7070312 L35.454375,14.7070312 C35.8823438,17.6844141 38.4491016,19.9804688 41.5429688,19.9804688 L44.3025,19.9804688 C44.6861719,18.6295312 45.9301172,17.6367188 47.4023438,17.6367188 L53.2617188,17.6367188 C55.0386328,17.6367188 56.484375,19.0823438 56.484375,20.859375 L56.484375,32.578125 C56.484375,34.2983203 55.7738672,35.8550391 54.631875,36.9726562 L58.2421875,36.9726562 L58.2421875,19.3945312 C58.2421875,18.9091406 58.6355859,18.515625 59.1210938,18.515625 Z M50.3320312,15.8789062 C46.9396875,15.8789062 44.1796875,13.1190234 44.1796875,9.7265625 C44.1796875,6.33410156 46.9396875,3.57421875 50.3320312,3.57421875 C53.724375,3.57421875 56.484375,6.33410156 56.484375,9.7265625 C56.484375,13.1190234 53.724375,15.8789062 50.3320312,15.8789062 Z M50.3320312,5.33203125 C47.9088281,5.33203125 45.9375,7.30335937 45.9375,9.7265625 C45.9375,12.1497656 47.9088281,14.1210938 50.3320312,14.1210938 C52.7552344,14.1210938 54.7265625,12.1497656 54.7265625,9.7265625 C54.7265625,7.30335937 52.7552344,5.33203125 50.3320312,5.33203125 Z M6.15234375,15.8789062 C2.76,15.8789062 0,13.1190234 0,9.7265625 C0,4.39558594 4.33710937,0.05859375 9.66796875,0.05859375 C14.9988281,0.05859375 19.3359375,4.39558594 19.3359375,9.7265625 C19.3359375,13.1190234 16.5759375,15.8789062 13.1835937,15.8789062 L6.15234375,15.8789062 Z M9.66796875,1.81640625 C5.30625,1.81640625 1.7578125,5.36484375 1.7578125,9.7265625 C1.7578125,11.8512891 3.27363281,13.6284375 5.28058594,14.0339062 C4.19003906,12.9233203 3.515625,11.4024609 3.515625,9.7265625 C3.515625,7.77351563 4.41222656,5.97984375 5.975625,4.80527344 C6.16207031,4.66523438 6.39621094,4.60476562 6.6271875,4.6378125 C6.85792969,4.670625 7.06628906,4.79367188 7.20621094,4.98011719 C9.05261719,7.43800781 11.8720313,8.84765625 14.9414062,8.84765625 C15.4269141,8.84765625 15.8203125,9.24117188 15.8203125,9.7265625 C15.8203125,11.4024609 15.1458984,12.9233203 14.0553516,14.0339062 C16.0623047,13.6284375 17.578125,11.8512891 17.578125,9.7265625 C17.578125,5.36484375 14.0296875,1.81640625 9.66796875,1.81640625 Z M9.66796875,14.1210938 C11.8040625,14.1210938 13.5890625,12.5892187 13.9821094,10.5663281 C11.0472656,10.325625 8.36367187,8.98359375 6.40722656,6.77835937 C5.67902344,7.57898437 5.2734375,8.61691406 5.2734375,9.7265625 C5.2734375,12.1497656 7.24476562,14.1210938 9.66796875,14.1210938 Z" id="path-1"></path>
    </defs>
    <g id="Home-2" stroke="none" stroke-width="1" fill="none" fill-rule="evenodd" transform="translate(-572.000000, -916.000000)" opacity="0.699999988">
        <g id="services" transform="translate(219.000000, 741.000000)">
            <g id="content" transform="translate(0.000000, 154.000000)">
                <g id="row-1" transform="translate(80.000000, 0.000000)">
                    <g id="Personal-Research">
                        <g id="icon-/-romantic-dinner" transform="translate(273.000000, 21.000000)">
                            <mask id="mask-2" fill="white">
                                <use xlink:href="#path-1"></use>
                            </mask>
                            <use id="dinner" fill="#B793DA" fill-rule="evenodd" xlink:href="#path-1"></use>
                            <g id="color/secondary-/-gold" mask="url(#mask-2)" fill="#C7BE7E" fill-rule="evenodd">
                                <rect id="purple" x="0" y="0" width="60" height="53"></rect>
                            </g>
                        </g>
                    </g>
                </g>
            </g>
        </g>
    </g>
</svg>