<?xml version="1.0" encoding="UTF-8"?>
<svg width="60px" height="59px" viewBox="0 0 60 59" version="1.1" xmlns="http://www.w3.org/2000/svg" xmlns:xlink="http://www.w3.org/1999/xlink">
    <!-- Generator: Sketch 48.2 (47327) - http://www.bohemiancoding.com/sketch -->
    <title>consulting</title>
    <desc>Created with Sketch.</desc>
    <defs>
        <path d="M39.5149708,58.9472515 L37.6239766,58.9472515 L37.6239766,44.5753216 C37.6239766,42.6636257 39.1792982,41.1084211 41.0908772,41.1084211 L48.8309942,41.1084211 L48.8309942,30.0574269 C48.8309942,27.6092398 50.5845614,25.6794152 53.6419883,24.762924 C55.9270175,24.0780117 58.6320468,23.5160234 58.7459649,23.4923977 L59.8831579,23.257193 L59.8831579,43.9608187 C59.8831579,47.2626901 57.1967251,49.9491228 53.8948538,49.9491228 L45.0902924,49.9491228 L43.9354386,58.9473684 L42.06,58.9473684 L43.4265497,48.0581287 L53.8947368,48.0581287 C56.1540351,48.0581287 57.9920468,46.22 57.9920468,43.9608187 L57.9920468,25.5939181 C56.9930994,25.8211696 55.4988304,26.1804678 54.1847953,26.574269 C52.8915789,26.9619883 50.7219883,27.9299415 50.7219883,30.0574269 L50.7219883,42.9994152 L41.0907602,42.9994152 C40.2217544,42.9994152 39.5148538,43.7063158 39.5148538,44.5753216 L39.5148538,58.9472515 L39.5149708,58.9472515 Z M54.1469006,23.222807 L48.9149708,23.222807 L48.9149708,20.0709942 L46.2738012,20.0709942 L48.9187135,14.0024561 C49.0271345,11.0736842 51.4437427,8.72479532 54.3984795,8.72479532 L54.3995322,8.72479532 C57.4230409,8.72479532 59.8830409,11.1846784 59.8830409,14.2083041 L59.8830409,17.4865497 C59.8830409,20.6495906 57.3098246,23.222807 54.1469006,23.222807 Z M50.8060819,21.3316959 L54.1469006,21.3316959 C56.2670175,21.3316959 57.9920468,19.6067836 57.9920468,17.4865497 L57.9920468,14.2083041 C57.9920468,12.2273684 56.3804678,10.6157895 54.3995322,10.6157895 L54.3984795,10.6157895 C52.4175439,10.6157895 50.8060819,12.2273684 50.8060819,14.2083041 L50.8060819,14.4053801 L49.1608187,18.179883 L50.8060819,18.179883 L50.8060819,21.3316959 Z M22.2591813,58.9472515 L20.3681871,58.9472515 L20.3681871,44.5753216 C20.3681871,43.7063158 19.6612865,42.9994152 18.7922807,42.9994152 L9.16105263,42.9994152 L9.16105263,30.0574269 C9.16105263,27.9299415 6.99146199,26.9619883 5.69824561,26.574269 C4.38315789,26.1802339 2.88935673,25.8209357 1.89099415,25.5939181 L1.89099415,43.9608187 C1.89099415,46.22 3.72900585,48.0581287 5.98830409,48.0581287 L16.4566082,48.0581287 L17.8231579,58.9473684 L15.9477193,58.9473684 L14.7928655,49.9491228 L5.98830409,49.9491228 C2.68643275,49.9491228 0,47.2626901 0,43.9608187 L0,23.257193 L1.13719298,23.4923977 C1.25111111,23.5160234 3.95614035,24.0780117 6.24116959,24.762924 C9.29859649,25.6795322 11.0521637,27.6092398 11.0521637,30.0574269 L11.0521637,41.1084211 L18.7922807,41.1084211 C20.7038596,41.1084211 22.2591813,42.6636257 22.2591813,44.5753216 L22.2591813,58.9472515 Z M10.9680702,23.222807 L5.73614035,23.222807 C2.57321637,23.222807 0,20.6495906 0,17.4865497 L0,14.2083041 C0,11.1846784 2.46,8.72479532 5.48350877,8.72479532 L5.4845614,8.72479532 C8.43929825,8.72479532 10.8556725,11.0736842 10.9642105,14.0024561 L13.6092398,20.0709942 L10.9680702,20.0709942 L10.9680702,23.222807 Z M5.48350877,10.6157895 C3.5025731,10.6157895 1.89099415,12.2273684 1.89099415,14.2083041 L1.89099415,17.4865497 C1.89099415,19.6067836 3.61602339,21.3316959 5.73614035,21.3316959 L9.07695906,21.3316959 L9.07695906,18.18 L10.7222222,18.18 L9.07695906,14.4053801 L9.07695906,14.2083041 C9.07695906,12.2273684 7.46549708,10.6157895 5.4845614,10.6157895 L5.48350877,10.6157895 Z M45.7002339,31.5271345 L45.7002339,37.2002339 L33.1246784,37.2002339 L33.1246784,58.9472515 L31.2335673,58.9472515 L31.2335673,37.2002339 L29.3425731,37.2002339 L29.3425731,58.9472515 L27.451462,58.9472515 L27.451462,37.2002339 L14.182807,37.2002339 L14.182807,31.5271345 L45.7002339,31.5271345 Z M16.0739181,35.3092398 L43.8091228,35.3092398 L43.8091228,33.4181287 L16.0739181,33.4181287 L16.0739181,35.3092398 Z M42.7375439,9.85251462 L47.3203509,15.4532164 L42.7375439,15.4532164 L42.7375439,19.5505263 L20.6754386,19.5505263 L20.6754386,5.05251462 L35.5515789,5.05251462 L35.5515789,1.90070175 L17.2715789,1.90070175 L17.2715789,5.48479532 L14.7884211,8.5194152 L17.2715789,8.5194152 L17.2715789,12.6166082 L19.3306433,12.6166082 L19.3306433,14.5077193 L15.3804678,14.5077193 L15.3804678,10.4104094 L10.7977778,10.4104094 L15.3804678,4.8097076 L15.3804678,0.00970760234 L37.4426901,0.00970760234 L37.4426901,5.05251462 L42.7375439,5.05251462 L42.7375439,9.85251462 Z M40.8465497,13.5622222 L43.3295906,13.5622222 L40.8465497,10.5276023 L40.8465497,6.94350877 L22.5664327,6.94350877 L22.5664327,12.6166082 L35.5515789,12.6166082 L35.5515789,8.15789474 L37.4426901,8.15789474 L37.4426901,14.5077193 L22.5664327,14.5077193 L22.5664327,17.6594152 L40.8465497,17.6594152 L40.8465497,13.5622222 Z M23.7010526,26.6104094 L23.7010526,24.7192982 L25.5921637,24.7192982 L25.5921637,26.6104094 L23.7010526,26.6104094 Z M28.9960234,26.6104094 L28.9960234,24.7192982 L30.8870175,24.7192982 L30.8870175,26.6104094 L28.9960234,26.6104094 Z M34.2908772,26.6104094 L34.2908772,24.7192982 L36.1819883,24.7192982 L36.1819883,26.6104094 L34.2908772,26.6104094 Z" id="path-1"></path>
    </defs>
    <g id="Home-2" stroke="none" stroke-width="1" fill="none" fill-rule="evenodd" transform="translate(-572.000000, -1236.000000)" opacity="0.7">
        <g id="services" transform="translate(219.000000, 741.000000)">
            <g id="content" transform="translate(0.000000, 154.000000)">
                <g id="row-3" transform="translate(86.000000, 336.000000)">
                    <g id="Dialogue-With-Family" transform="translate(0.000000, 5.000000)">
                        <g id="icon-/-consulting" transform="translate(267.000000, 0.000000)">
                            <mask id="mask-2" fill="white">
                                <use xlink:href="#path-1"></use>
                            </mask>
                            <use id="Combined-Shape" fill="#B793DA" fill-rule="evenodd" xlink:href="#path-1"></use>
                            <g id="color/secondary-/-gold" mask="url(#mask-2)" fill="#C7BE7E" fill-rule="evenodd">
                                <g transform="translate(-5.000000, -3.000000)" id="purple">
                                    <rect x="0" y="0" width="65" height="62"></rect>
                                </g>
                            </g>
                        </g>
                    </g>
                </g>
            </g>
        </g>
    </g>
</svg>