<?xml version="1.0" encoding="UTF-8"?>
<svg width="64px" height="59px" viewBox="0 0 64 59" version="1.1" xmlns="http://www.w3.org/2000/svg" xmlns:xlink="http://www.w3.org/1999/xlink">
    <!-- Generator: Sketch 48.2 (47327) - http://www.bohemiancoding.com/sketch -->
    <title>cheers</title>
    <desc>Created with Sketch.</desc>
    <defs>
        <path d="M31.05375,5.963375 L31.05375,0.067875 L32.9475,0.067875 L32.9475,5.963375 L31.05375,5.963375 Z M40.18075,1.785625 L41.899375,2.580625 L39.4245,7.93125 L37.705875,7.13625 L40.18075,1.785625 Z M23.82025,1.786 L26.295125,7.13675 L24.576375,7.93175 L22.101375,2.581 L23.82025,1.786 Z M63.199,51.482125 L63.999875,53.199 L51.837875,58.875 L51.03675,57.158125 L55.110125,52.257375 L50.424625,42.217375 L48.13,42.032625 C44.6715,41.754125 41.61175,39.62775 40.1445,36.48375 L31.999875,19.032375 L23.8555,36.48375 C22.388125,39.62775 19.32825,41.754 15.869875,42.032625 L13.575375,42.217375 L8.889875,52.257375 L12.96325,57.158 L12.162125,58.874875 L0,53.198875 L0.80125,51.482 L7.17375,51.456375 L11.85925,41.4165 L10.52725,39.539125 C8.519625,36.7095 8.18375,32.998625 9.651,29.8545 L19.054,9.706625 L32.000125,15.7485 L44.94625,9.706625 L54.349,29.8545 C55.816375,32.9985 55.4805,36.7095 53.472875,39.539125 L52.14075,41.416625 L56.82625,51.4565 L63.199,51.482125 Z M55.05875,55.281875 L59.177375,53.359875 L56.664875,53.349625 L55.05875,55.281875 Z M50.589125,40.330875 L51.928625,38.44325 C53.543125,36.167875 53.813125,33.18375 52.63325,30.6555 L45.969375,16.376625 C45.445,16.501625 45.033875,16.48675 44.68075,16.47325 C44.251625,16.457125 43.94175,16.445 43.369,16.712375 C42.796125,16.979875 42.60625,17.224875 42.343375,17.56425 C42.0165,17.985875 41.60975,18.510875 40.621625,18.972 C39.63325,19.43325 38.970125,19.408 38.4365,19.3875 C38.00725,19.371 37.697625,19.359125 37.124625,19.626625 C36.55175,19.894 36.36175,20.139125 36.09875,20.4785 C35.882125,20.757875 35.629375,21.0825 35.19675,21.404125 L41.8605,35.682875 C43.0405,38.211125 45.501125,39.920875 48.28225,40.145 L50.589125,40.330875 Z M34.601875,19.3185 C34.928625,18.896625 35.33525,18.372 36.323625,17.910625 C37.312,17.449375 37.975625,17.4745 38.50875,17.495125 C38.93775,17.5115 39.247875,17.5235 39.820625,17.256 C40.39325,16.98875 40.58325,16.74375 40.846125,16.404375 C41.173,15.98275 41.57975,15.45775 42.568,14.9965 C43.556,14.535375 44.2195,14.560625 44.753,14.58125 C44.887375,14.586375 45.010375,14.59 45.133375,14.58575 L44.031,12.22375 L33.2585,17.251125 L34.361375,19.614125 C34.443625,19.5225 34.519125,19.425125 34.601875,19.3185 Z M29.902375,19.049 L30.7415,17.250875 L19.969125,12.2235 L19.13,14.021375 C19.5625,14.342875 19.81525,14.6675 20.031875,14.947 C20.29475,15.28625 20.48475,15.531375 21.057625,15.79875 C21.63025,16.066125 21.94025,16.054125 22.36925,16.037875 C22.902125,16.017375 23.56575,15.992 24.554125,16.45325 C25.542375,16.914375 25.949125,17.439375 26.276,17.861125 C26.539,18.200375 26.728875,18.445625 27.30175,18.713 C27.87475,18.980375 28.18475,18.968375 28.613625,18.95225 C28.966875,18.93875 29.378125,18.923875 29.902375,19.049 Z M22.139625,35.682875 L29.066875,20.840125 C28.94375,20.836 28.820875,20.8395 28.68625,20.84475 C28.153,20.865125 27.489375,20.89025 26.501125,20.42925 C25.512875,19.968 25.106,19.443125 24.77925,19.02125 C24.516375,18.682 24.326375,18.436875 23.753375,18.1695 C23.180625,17.902 22.87075,17.913875 22.44175,17.930375 C21.908625,17.9505 21.245125,17.976 20.256875,17.515 C19.268875,17.053875 18.862,16.529 18.53525,16.107125 C18.45275,16.000625 18.37725,15.903375 18.294875,15.81175 L11.36725,30.6555 C10.187375,33.183875 10.45725,36.168 12.071875,38.443375 L13.411125,40.330875 L15.718,40.145 C18.499,39.920875 20.959625,38.211125 22.139625,35.682875 Z M19.906875,21.136875 L18.527125,20.493 L19.328,18.776875 L20.70775,19.42075 L19.906875,21.136875 Z M21.55625,21.78775 L22.936,22.431625 L22.135125,24.14775 L20.755375,23.503875 L21.55625,21.78775 Z M22.84525,31.2665 L21.4655,30.6225 L22.266375,28.906375 L23.646125,29.550375 L22.84525,31.2665 Z M14.43675,29.98925 L15.8165,30.633125 L15.015625,32.34925 L13.635875,31.705375 L14.43675,29.98925 Z M16.138625,38.791125 L14.75875,38.14725 L15.559625,36.431125 L16.939375,37.075 L16.138625,38.791125 Z M8.94125,55.281875 L7.33525,53.3495 L4.822625,53.35975 L8.94125,55.281875 Z M46.175625,26.34425 L45.374875,24.628125 L46.754625,23.98425 L47.5555,25.700375 L46.175625,26.34425 Z M41.866875,22.20725 L41.066,20.491125 L42.44575,19.84725 L43.246625,21.563375 L41.866875,22.20725 Z M40.46575,27.6415 L39.664875,25.925375 L41.044625,25.2815 L41.8455,26.997625 L40.46575,27.6415 Z M44.79725,34.17725 L43.996375,32.461125 L45.376125,31.81725 L46.177,33.533375 L44.79725,34.17725 Z M49.241,35.194 L48.440125,33.477875 L49.819875,32.834 L50.62075,34.550125 L49.241,35.194 Z" id="path-1"></path>
    </defs>
    <g id="Home-2" stroke="none" stroke-width="1" fill="none" fill-rule="evenodd" transform="translate(-568.000000, -1072.000000)" opacity="0.7">
        <g id="services" transform="translate(219.000000, 741.000000)">
            <g id="content" transform="translate(0.000000, 154.000000)">
                <g id="row-2" transform="translate(82.000000, 177.000000)">
                    <g id="Drinking-Games">
                        <g id="icon-/-cheers" transform="translate(267.000000, 0.000000)">
                            <mask id="mask-2" fill="white">
                                <use xlink:href="#path-1"></use>
                            </mask>
                            <use id="cheers" fill="#B793DA" fill-rule="evenodd" xlink:href="#path-1"></use>
                            <g id="color/secondary-/-gold" mask="url(#mask-2)" fill="#C7BE7E" fill-rule="evenodd">
                                <g transform="translate(-1.000000, -1.000000)" id="purple">
                                    <rect x="0" y="0" width="70" height="66"></rect>
                                </g>
                            </g>
                        </g>
                    </g>
                </g>
            </g>
        </g>
    </g>
</svg>