<?xml version="1.0" encoding="UTF-8"?>
<svg width="60px" height="56px" viewBox="0 0 60 56" version="1.1" xmlns="http://www.w3.org/2000/svg" xmlns:xlink="http://www.w3.org/1999/xlink">
    <!-- Generator: Sketch 48.2 (47327) - http://www.bohemiancoding.com/sketch -->
    <title>icon / engagement</title>
    <desc>Created with Sketch.</desc>
    <defs>
        <path d="M29.1089062,5.63050781 L29.1089062,0.0823828125 L30.8910937,0.0823828125 L30.8910937,5.63050781 L29.1089062,5.63050781 Z M37.6981641,1.69875 L39.3154687,2.446875 L36.9864844,7.4821875 L35.3690625,6.73417969 L37.6981641,1.69875 Z M22.3013672,1.69945312 L24.6304687,6.73488281 L23.0130469,7.48300781 L20.6839453,2.44757812 L22.3013672,1.69945312 Z M41.5283203,53.2959375 C37.5044531,53.2959375 33.6178125,51.84375 30.5845313,49.2067969 C29.6430469,48.3884766 28.790625,47.4610547 28.0512891,46.4504297 C25.9496484,43.5783984 24.8389453,40.1743359 24.8389453,36.6064453 C24.8389453,33.3752344 25.7500781,30.2782031 27.4829297,27.5893359 C27.5056641,27.6120703 27.5275781,27.635625 27.5499609,27.6583594 C27.6476953,27.7573828 27.7440234,27.8573437 27.8382422,27.9594141 C27.8798438,28.0045312 27.9202734,28.0505859 27.9612891,28.0961719 C28.0391016,28.1827734 28.1159766,28.2703125 28.1914453,28.3590234 C28.2341016,28.4092969 28.2762891,28.4600391 28.3182422,28.5108984 C28.3911328,28.5994922 28.4627344,28.6891406 28.5332813,28.7797266 C28.5723047,28.8298828 28.6116797,28.8799219 28.65,28.9307812 C28.7267578,29.0323828 28.8014063,29.135625 28.8752344,29.2395703 C28.8980859,29.2719141 28.921875,29.3037891 28.9444922,29.3364844 C27.6686719,31.5407812 26.9969531,34.0419141 26.9969531,36.6065625 C26.9969531,39.1758984 27.6717188,41.6807812 28.9522266,43.888125 L28.9449609,43.899375 L29.2474219,44.3765625 C30.0258984,45.6044531 30.9819141,46.7071875 32.08875,47.6538281 L32.8192969,48.2786719 L32.8381641,48.2527734 C35.3389453,50.1194531 38.3892188,51.1378125 41.5283203,51.1378125 C49.5410156,51.1378125 56.0598047,44.6191406 56.0598047,36.6064453 C56.0598047,28.59375 49.5411328,22.0750781 41.5283203,22.0750781 C38.3814844,22.0750781 35.3235938,23.0984766 32.8195313,24.9740625 C32.8083984,24.9602344 32.7965625,24.9469922 32.7854297,24.9332812 C32.7223828,24.8559375 32.6578125,24.7798828 32.5934766,24.7035937 C32.5437891,24.6447656 32.4945703,24.5852344 32.4440625,24.5269922 C32.3760938,24.4484766 32.3066016,24.37125 32.2373438,24.2939062 C32.1885938,24.2394141 32.1406641,24.1843359 32.0913281,24.1305469 C32.0160938,24.0483984 31.9392188,23.9680078 31.8626953,23.8872656 C31.8175781,23.8398047 31.7732813,23.7914062 31.7276953,23.7442969 C31.6361719,23.6499609 31.5428906,23.5575 31.4494922,23.4651562 C31.4189063,23.4348047 31.3890234,23.4036328 31.3580859,23.3733984 C34.2649219,21.1380469 37.8389063,19.9171875 41.5283203,19.9171875 C50.7309375,19.9171875 58.2178125,27.4041797 58.2178125,36.6066797 C58.2178125,45.8092969 50.7309375,53.2959375 41.5283203,53.2959375 Z M26.1237891,26.413125 C24.1148438,29.4387891 23.0567578,32.9445703 23.0567578,36.6065625 C23.0567578,40.2684375 24.1148438,43.7743359 26.1237891,46.8 C23.9245313,48.4517578 21.2382422,49.3559766 18.4716797,49.3559766 C11.4417188,49.3559766 5.72238281,43.6366406 5.72238281,36.6066797 C5.72238281,29.5767187 11.4417188,23.8572656 18.4716797,23.8572656 C21.2383594,23.8572656 23.9245313,24.76125 26.1237891,26.413125 Z M28.7791406,36.6064453 C28.7791406,34.7103516 29.1991406,32.8550391 30,31.1613281 C30.8008594,32.8550391 31.2208594,34.7103516 31.2208594,36.6064453 C31.2208594,38.5025391 30.8008594,40.3578516 30,42.0515625 C29.1991406,40.3578516 28.7791406,38.5025391 28.7791406,36.6064453 Z M33.8762109,26.413125 C36.0754688,24.7613672 38.7616406,23.8572656 41.5283203,23.8572656 C48.5582813,23.8572656 54.2776172,29.5766016 54.2776172,36.6065625 C54.2776172,43.6365234 48.5582813,49.3557422 41.5283203,49.3557422 C38.7617578,49.3557422 36.0754688,48.4515234 33.8762109,46.7997656 C35.8851563,43.7741016 36.9432422,40.2683203 36.9432422,36.6063281 C36.9432422,32.9445703 35.8851563,29.4386719 33.8762109,26.413125 Z M18.4716797,53.2959375 C9.2690625,53.2959375 1.7821875,45.8090625 1.7821875,36.6064453 C1.7821875,27.4039453 9.2690625,19.9169531 18.4716797,19.9169531 C22.4955469,19.9169531 26.3821875,21.3691406 29.4154687,24.0060937 C30.3570703,24.8246484 31.209375,25.7519531 31.9487109,26.7625781 C34.0503516,29.6346094 35.1610547,33.0385547 35.1610547,36.6064453 C35.1610547,39.8376562 34.2499219,42.9345703 32.5170703,45.6235547 C32.4945703,45.6011719 32.4730078,45.5778516 32.4507422,45.5552344 C32.3528906,45.4560937 32.2563281,45.3557812 32.161875,45.2535937 C32.1200391,45.2083594 32.079375,45.1620703 32.0382422,45.11625 C31.9607812,45.03 31.8841406,44.9429297 31.8091406,44.8545703 C31.7660156,44.8039453 31.7234766,44.7528516 31.6811719,44.7014062 C31.60875,44.6132812 31.5376172,44.5241016 31.4675391,44.4341016 C31.4281641,44.3834766 31.3884375,44.3330859 31.3497656,44.281875 C31.273125,44.1802734 31.1983594,44.0770312 31.1246484,43.9729687 C31.1019141,43.9407422 31.0782422,43.9089844 31.055625,43.8764062 C32.3314453,41.6721094 33.0031641,39.1709766 33.0031641,36.6064453 C33.0031641,34.0371094 32.3283984,31.5321094 31.0478906,29.3248828 L31.0550391,29.3135156 L30.7526953,28.8364453 C30.16875,27.9153516 29.4850781,27.0649219 28.7128125,26.2978125 C28.4553516,26.0422266 28.1880469,25.7957812 27.91125,25.5590625 L27.1807031,24.9342187 L27.1618359,24.96 C24.6611719,23.0934375 21.6106641,22.0749609 18.4716797,22.0749609 C10.4589844,22.0749609 3.94019531,28.59375 3.94019531,36.6064453 C3.94019531,44.6191406 10.4588672,51.1378125 18.4716797,51.1378125 C21.6185156,51.1378125 24.6764062,50.1144141 27.1804687,48.2389453 C27.1916016,48.2527734 27.2034375,48.2660156 27.2145703,48.2797266 C27.2777344,48.3571875 27.3425391,48.4333594 27.406875,48.5098828 C27.4564453,48.5685937 27.5054297,48.6278906 27.5557031,48.6858984 C27.624375,48.7653516 27.6945703,48.8432812 27.7645312,48.9215625 C27.8124609,48.9751172 27.8596875,49.029375 27.9082031,49.0823437 C27.9850781,49.1661328 28.0635937,49.2485156 28.1419922,49.3310156 C28.1853516,49.3766016 28.2280078,49.423125 28.2718359,49.4683594 C28.3674609,49.5667969 28.4648437,49.6634766 28.5624609,49.7599219 C28.5891797,49.7862891 28.6150781,49.8133594 28.6419141,49.8396094 C25.7350781,52.0750781 22.1609766,53.2959375 18.4716797,53.2959375 Z M16.2253125,13.4984766 L20.7179297,13.4984766 L21.6517969,14.5853906 L18.4715625,17.765625 L15.2913281,14.5853906 L16.2253125,13.4984766 Z M39.2820703,13.4984766 L43.7746875,13.4984766 L44.7085547,14.5853906 L41.5283203,17.765625 L38.3480859,14.5853906 L39.2820703,13.4984766 Z M43.5666797,18.2478516 L47.1372656,14.6772656 L44.5932422,11.7164062 L38.4636328,11.7164062 L35.9196094,14.6772656 L39.4901953,18.2478516 C36.0264844,18.6321094 32.7333984,19.9897266 30.0001172,22.1744531 C27.2668359,19.9897266 23.97375,18.6321094 20.5100391,18.2478516 L24.080625,14.6772656 L21.5366016,11.7164062 L15.4071094,11.7164062 L12.8629688,14.6772656 L16.4335547,18.2478516 C7.20363281,19.2657422 0,27.1100391 0,36.6064453 C0,46.7916797 8.28632813,55.078125 18.4716797,55.078125 C22.6709766,55.078125 26.7349219,53.6484375 30,51.0384375 C33.2650781,53.6484375 37.3291406,55.078125 41.5283203,55.078125 C51.7136719,55.078125 60,46.7916797 60,36.6064453 C60,27.1100391 52.7963672,19.2657422 43.5666797,18.2478516 Z" id="path-1"></path>
    </defs>
    <g id="Home-2" stroke="none" stroke-width="1" fill="none" fill-rule="evenodd" transform="translate(-282.000000, -1768.000000)">
        <g id="icon-/-engagement" transform="translate(282.000000, 1768.000000)">
            <mask id="mask-2" fill="white">
                <use xlink:href="#path-1"></use>
            </mask>
            <use id="Combined-Shape" fill="#B793DA" fill-rule="nonzero" xlink:href="#path-1"></use>
            <g id="color/secondary-/-gold" mask="url(#mask-2)" fill="#C7BE7E" fill-rule="evenodd">
                <g transform="translate(-3.000000, 0.000000)" id="purple">
                    <rect x="0" y="0" width="63" height="68"></rect>
                </g>
            </g>
        </g>
    </g>
</svg>