<?xml version="1.0" encoding="UTF-8"?>
<svg width="60px" height="67px" viewBox="0 0 60 67" version="1.1" xmlns="http://www.w3.org/2000/svg" xmlns:xlink="http://www.w3.org/1999/xlink">
    <!-- Generator: Sketch 48.2 (47327) - http://www.bohemiancoding.com/sketch -->
    <title>icon / legal</title>
    <desc>Created with Sketch.</desc>
    <defs>
        <path d="M51.7135599,46.2674821 L34.9730977,27.9018263 L38.4708501,24.4042032 L56.8366351,41.1445362 L51.7135599,46.2674821 Z M25.4575413,35.2533875 L13.7048399,23.5005568 L15.3837973,21.8215995 L27.1364987,33.5743009 L25.4575413,35.2533875 Z M31.3088841,7.38833039 L41.5700262,17.6494725 L28.2184963,31.000744 L17.9573541,20.7396019 L31.3088841,7.38833039 Z M34.0698391,3.13581615 L45.8225405,14.8885176 L44.1435831,16.5674749 L32.3910109,4.81477349 L34.0698391,3.13581615 Z M59.5783333,40.1458984 L40.3005013,22.5744227 L43.4137646,19.4611594 C43.633085,19.6115948 43.8879463,19.6877172 44.1434539,19.6877172 C44.4743084,19.6877172 44.8049044,19.5614497 45.0573102,19.3091731 L48.5641094,15.8023739 C49.0687918,15.2976915 49.0687918,14.4793436 48.5641094,13.974532 L34.9836954,0.394117959 C34.4788838,-0.110435153 33.6607943,-0.110435153 33.1558535,0.394117959 L29.6490543,3.90091718 C29.2018837,4.34808771 29.1517386,5.04120204 29.497068,5.54446275 L16.1136158,18.9280442 C15.6102258,18.5828441 14.91737,18.63286 14.4700702,19.0800305 L10.963271,22.5868297 C10.4585886,23.0915121 10.4585886,23.90986 10.963271,24.4146716 L24.543685,37.9952149 C24.7861393,38.23754 25.1147967,38.373759 25.4575413,38.373759 C25.8002859,38.373759 26.1290726,38.23754 26.3713976,37.9952149 L29.8781969,34.4882864 C30.3253674,34.0411159 30.3755125,33.3480016 30.0301832,32.8447409 L33.1434465,29.7316068 L50.7151806,49.0093095 C50.9531115,49.2702451 51.2874555,49.4226192 51.6404101,49.4307613 C51.6503616,49.4310198 51.660313,49.431149 51.6702645,49.431149 C52.0126214,49.431149 52.341408,49.2951885 52.5841208,49.0526049 L59.6214994,42.0152263 C59.8711912,41.7654053 60.0077979,41.4244701 59.9996558,41.0713863 C59.9916429,40.7181733 59.8392689,40.3838293 59.5783333,40.1458984 Z M46.7388847,64.3892619 L5.12294591,64.3892619 C3.72340552,64.3892619 2.58480078,63.2506571 2.58480078,61.8511167 C2.58480078,60.4517056 3.72327628,59.3131009 5.12294591,59.3131009 L6.16707618,59.3131009 C6.1713411,59.3131009 6.17547678,59.3124547 6.1797417,59.3124547 C6.18142183,59.3124547 6.18310195,59.3127131 6.18491131,59.3127131 L34.0270929,59.3127131 C34.7408856,59.3127131 35.3194933,58.7341055 35.3194933,58.0203127 C35.3194933,57.3066493 34.7408856,56.7279124 34.0270929,56.7279124 L7.45947657,56.7279124 L7.45947657,55.0380988 C7.45947657,53.6386877 8.59808131,52.500083 9.99749246,52.500083 L41.8643381,52.500083 C43.2637493,52.500083 44.402354,53.6386877 44.402354,55.0380988 L44.402354,58.0207005 C44.402354,58.7344932 44.9810909,59.3131009 45.6947544,59.3131009 L46.7388847,59.3131009 C48.138425,59.3131009 49.2770298,60.4517056 49.2770298,61.8511167 C49.2769006,63.2506571 48.138425,64.3892619 46.7388847,64.3892619 Z M46.9871548,56.7407432 L46.9871548,55.0445969 C46.9871548,52.2199266 44.6891376,49.9217802 41.8643381,49.9217802 L9.99749246,49.9217802 C7.17282216,49.9217802 4.87467579,52.2197974 4.87467579,55.0445969 L4.87467579,56.7407432 C2.16477065,56.8707586 0,59.1161751 0,61.8576148 C0,64.6822851 2.29814637,66.9805607 5.12294591,66.9805607 L46.7388847,66.9805607 C49.5636842,66.9805607 51.8618306,64.6824143 51.8618306,61.8576148 C51.8617013,59.1161751 49.6969307,56.8707586 46.9871548,56.7407432 Z M40.2879974,58.2738817 C40.2556873,58.1950453 40.2156229,58.1200861 40.1690965,58.0502964 C40.1226993,57.9792144 40.0684185,57.913302 40.0089681,57.8538516 C39.9495177,57.7944012 39.883476,57.7401203 39.8125233,57.6935939 C39.7427336,57.6470675 39.6677744,57.6070031 39.588938,57.5746931 C39.5112647,57.5423831 39.4299727,57.5178275 39.3472591,57.5010263 C39.1805395,57.4674239 39.0086502,57.4674239 38.8419306,57.5010263 C38.7605093,57.5178275 38.6790881,57.5423831 38.6002517,57.5746931 C38.5227077,57.6070031 38.4477484,57.6470675 38.3779588,57.6935939 C38.3067476,57.7401203 38.2408351,57.7944012 38.1813847,57.8538516 C37.9397058,58.0942381 37.8027114,58.4275481 37.8027114,58.7675787 C37.8027114,58.8527478 37.8104658,58.9368831 37.8271378,59.0208891 C37.8440682,59.1023104 37.8684946,59.1837316 37.9008046,59.2624388 C37.9331146,59.340112 37.973179,59.4150713 38.0197054,59.4848609 C38.0675242,59.5559429 38.1218051,59.6218553 38.1812555,59.6813057 C38.2407059,59.7407561 38.3066183,59.795037 38.3778296,59.8428558 C38.4476192,59.8893822 38.5225784,59.9294466 38.6001224,59.9617566 C38.6789589,59.9940666 38.7603801,60.0186222 38.8418013,60.0354234 C38.9256781,60.0522246 39.0109765,60.059979 39.0951118,60.059979 C39.1789886,60.059979 39.2644162,60.0520954 39.3471299,60.0354234 C39.4298435,60.0186222 39.5112647,59.9940666 39.5888087,59.9617566 C39.6675159,59.9294466 39.7426044,59.8893822 39.812394,59.8428558 C39.883476,59.795037 39.9495177,59.7407561 40.0088389,59.6813057 C40.0682893,59.6218553 40.1225701,59.5559429 40.1689673,59.4848609 C40.2154937,59.4150713 40.2555581,59.340112 40.2878681,59.2624388 C40.3201781,59.1837316 40.3447337,59.1023104 40.3615349,59.0208891 C40.3783361,58.9368831 40.3873829,58.8527478 40.3873829,58.7675787 C40.3873829,58.6835726 40.3783361,58.5994374 40.3615349,58.5155606 C40.3449922,58.432847 40.3203074,58.3514257 40.2879974,58.2738817 M26.7785361,44.6443564 L26.7785361,42.1350318 C26.7785361,41.4212391 26.1997992,40.8426314 25.4861357,40.8426314 C24.772343,40.8426314 24.1937353,41.4212391 24.1937353,42.1350318 L24.1937353,44.6443564 C24.1937353,45.3580199 24.772343,45.9367568 25.4861357,45.9367568 C26.1997992,45.9367568 26.7785361,45.3580199 26.7785361,44.6443564 M17.2112514,47.2491894 C17.5421059,47.2491894 17.8728312,47.1229219 18.1251077,46.8706453 C18.6297901,46.365963 18.6297901,45.5476151 18.1251077,45.0428035 L15.8153297,42.7331547 C15.3105182,42.2286016 14.4921702,42.2286016 13.9874879,42.7331547 C13.4828055,43.2378371 13.4828055,44.056185 13.9874879,44.5609966 L16.2972658,46.8706453 C16.5498009,47.1229219 16.8803969,47.2491894 17.2112514,47.2491894 M35.4727397,46.8771434 L37.7823884,44.5674946 C38.2870708,44.0628123 38.2870708,43.2444644 37.7823884,42.7396528 C37.2775768,42.2350997 36.4594874,42.2350997 35.9545465,42.7396528 L33.6448978,45.0493015 C33.1402155,45.5539839 33.1402155,46.3723318 33.6448978,46.8771434 C33.8973036,47.1294199 34.2280289,47.2556875 34.5587541,47.2556875 C34.8894794,47.2556875 35.2203339,47.1294199 35.4727397,46.8771434" id="path-1"></path>
    </defs>
    <g id="Home-2" stroke="none" stroke-width="1" fill="none" fill-rule="evenodd" transform="translate(-263.000000, -1737.000000)" opacity="0.7">
        <g id="icon-/-legal" transform="translate(263.000000, 1737.000000)">
            <mask id="mask-2" fill="white">
                <use xlink:href="#path-1"></use>
            </mask>
            <use id="Combined-Shape" fill="#B793DA" fill-rule="nonzero" xlink:href="#path-1"></use>
            <g id="color/secondary-/-gold" mask="url(#mask-2)" fill="#C7BE7E" fill-rule="evenodd">
                <g transform="translate(-3.000000, 0.000000)" id="purple">
                    <rect x="0" y="0" width="63" height="68"></rect>
                </g>
            </g>
        </g>
    </g>
</svg>