<?xml version="1.0" encoding="UTF-8"?>
<svg width="39px" height="24px" viewBox="0 0 39 24" version="1.1" xmlns="http://www.w3.org/2000/svg" xmlns:xlink="http://www.w3.org/1999/xlink">
    <!-- Generator: Sketch 43.2 (39069) - http://www.bohemiancoding.com/sketch -->
    <title>mastercard</title>
    <desc>Created with Sketch.</desc>
    <defs>
        <polygon id="path-1" points="0.00579207921 23.3615792 0.00579207921 0.00772277228 38.9226757 0.00772277228 38.9226757 23.3615792 0.00579207921 23.3615792"></polygon>
    </defs>
    <g id="Desktop" stroke="none" stroke-width="1" fill="none" fill-rule="evenodd">
        <g id="Home" transform="translate(-1128.000000, -2759.000000)">
            <g id="Footer" transform="translate(208.000000, 2683.000000)">
                <g id="mastercard" transform="translate(920.000000, 76.000000)">
                    <path d="M38.9226757,11.684651 C38.9226757,18.109901 33.7331658,23.3615792 27.2457475,23.3615792 C20.8205941,23.3615792 15.5692054,18.109901 15.5692054,11.684651 C15.5692054,5.25901485 20.7587153,0.00772277228 27.1843515,0.00772277228 C33.7331658,0.00772277228 38.9226757,5.25901485 38.9226757,11.684651 Z" id="Fill-1" fill="#FFB600"></path>
                    <path d="M27.2457475,0.00772277228 C33.6713837,0.00772277228 38.9226757,5.25901485 38.9226757,11.684651 C38.9226757,18.109901 33.7331658,23.3615792 27.2457475,23.3615792 C20.8205941,23.3615792 15.5692054,18.109901 15.5692054,11.684651" id="Fill-2" fill="#F8981D"></path>
                    <g id="Group-7">
                        <mask id="mask-2" fill="white">
                            <use xlink:href="#path-1"></use>
                        </mask>
                        <g id="Clip-4"></g>
                        <path d="M27.2457475,0.00772277228 C33.6713837,0.00772277228 38.9226757,5.25901485 38.9226757,11.684651 C38.9226757,18.109901 33.7331658,23.3615792 27.2457475,23.3615792" id="Fill-3" fill="#FF8500" mask="url(#mask-2)"></path>
                        <path d="M11.5532673,0.00772277228 C5.18989604,0.0696014851 0,5.25901485 0,11.684651 C0,18.109901 5.18989604,23.3615792 11.6769282,23.3615792 C14.7041584,23.3615792 17.4225743,22.1877178 19.5229752,20.3339629 C19.955547,19.9632698 20.3262401,19.530698 20.6968366,19.0986089 L18.2876213,19.0986089 C17.9784208,18.7279158 17.6696064,18.2953441 17.4225743,17.9247475 L21.5618837,17.9247475 C21.809302,17.5540545 22.0562376,17.1214827 22.2413911,16.6890074 L16.7430668,16.6890074 C16.5576238,16.3183144 16.3724703,15.8857426 16.2487129,15.4532673 L22.6739629,15.4532673 C23.0446559,14.2794059 23.2919777,13.0436658 23.2919777,11.7465297 C23.2919777,10.8814827 23.1683168,10.0782178 23.0446559,9.2750495 L15.8780198,9.2750495 C15.9398985,8.84257426 16.0631733,8.47188119 16.1869307,8.03930941 L22.6120842,8.03930941 C22.4888094,7.60683416 22.3032698,7.17426238 22.1181163,6.80356931 L16.6812847,6.80356931 C16.8664381,6.3714802 17.1137599,6.00040099 17.3607921,5.56831188 L21.5001015,5.56831188 C21.2530693,5.1357401 20.944255,4.70326485 20.5735619,4.33257178 L18.2876213,4.33257178 C18.6583144,3.9 19.0290074,3.52930693 19.4615792,3.1587104 C17.4225743,1.24346287 14.6423762,0.131383663 11.6150495,0.131383663 C11.6150495,0.00772277228 11.6150495,0.00772277228 11.5532673,0.00772277228 Z" id="Fill-5" fill="#FF5050" mask="url(#mask-2)"></path>
                        <path d="M0,11.684651 C0,18.109901 5.18989604,23.3615792 11.6769282,23.3615792 C14.7041584,23.3615792 17.4225743,22.1877178 19.5229752,20.3339629 C19.955547,19.9632698 20.3262401,19.530698 20.6968366,19.0986089 L18.2876213,19.0986089 C17.9784208,18.7279158 17.6696064,18.2953441 17.4225743,17.9247475 L21.5618837,17.9247475 C21.809302,17.5540545 22.0562376,17.1214827 22.2413911,16.6890074 L16.7430668,16.6890074 C16.5576238,16.3183144 16.3724703,15.8857426 16.2487129,15.4532673 L22.6739629,15.4532673 C23.0446559,14.2794059 23.2919777,13.0436658 23.2919777,11.7465297 C23.2919777,10.8814827 23.1683168,10.0782178 23.0446559,9.2750495 L15.8780198,9.2750495 C15.9398985,8.84257426 16.0631733,8.47188119 16.1869307,8.03930941 L22.6120842,8.03930941 C22.4888094,7.60683416 22.3032698,7.17426238 22.1181163,6.80356931 L16.6812847,6.80356931 C16.8664381,6.3714802 17.1137599,6.00040099 17.3607921,5.56831188 L21.5001015,5.56831188 C21.2530693,5.1357401 20.944255,4.70326485 20.5735619,4.33257178 L18.2876213,4.33257178 C18.6583144,3.9 19.0290074,3.52930693 19.4615792,3.1587104 C17.4225743,1.24346287 14.6423762,0.131383663 11.6150495,0.131383663 L11.5532673,0.131383663" id="Fill-6" fill="#E52836" mask="url(#mask-2)"></path>
                    </g>
                    <path d="M11.6769282,23.3615792 C14.7041584,23.3615792 17.4225743,22.1877178 19.5229752,20.3339629 C19.955547,19.9632698 20.3262401,19.530698 20.6968366,19.0986089 L18.2876213,19.0986089 C17.9784208,18.7279158 17.6696064,18.2953441 17.4225743,17.9247475 L21.5618837,17.9247475 C21.809302,17.5540545 22.0562376,17.1214827 22.2413911,16.6890074 L16.7430668,16.6890074 C16.5576238,16.3183144 16.3724703,15.8857426 16.2487129,15.4532673 L22.6739629,15.4532673 C23.0446559,14.2794059 23.2919777,13.0436658 23.2919777,11.7465297 C23.2919777,10.8814827 23.1683168,10.0782178 23.0446559,9.2750495 L15.8780198,9.2750495 C15.9398985,8.84257426 16.0631733,8.47188119 16.1869307,8.03930941 L22.6120842,8.03930941 C22.4888094,7.60683416 22.3032698,7.17426238 22.1181163,6.80356931 L16.6812847,6.80356931 C16.8664381,6.3714802 17.1137599,6.00040099 17.3607921,5.56831188 L21.5001015,5.56831188 C21.2530693,5.1357401 20.944255,4.70326485 20.5735619,4.33257178 L18.2876213,4.33257178 C18.6583144,3.9 19.0290074,3.52930693 19.4615792,3.1587104 C17.4225743,1.24346287 14.6423762,0.131383663 11.6150495,0.131383663 L11.5532673,0.131383663" id="Fill-8" fill="#CB1F26"></path>
                    <path d="M15.8162376,14.650099 L16.0017772,13.5998985 C15.9398985,13.5998985 15.8162376,13.6616807 15.6925767,13.6616807 C15.260005,13.6616807 15.1985124,13.4143589 15.260005,13.2910842 L15.6310842,11.1284183 L16.3105916,11.1284183 L16.495745,9.95455693 L15.8780198,9.95455693 L16.0017772,9.21317079 L14.7660371,9.21317079 C14.7660371,9.21317079 14.024651,13.2910842 14.024651,13.785052 C14.024651,14.5263416 14.4572228,14.8356386 15.0130693,14.8356386 C15.3836658,14.8356386 15.6925767,14.7118812 15.8162376,14.650099 Z" id="Fill-9" fill="#FFFFFF"></path>
                    <path d="M16.2487129,12.6729728 C16.2487129,14.4030668 17.4225743,14.8356386 18.4109926,14.8356386 C19.3378218,14.8356386 19.7085149,14.650099 19.7085149,14.650099 L19.955547,13.4762376 C19.955547,13.4762376 19.2760396,13.785052 18.6583144,13.785052 C17.2989134,13.785052 17.5463317,12.7966337 17.5463317,12.7966337 L20.0792079,12.7966337 C20.0792079,12.7966337 20.2647475,11.9934653 20.2647475,11.684651 C20.2647475,10.8814827 19.8321757,9.89267822 18.4727748,9.89267822 C17.1756386,9.76940347 16.2487129,11.1284183 16.2487129,12.6729728 Z M18.4109926,10.8814827 C19.0908861,10.8814827 18.9671287,11.684651 18.9671287,11.7465297 L17.6077277,11.7465297 C17.6077277,11.684651 17.7314851,10.8814827 18.4109926,10.8814827 Z" id="Fill-10" fill="#FFFFFF"></path>
                    <path d="M26.2574257,14.650099 L26.5044579,13.2910842 C26.5044579,13.2910842 25.8867327,13.5998985 25.4542574,13.5998985 C24.5892104,13.5998985 24.2185173,12.9203911 24.2185173,12.1786188 C24.2185173,10.6959431 24.9599035,9.89267822 25.8249505,9.89267822 C26.4429653,9.89267822 26.9369332,10.2633713 26.9369332,10.2633713 L27.1224728,8.96623515 C27.1224728,8.96623515 26.3810866,8.65742079 25.7011931,8.65742079 C24.280396,8.65742079 22.8595025,9.89267822 22.8595025,12.2404975 C22.8595025,13.785052 23.6007921,14.8356386 25.0835644,14.8356386 C25.5779183,14.8356386 26.2574257,14.650099 26.2574257,14.650099 Z" id="Fill-11" fill="#FFFFFF"></path>
                    <path d="M9.02029455,9.76940347 C8.15524752,9.76940347 7.53723267,10.0164356 7.53723267,10.0164356 L7.35207921,11.0666361 C7.35207921,11.0666361 7.90831188,10.819604 8.71109406,10.819604 C9.14366584,10.819604 9.51435891,10.8814827 9.51435891,11.2520792 C9.51435891,11.4991114 9.45286634,11.5609901 9.45286634,11.5609901 L8.89663366,11.5609901 C7.84643317,11.5609901 6.67257178,11.9934653 6.67257178,13.4143589 C6.67257178,14.5263416 7.41395792,14.7737599 7.84643317,14.7737599 C8.71109406,14.7737599 9.08178713,14.2175272 9.14366584,14.2175272 L9.08178713,14.7118812 L10.1942525,14.7118812 L10.6882203,11.3139579 C10.6882203,9.83128218 9.45286634,9.76940347 9.02029455,9.76940347 Z M9.26732673,12.549698 C9.26732673,12.7348515 9.14366584,13.7231733 8.4022797,13.7231733 C8.03158663,13.7231733 7.90831188,13.4143589 7.90831188,13.2292054 C7.90831188,12.9203911 8.09346535,12.4878193 9.02029455,12.4878193 C9.20544802,12.549698 9.26732673,12.549698 9.26732673,12.549698 Z" id="Fill-12" fill="#FFFFFF"></path>
                    <path d="M11.8620817,14.7737599 C12.170896,14.7737599 13.7154505,14.8356386 13.7154505,13.1673267 C13.7154505,11.6227723 12.2327748,11.9316832 12.2327748,11.3139579 C12.2327748,11.0051436 12.4800965,10.8814827 12.9126683,10.8814827 C13.0978218,10.8814827 13.7773292,10.9432649 13.7773292,10.9432649 L13.9628688,9.83128218 C13.9628688,9.83128218 13.530297,9.70752475 12.7889109,9.70752475 C11.8620817,9.70752475 10.9355421,10.0782178 10.9355421,11.3139579 C10.9355421,12.7348515 12.4800965,12.6111906 12.4800965,13.1673267 C12.4800965,13.5380198 12.0476213,13.5998985 11.7388069,13.5998985 C11.1825743,13.5998985 10.6263416,13.4143589 10.6263416,13.4143589 L10.4411881,14.5263416 C10.5030668,14.650099 10.8118812,14.7737599 11.8620817,14.7737599 Z" id="Fill-13" fill="#FFFFFF"></path>
                    <path d="M36.5130743,8.78069554 L36.2661386,10.4489109 C36.2661386,10.4489109 35.7717847,9.83128218 35.0922772,9.83128218 C33.980198,9.83128218 32.9918762,11.190297 32.9918762,12.7966337 C32.9918762,13.785052 33.4858441,14.8356386 34.5364307,14.8356386 C35.2777203,14.8356386 35.7102921,14.3411881 35.7102921,14.3411881 L35.6484134,14.7737599 L36.8837673,14.7737599 L37.8106931,8.84257426 L36.5130743,8.78069554 Z M35.9572277,12.0553441 C35.9572277,12.7348515 35.6484134,13.5998985 34.9685198,13.5998985 C34.5364307,13.5998985 34.2890124,13.2292054 34.2890124,12.6111906 C34.2890124,11.6227723 34.7215842,11.0051436 35.2777203,11.0051436 C35.7102921,11.0051436 35.9572277,11.3139579 35.9572277,12.0553441 Z" id="Fill-14" fill="#FFFFFF"></path>
                    <polygon id="Fill-15" fill="#FFFFFF" points="2.28594059 14.7118812 3.0272302 10.2633713 3.15098762 14.7118812 4.01603465 14.7118812 5.62198515 10.2633713 4.94247772 14.7118812 6.24009653 14.7118812 7.22841832 8.78069554 5.18989604 8.78069554 3.95415594 12.4260371 3.89227723 8.78069554 2.10078713 8.78069554 1.11207921 14.7118812"></polygon>
                    <path d="M21.4382228,14.7118812 C21.809302,12.6729728 21.8707946,11.0051436 22.7358416,11.3139579 C22.8595025,10.5107896 23.0446559,10.2019752 23.1683168,9.89267822 L22.9212847,9.89267822 C22.3651485,9.89267822 21.9325767,10.6340644 21.9325767,10.6340644 L22.0562376,9.95455693 L20.8823762,9.95455693 L20.0792079,14.7737599 L21.4382228,14.7737599 L21.4382228,14.7118812 Z" id="Fill-16" fill="#FFFFFF"></path>
                    <path d="M29.0995025,9.76940347 C28.2344554,9.76940347 27.6164406,10.0164356 27.6164406,10.0164356 L27.4312871,11.0666361 C27.4312871,11.0666361 27.9875198,10.819604 28.790302,10.819604 C29.2228738,10.819604 29.5935668,10.8814827 29.5935668,11.2520792 C29.5935668,11.4991114 29.5320743,11.5609901 29.5320743,11.5609901 L28.9758416,11.5609901 C27.9256411,11.5609901 26.7517797,11.9934653 26.7517797,13.4143589 C26.7517797,14.5263416 27.4931658,14.7737599 27.9256411,14.7737599 C28.790302,14.7737599 29.160995,14.2175272 29.2228738,14.2175272 L29.160995,14.7118812 L30.2734604,14.7118812 L30.7674282,11.3139579 C30.8292104,9.83128218 29.5320743,9.76940347 29.0995025,9.76940347 Z M29.4084134,12.549698 C29.4084134,12.7348515 29.2846559,13.7231733 28.5433663,13.7231733 C28.1726733,13.7231733 28.0490124,13.4143589 28.0490124,13.2292054 C28.0490124,12.9203911 28.2344554,12.4878193 29.160995,12.4878193 C29.3465347,12.549698 29.3465347,12.549698 29.4084134,12.549698 Z" id="Fill-17" fill="#FFFFFF"></path>
                    <path d="M31.8180149,14.7118812 C32.1886114,12.6729728 32.250104,11.0051436 33.115151,11.3139579 C33.2388119,10.5107896 33.4239653,10.2019752 33.5477228,9.89267822 L33.3006906,9.89267822 C32.7444579,9.89267822 32.3119827,10.6340644 32.3119827,10.6340644 L32.4356436,9.95455693 L31.2617822,9.95455693 L30.4586139,14.7737599 L31.8180149,14.7737599 L31.8180149,14.7118812 Z" id="Fill-18" fill="#FFFFFF"></path>
                    <path d="M13.9009901,13.785052 C13.9009901,14.5263416 14.3334653,14.8356386 14.8893119,14.8356386 C15.3218837,14.8356386 15.6925767,14.7118812 15.8162376,14.650099 L16.0017772,13.5998985 C15.9398985,13.5998985 15.8162376,13.6616807 15.6925767,13.6616807 C15.260005,13.6616807 15.1985124,13.4143589 15.260005,13.2910842 L15.6310842,11.1284183 L16.3105916,11.1284183 L16.495745,9.95455693 L15.8780198,9.95455693 L16.0017772,9.21317079" id="Fill-19" fill="#DCE5E5"></path>
                    <path d="M16.8664381,12.6729728 C16.8664381,14.4030668 17.4225743,14.8356386 18.4109926,14.8356386 C19.3378218,14.8356386 19.7085149,14.650099 19.7085149,14.650099 L19.955547,13.4762376 C19.955547,13.4762376 19.2760396,13.785052 18.6583144,13.785052 C17.2989134,13.785052 17.5463317,12.7966337 17.5463317,12.7966337 L20.0792079,12.7966337 C20.0792079,12.7966337 20.2647475,11.9934653 20.2647475,11.684651 C20.2647475,10.8814827 19.8321757,9.89267822 18.4727748,9.89267822 C17.1756386,9.76940347 16.8664381,11.1284183 16.8664381,12.6729728 Z M18.4109926,10.8814827 C19.0908861,10.8814827 19.2141609,11.684651 19.2141609,11.7465297 L17.6077277,11.7465297 C17.6077277,11.684651 17.7314851,10.8814827 18.4109926,10.8814827 Z" id="Fill-20" fill="#DCE5E5"></path>
                    <path d="M26.2574257,14.650099 L26.5044579,13.2910842 C26.5044579,13.2910842 25.8867327,13.5998985 25.4542574,13.5998985 C24.5892104,13.5998985 24.2185173,12.9203911 24.2185173,12.1786188 C24.2185173,10.6959431 24.9599035,9.89267822 25.8249505,9.89267822 C26.4429653,9.89267822 26.9369332,10.2633713 26.9369332,10.2633713 L27.1224728,8.96623515 C27.1224728,8.96623515 26.3810866,8.65742079 25.7011931,8.65742079 C24.280396,8.65742079 23.4771312,9.89267822 23.4771312,12.2404975 C23.4771312,13.785052 23.6007921,14.8356386 25.0835644,14.8356386 C25.5779183,14.8356386 26.2574257,14.650099 26.2574257,14.650099 Z" id="Fill-21" fill="#DCE5E5"></path>
                    <path d="M7.35207921,11.1284183 C7.35207921,11.1284183 7.90831188,10.8814827 8.71109406,10.8814827 C9.14366584,10.8814827 9.51435891,10.9432649 9.51435891,11.3139579 C9.51435891,11.5609901 9.45286634,11.6227723 9.45286634,11.6227723 L8.89663366,11.6227723 C7.84643317,11.6227723 6.67257178,12.0553441 6.67257178,13.4762376 C6.67257178,14.5882203 7.41395792,14.8356386 7.84643317,14.8356386 C8.71109406,14.8356386 9.08178713,14.2794059 9.14366584,14.2794059 L9.08178713,14.7737599 L10.1942525,14.7737599 L10.6882203,11.3758366 C10.6882203,9.95455693 9.45286634,9.89267822 8.95851238,9.89267822 L7.35207921,11.1284183 Z M9.88495545,12.549698 C9.88495545,12.7348515 9.14366584,13.7231733 8.4022797,13.7231733 C8.03158663,13.7231733 7.90831188,13.4143589 7.90831188,13.2292054 C7.90831188,12.9203911 8.09346535,12.4878193 9.02029455,12.4878193 C9.20544802,12.549698 9.88495545,12.549698 9.88495545,12.549698 Z" id="Fill-22" fill="#DCE5E5"></path>
                    <path d="M10.5030668,14.650099 C10.5030668,14.650099 10.8737599,14.7737599 11.9239604,14.7737599 C12.2327748,14.7737599 13.7773292,14.8356386 13.7773292,13.1673267 C13.7773292,11.6227723 12.2945569,11.9316832 12.2945569,11.3139579 C12.2945569,11.0051436 12.5419752,10.8814827 12.9740644,10.8814827 C13.159604,10.8814827 13.8391114,10.9432649 13.8391114,10.9432649 L14.024651,9.83128218 C14.024651,9.83128218 13.5921757,9.70752475 12.8507896,9.70752475 C11.9239604,9.70752475 11.6150495,10.0782178 11.6150495,11.3139579 C11.6150495,12.7348515 12.5419752,12.6111906 12.5419752,13.1673267 C12.5419752,13.5380198 12.1094035,13.5998985 11.800203,13.5998985" id="Fill-23" fill="#DCE5E5"></path>
                    <path d="M36.2661386,10.4489109 C36.2661386,10.4489109 35.7717847,9.83128218 35.0922772,9.83128218 C33.980198,9.83128218 33.609505,11.190297 33.609505,12.7966337 C33.609505,13.785052 33.4858441,14.8356386 34.5364307,14.8356386 C35.2777203,14.8356386 35.7102921,14.3411881 35.7102921,14.3411881 L35.6484134,14.7737599 L36.8837673,14.7737599 L37.8106931,8.84257426 L36.2661386,10.4489109 Z M36.2042599,12.0553441 C36.2042599,12.7348515 35.6484134,13.5998985 34.9685198,13.5998985 C34.5364307,13.5998985 34.2890124,13.2292054 34.2890124,12.6111906 C34.2890124,11.6227723 34.7215842,11.0051436 35.2777203,11.0051436 C35.7102921,11.0051436 36.2042599,11.3139579 36.2042599,12.0553441 Z" id="Fill-24" fill="#DCE5E5"></path>
                    <polygon id="Fill-25" fill="#DCE5E5" points="2.28594059 14.7118812 3.0272302 10.2633713 3.15098762 14.7118812 4.01603465 14.7118812 5.62198515 10.2633713 4.94247772 14.7118812 6.24009653 14.7118812 7.22841832 8.78069554 5.68386386 8.78069554 3.95415594 12.4260371 3.89227723 8.78069554 3.2127698 8.78069554 1.11207921 14.7118812"></polygon>
                    <path d="M20.1410866,14.7118812 L21.4382228,14.7118812 C21.809302,12.6729728 21.8707946,11.0051436 22.7358416,11.3139579 C22.8595025,10.5107896 23.0446559,10.2019752 23.1683168,9.89267822 L22.9212847,9.89267822 C22.3651485,9.89267822 21.9325767,10.6340644 21.9325767,10.6340644 L22.0562376,9.95455693" id="Fill-26" fill="#DCE5E5"></path>
                    <path d="M27.4312871,11.1284183 C27.4312871,11.1284183 27.9875198,10.8814827 28.790302,10.8814827 C29.2228738,10.8814827 29.5935668,10.9432649 29.5935668,11.3139579 C29.5935668,11.5609901 29.5320743,11.6227723 29.5320743,11.6227723 L28.9758416,11.6227723 C27.9256411,11.6227723 26.7517797,12.0553441 26.7517797,13.4762376 C26.7517797,14.5882203 27.4931658,14.8356386 27.9256411,14.8356386 C28.790302,14.8356386 29.160995,14.2794059 29.2228738,14.2794059 L29.160995,14.7737599 L30.2734604,14.7737599 L30.7674282,11.3758366 C30.7674282,9.95455693 29.5320743,9.89267822 29.0377203,9.89267822 L27.4312871,11.1284183 Z M29.9641634,12.549698 C29.9641634,12.7348515 29.2228738,13.7231733 28.4814876,13.7231733 C28.1107946,13.7231733 27.9875198,13.4143589 27.9875198,13.2292054 C27.9875198,12.9203911 28.1726733,12.4878193 29.0995025,12.4878193 C29.3465347,12.549698 29.9641634,12.549698 29.9641634,12.549698 Z" id="Fill-27" fill="#DCE5E5"></path>
                    <path d="M30.520396,14.7118812 L31.8180149,14.7118812 C32.1886114,12.6729728 32.250104,11.0051436 33.115151,11.3139579 C33.2388119,10.5107896 33.4239653,10.2019752 33.5477228,9.89267822 L33.3006906,9.89267822 C32.7444579,9.89267822 32.3119827,10.6340644 32.3119827,10.6340644 L32.4356436,9.95455693" id="Fill-28" fill="#DCE5E5"></path>
                </g>
            </g>
        </g>
    </g>
</svg>