<?xml version="1.0" encoding="UTF-8"?>
<svg width="18px" height="16px" viewBox="0 0 18 16" version="1.1" xmlns="http://www.w3.org/2000/svg" xmlns:xlink="http://www.w3.org/1999/xlink">
    <!-- Generator: Sketch 48.2 (47327) - http://www.bohemiancoding.com/sketch -->
    <title>pencil</title>
    <desc>Created with Sketch.</desc>
    <defs>
        <path d="M10.5519728,3.96597347 C10.1167182,3.57598204 9.4110231,3.57598204 8.97576847,3.96597347 L3.06533053,9.25992913 L3.06656683,9.26096616 L2.89271224,9.41707335 C2.89271224,9.41707335 2.33854107,9.91671314 1.08686528,13.531998 C1.07805665,13.5570941 1.06932529,13.5821901 1.06059392,13.6078393 C1.03826327,13.6726881 1.01562353,13.7385739 0.9929838,13.8052893 C0.9727394,13.8641233 0.95218593,13.9244092 0.93201879,13.9849024 C0.9144788,14.0359242 0.89755695,14.0863929 0.88009422,14.1385208 C0.84022357,14.2570876 0.80012111,14.377521 0.75901416,14.5017569 C0.66907338,14.7747716 0.44939845,15.3905585 0.69804915,15.6135885 C0.93711853,15.8283223 1.63253689,15.6392377 1.93682106,15.5584878 C2.0747457,15.5220536 2.20842057,15.4861033 2.3397001,15.4507752 C2.4004333,15.4342519 2.45923479,15.4183508 2.51873169,15.4021732 C2.58240111,15.3846129 2.64576145,15.3676056 2.70796276,15.3503218 C2.78646776,15.3286825 2.86373647,15.3075963 2.93976888,15.2863027 C2.96240861,15.2800805 2.98473927,15.2738583 3.00706992,15.2676362 C6.85149718,14.1965943 7.54181581,13.6937743 7.59914919,13.6478685 C7.59945826,13.647592 7.59945826,13.647592 7.59976734,13.6473155 C7.60216267,13.6453797 7.60393985,13.6440661 7.60393985,13.6440661 L7.78173514,13.484433 L7.79378906,13.4950107 L13.3103884,8.55399002 L13.7043043,8.2009859 C14.1394816,7.81134015 14.1394816,7.17909912 13.7043043,6.78938423 L10.5519728,3.96597347 Z M6.96925469,13.0056029 C6.96438676,13.0085757 6.95774165,13.0123782 6.95078747,13.0164571 C6.94684676,13.0186003 6.94236518,13.0210201 6.93780632,13.0237163 C6.93332474,13.0264126 6.92814773,13.0291089 6.92273892,13.0320817 C6.917871,13.0345014 6.91308034,13.0371977 6.90767153,13.0401705 C6.72415835,13.1384807 6.18567273,13.3920685 4.87844074,13.8155213 C4.72568051,13.8649529 4.55939825,13.9173574 4.38492551,13.9713519 L2.52684491,12.3069921 C2.58757811,12.1500553 2.64607052,11.9999629 2.70162672,11.8624531 C3.17366126,10.687985 3.45685107,10.2045919 3.56610902,10.0406725 C3.56881342,10.0365935 3.57120875,10.0330676 3.57360408,10.0296109 C3.57754479,10.0239418 3.58117642,10.0184801 3.58449897,10.0136406 C3.5868943,10.0098382 3.58990778,10.0061049 3.5920713,10.0028556 C3.59655289,9.99663339 3.60080267,9.99068776 3.60412522,9.98640138 L3.74019542,9.86430869 L7.10802928,12.8808831 L6.96925469,13.0056029 Z M16.8565584,3.96597347 L13.7043043,1.14249357 C13.2690496,0.752502142 12.5633545,0.752502142 12.1280999,1.14249357 L11.3400364,1.84815614 C10.9047817,2.23807844 10.9047817,2.87004293 11.3400364,3.26003436 L14.4923678,6.08344512 C14.9276224,6.47316001 15.6332403,6.47316001 16.0684949,6.08344512 L16.8565584,5.37757514 C17.2918131,4.98758371 17.2918131,4.35561922 16.8565584,3.96597347 Z" id="path-1"></path>
    </defs>
    <g id="Page-1" stroke="none" stroke-width="1" fill="none" fill-rule="evenodd">
        <g id="pencil">
            <g id="Combined-Shape" fill="#C7BE7E" fill-rule="nonzero">
                <path d="M10.5519728,3.96597347 C10.1167182,3.57598204 9.4110231,3.57598204 8.97576847,3.96597347 L3.06533053,9.25992913 L3.06656683,9.26096616 L2.89271224,9.41707335 C2.89271224,9.41707335 2.33854107,9.91671314 1.08686528,13.531998 C1.07805665,13.5570941 1.06932529,13.5821901 1.06059392,13.6078393 C1.03826327,13.6726881 1.01562353,13.7385739 0.9929838,13.8052893 C0.9727394,13.8641233 0.95218593,13.9244092 0.93201879,13.9849024 C0.9144788,14.0359242 0.89755695,14.0863929 0.88009422,14.1385208 C0.84022357,14.2570876 0.80012111,14.377521 0.75901416,14.5017569 C0.66907338,14.7747716 0.44939845,15.3905585 0.69804915,15.6135885 C0.93711853,15.8283223 1.63253689,15.6392377 1.93682106,15.5584878 C2.0747457,15.5220536 2.20842057,15.4861033 2.3397001,15.4507752 C2.4004333,15.4342519 2.45923479,15.4183508 2.51873169,15.4021732 C2.58240111,15.3846129 2.64576145,15.3676056 2.70796276,15.3503218 C2.78646776,15.3286825 2.86373647,15.3075963 2.93976888,15.2863027 C2.96240861,15.2800805 2.98473927,15.2738583 3.00706992,15.2676362 C6.85149718,14.1965943 7.54181581,13.6937743 7.59914919,13.6478685 C7.59945826,13.647592 7.59945826,13.647592 7.59976734,13.6473155 C7.60216267,13.6453797 7.60393985,13.6440661 7.60393985,13.6440661 L7.78173514,13.484433 L7.79378906,13.4950107 L13.3103884,8.55399002 L13.7043043,8.2009859 C14.1394816,7.81134015 14.1394816,7.17909912 13.7043043,6.78938423 L10.5519728,3.96597347 Z M6.96925469,13.0056029 C6.96438676,13.0085757 6.95774165,13.0123782 6.95078747,13.0164571 C6.94684676,13.0186003 6.94236518,13.0210201 6.93780632,13.0237163 C6.93332474,13.0264126 6.92814773,13.0291089 6.92273892,13.0320817 C6.917871,13.0345014 6.91308034,13.0371977 6.90767153,13.0401705 C6.72415835,13.1384807 6.18567273,13.3920685 4.87844074,13.8155213 C4.72568051,13.8649529 4.55939825,13.9173574 4.38492551,13.9713519 L2.52684491,12.3069921 C2.58757811,12.1500553 2.64607052,11.9999629 2.70162672,11.8624531 C3.17366126,10.687985 3.45685107,10.2045919 3.56610902,10.0406725 C3.56881342,10.0365935 3.57120875,10.0330676 3.57360408,10.0296109 C3.57754479,10.0239418 3.58117642,10.0184801 3.58449897,10.0136406 C3.5868943,10.0098382 3.58990778,10.0061049 3.5920713,10.0028556 C3.59655289,9.99663339 3.60080267,9.99068776 3.60412522,9.98640138 L3.74019542,9.86430869 L7.10802928,12.8808831 L6.96925469,13.0056029 Z M16.8565584,3.96597347 L13.7043043,1.14249357 C13.2690496,0.752502142 12.5633545,0.752502142 12.1280999,1.14249357 L11.3400364,1.84815614 C10.9047817,2.23807844 10.9047817,2.87004293 11.3400364,3.26003436 L14.4923678,6.08344512 C14.9276224,6.47316001 15.6332403,6.47316001 16.0684949,6.08344512 L16.8565584,5.37757514 C17.2918131,4.98758371 17.2918131,4.35561922 16.8565584,3.96597347 Z" id="path-1"></path>
            </g>
            <g id="color/secondary-/-white-Clipped">
                <mask id="mask-2" fill="white">
                    <use xlink:href="#path-1"></use>
                </mask>
                <g id="path-1"></g>
                <g id="color/secondary-/-white" mask="url(#mask-2)">
                    <g transform="translate(-1.000000, 0.000000)" id="white">
                        <g transform="translate(0.316667, 0.000000)">
                            <rect id="Rectangle-path" fill="#C7BE7E" x="0" y="0" width="19" height="17"></rect>
                        </g>
                    </g>
                </g>
            </g>
        </g>
    </g>
</svg>