<?xml version="1.0" encoding="UTF-8"?>
<svg width="40px" height="13px" viewBox="0 0 40 13" version="1.1" xmlns="http://www.w3.org/2000/svg" xmlns:xlink="http://www.w3.org/1999/xlink">
    <!-- Generator: Sketch 43.2 (39069) - http://www.bohemiancoding.com/sketch -->
    <title>visa</title>
    <desc>Created with Sketch.</desc>
    <defs></defs>
    <g id="Desktop" stroke="none" stroke-width="1" fill="none" fill-rule="evenodd">
        <g id="Home" transform="translate(-1076.000000, -2766.000000)">
            <g id="Footer" transform="translate(208.000000, 2683.000000)">
                <g id="visa" transform="translate(868.000000, 83.000000)">
                    <path d="M16.3087179,0.163418803 L14.3061538,12.6246154 L17.5073504,12.6246154 L19.508547,0.163418803 L16.3087179,0.163418803 Z M25.9635897,5.23948718 C24.8451282,4.68735043 24.1593162,4.31401709 24.1593162,3.74923077 C24.1726496,3.2357265 24.7389744,2.70957265 26.0035897,2.70957265 C27.0432479,2.6834188 27.8071795,2.92786325 28.3873504,3.17094017 L28.6779487,3.30051282 L29.1126496,0.693675214 C28.4808547,0.449230769 27.4779487,0.179487179 26.24,0.179487179 C23.0796581,0.179487179 20.8540171,1.82273504 20.84,4.17316239 C20.8140171,5.90786325 22.4331624,6.87008547 23.6451282,7.44769231 C24.8837607,8.04 25.3051282,8.42393162 25.3051282,8.95008547 C25.2911111,9.75811966 24.3035897,10.1307692 23.382735,10.1307692 C22.1059829,10.1307692 21.4196581,9.9391453 20.3786325,9.48905983 L19.957265,9.29675214 L19.5099145,12.0063248 C20.2617094,12.3401709 21.6446154,12.6347009 23.0796581,12.6494017 C26.4382906,12.6494017 28.6244444,11.0307692 28.6517949,8.52615385 C28.6625641,7.15196581 27.808547,6.09965812 25.9635897,5.23948718 Z M37.3182906,0.202222222 L34.8423932,0.202222222 C34.0791453,0.202222222 33.4989744,0.421196581 33.1690598,1.20444444 L28.4148718,12.6246154 L31.7735043,12.6246154 L32.6989744,10.1521368 L36.4569231,10.1521368 L36.9364103,12.6347009 L39.8991453,12.6347009 L37.3182906,0.202222222 Z M33.6304274,7.65675214 C33.6952137,7.6634188 34.9191453,3.62102564 34.9191453,3.62102564 L35.8947009,7.65675214 L33.6304274,7.65675214 Z M11.6319658,0.163418803 L8.49623932,8.62957265 L8.15435897,6.96034188 C7.57470085,5.03384615 5.7565812,2.93982906 3.72803419,1.90017094 L6.59982906,12.6119658 L9.98598291,12.6119658 L15.0186325,0.164786325 L11.6319658,0.164786325 L11.6319658,0.163418803 Z" id="Fill-1" fill="#2394BC"></path>
                    <path d="M7.09931624,1.77059829 C6.85504274,0.820512821 6.0757265,0.179487179 5.0174359,0.166153846 L0.0514529915,0.166153846 L0,0.396410256 C3.87418803,1.35128205 7.12615385,4.29008547 8.18034188,7.05452991 L7.09931624,1.77059829 Z" id="Fill-2" fill="#EFC75E"></path>
                </g>
            </g>
        </g>
    </g>
</svg>